<?xml version="1.0" encoding="UTF-8" standalone="no"?>
<svg width="539px" height="422px" viewBox="0 0 539 422" version="1.1" xmlns="http://www.w3.org/2000/svg" xmlns:xlink="http://www.w3.org/1999/xlink" xmlns:sketch="http://www.bohemiancoding.com/sketch/ns">
    <!-- Generator: Sketch 3.3.3 (12081) - http://www.bohemiancoding.com/sketch -->
    <title>pigtails</title>
    <desc>Created with Sketch.</desc>
    <defs></defs>
    <g id="Page-1" stroke="none" stroke-width="1" fill="none" fill-rule="evenodd" sketch:type="MSPage">
        <g id="pigtails" sketch:type="MSLayerGroup" stroke="#000000">
            <g id="Group" sketch:type="MSShapeGroup">
                <g>
                    <path d="M97.334,110.56 C88.093,112.513 82.425,117.324 80.043,125.278 C77.709,133.28 80.281,146.212 83.258,157.93 C86.14,169.504 96.618,179.698 97.333,194.392 C97.952,209.157 88.878,226.901 87.092,245.597 C85.282,264.243 86.14,285.464 86.449,305.112 C86.687,324.736 90.545,346.361 88.378,362.08 C86.068,377.584 77.399,387.991 73.017,397.898 C68.658,407.83 67.849,419.07 62.133,420.953 C56.393,422.572 45.747,417.57 39.103,408.14 C32.53,398.589 24.623,376.036 23.099,364.628 C21.741,353.221 24.266,345.266 30.767,340.313 C16.43,324.809 9.309,305.852 9.023,282.702 C8.88,259.434 15.572,233.023 29.481,202.087 C16.215,170.983 7.594,143.738 3.259,118.874 C-0.98,94.058 -0.004,72.91 3.902,54.238 C7.977,35.517 15.836,15.845 26.935,7.533 C38.104,-0.779 55.823,-1.85 69.803,4.961 C83.759,11.868 96.953,26.157 110.123,48.473 C120.006,50.212 127.08,51.831 131.89,53.594 C136.63,55.332 138.678,56.952 138.297,58.715 C143.108,58.690998 147.061,59.119 150.443,60.001 C153.778,60.882 156.278,62.073 158.135,63.835 C160.565,61.335 162.66,59.691 164.518,58.715 C166.352,57.738 167.781,57.524 168.996,58.071 C167.019,50.879 168.39999,45.187 173.497,40.805 C178.57,36.351 190.525,31.564 199.075,31.85 C207.601,32.207 218.89,38.708 224.034,42.733 C229.012,46.663 230.751,50.926 229.155,55.522 C232.441,46.187 237.347,38.78 243.873,33.111 C250.398,27.371 258.233,22.68 268.213,21.608 C278.216,20.56 295.577,24.228 303.389,26.729 C311.081,29.229 314.678,32.302 314.273,36.327 C320.727,35.065 326.824,36.041 332.849,39.518 C338.874,42.948 346.805,51.712 350.116,56.808 C353.307,61.809 353.951,66.072 352.045,69.597 C360.929,69.692001 367.478,70.121 371.884,70.883 C376.242,71.645 378.338,72.646 378.267,74.074 C387.174,69.859 395.58,66.358 403.869,63.214 C412.109,60.07 419.945,57.569 427.565,55.521 C425.588,47.543 428.113,39.374 435.497,30.563 C442.855,21.703 459.122,6.628 471.339,3.056 C483.532,-0.469 495.394,1.627 507.825,9.438 C513.564,11.605 518.899,17.059 523.829,26.085 C528.759,35.064 535.594,46.495 537.262,63.214 C538.905,80.075 538.02396,102.819 533.427,125.921 C528.664,148.927 520.709,173.243 509.111,200.155 C518.257,214.778 523.616,230.711 525.735,248.788 C527.688,266.815 523.925,292.561 521.257,307.66 C518.519,322.639 514.803,332.762 509.731,338.382 C515.185,350.576 516.47,363.079 513.589,376.797 C510.611,390.396 500.966,414.116 492.464,419.665 C483.914,425.023 468.958,416.498 463.028,409.425 C457.121,402.209 459.145,390.896 457.264,377.416 C455.215,363.865 451.666,348.17 451.5,329.428 C451.38101,310.661 458.145,285.964 456.62,266.077 C454.953,246.071 442.331,228.091 441.902,211.039 C441.51998,193.987 451.761,178.626 454.072,164.956 C456.31,151.238 457.93,138.949 455.334,129.756 C452.571,120.635 446.998,114.3 438.067,110.56 C432.637,114.704 426.993,117.658 420.777,119.515 C414.538,121.325 408.012,121.968 400.938,121.444 L413.109,139.996 C417.42,145.878 419.039,150.904 418.228,155.357 C417.34699,159.787 413.966,163.288 407.988,166.241 C407.41699,172.457 404.677,176.815 399.676,179.673 C394.556,182.436 384.053,186.532 377.908,182.864 C371.811,179.077 366.905,170.646 363.19,157.286 C351.567,153.785 342.97,150.094 336.945,145.759 C330.943,141.472 327.776,136.781 327.346,131.684 C316.153,131.754999 308.199,129.684 303.031,125.277 C297.911,120.871 295.744,114.322 296.625,105.439 C288.861,101.271 281.978,98.318 275.524,96.484 C269.022,94.674 266.593,97.794 258.233,94.555 C249.802,91.149 239.11,85.362 225.606,76.646 C224.058,86.744 221.153,94.484 216.627,100.319 C212.102,106.082 206.22,109.678 198.718,111.202 C192.264,119.8 187.024,125.587 182.713,129.112 C178.355,132.517 175.307,133.375 173.115,131.684 C170.258,145.378 167.209,155.499 163.517,162.406 C159.73,169.17 155.705,171.789 151.347,172.647 C146.989,173.38501 142.201,171.766 137.915,167.527 C133.557,163.359 127.15,156.834 125.769,147.688 C124.364,138.4 125.674006,126.849 129.603,112.488 C123.888,113.774 118.457,114.155 113.051,113.893 C107.622,113.514 102.478,112.489 97.334,110.56 L97.334,110.56 Z" id="path37" stroke-width="0.998" fill="#000000"></path>
                    <g transform="translate(3.000000, 3.000000)" stroke-width="0.036">
                        <path d="M102.38,44.501 C101.451,40.881 98.808,36.404 94.354,30.807 C89.806,25.115 82.756,16.16 75.683,11.111 C68.491,6.038 60.203,1.823 52.32,0.775 C44.627,-0.272 36.054,1.181 29.623,4.776 C23.264,8.301 19.001,12.755 14.262,21.804 C9.546,30.854 3.64,42.572 1.592,58.504 C-0.266,74.413 0.163,99.063 2.592,116.567 C5.021,134 11.308,148.075 15.928,162.293 C20.62,176.439 25.311,188.99 30.289,200.685 C25.835,207.83 21.858,216.927 18.262,228.621 C14.69,240.338 10.165,257.533 8.926,270.013 C7.759,282.325 9.093,292.781 11.26,302.379 C13.617,312 18.905,321.002 22.262,327.075 C25.596,332.981 28.43,336.482 30.955,337.768 C28.002,340.246 25.81,343.151 24.287,346.77 C22.763,350.367 21.215,352.676 21.953,359.131 C22.834,365.585 26.073,376.754 29.288,384.828 C32.599,392.83 37.028,401.522 41.291,406.5 C45.697,411.358 51.46,413.931 54.985,413.859 C58.485,413.62099 59.533,409.976 61.986,405.5 C64.558,400.832 66.868,393.139 69.988,386.828 C73.06,380.541 78.133,374.706 80.347,368.133 C82.395,361.512 82.681,358.535 82.681,347.437 C82.562,336.244 80.799,318.121 80.347,301.711 C79.942,285.159 78.966,264.843 80.347,249.316 C81.705,233.74 86.42,219.569 88.349,209.28 C90.182,199.016 92.255,195.158 91.35,188.156 C90.326,181.178 85.182,175.105 82.348,167.46 C79.347,159.696 75.346,150.503 74.013,142.096 C72.679,133.594 71.702,123.258 74.68,117.066 C77.658,110.874 83.206,106.873 91.684,105.063 C88.612,105.301 86.397,104.15799 84.683,101.729 C82.92,99.205 81.801,97.251 81.682,90.369 C81.586999,83.391 82.515,67.982 84.016,60.504 C85.445,53.026 87.255,48.501 90.351,45.834 C93.426,43.167 97.403,42.691 102.38,44.501 L102.38,44.501 Z" id="path39" fill="#FFFFAA"></path>
                        <path d="M133.08,55.837 C128.626,53.717 123.601,52.026 117.719,50.503 C111.789,48.979 102.81,46.073 98.047,46.835 C93.284,47.597 91.522,49.622 89.355,54.837 C87.116,60.005 85.64,70.484 85.02,77.533 C84.33,84.535 83.663,91.703 85.687,96.562 C87.711,101.23 92.451,103.945 97.047,105.898 C101.572,107.803 107.406,108.088 112.718,108.232 C117.981,108.302999 123.125,107.779 128.412,106.565 L132.746,102.231 C131.936,95.657 132.650999,90.299 135.08,85.869 C137.462,81.415 141.463,78.177 147.084,75.866 C147.84601,72.199 148.536,69.388 149.441,67.174 C150.275,65.007 151.131,63.53 152.108,62.84 C148.536,61.03 145.273,59.84 142.416,59.173 C139.486,58.506 136.962,58.363 134.747,58.84 C134.19901,57.838 133.651,56.838 133.08,55.837 L133.08,55.837 Z" id="path41" fill="#50E3C2"></path>
                        <path d="M92.023,44.811 C86.76,37.452 80.425,31.593 72.661,27.14 C64.85,22.591 53.085,17.042 45.63,18.114 C38.342,19.257 33.031,21.305 28.959,33.809 C24.958,46.407 19.075,70.485 21.6,92.538 C24.315,114.544 41.51,144.694 44.63,164.628 C47.655,184.371 43.463,194.612 39.963,210.688 C36.533,226.811 25.459,244.149 24.292,260.511 C23.315,276.824 30.96,296.828 33.628,307.571 C36.391,318.074 40.296,316.978 40.296,323.576 C40.296,330.196 34.747,338.842 33.294,346.938 C31.865,354.917 30.912,363.348 31.627,371.135 C32.46,378.851 35.676,388.902 37.962,392.831 C40.272,396.57 44.892,393.902 45.297,393.831 C45.654,393.68702 42.058,394.35401 40.296,392.164 C38.652,389.901 36.342,386.281 35.295,380.471 C34.271,374.493 33.604,364.871 34.295,357.131 C35.081,349.367 38.653,339.745 39.963,334.435 C41.296,329.124 42.321,328.719 42.297,325.409 C42.367999,321.98 41.582,317.884 40.297,314.406 C39.13,310.882 36.796,309.976 34.962,304.714 C33.152,299.379 30.771,289.923 29.294,283.04 C27.841,276.134 25.674,271.514 26.293,263.679 C27.15,255.724 30.913,244.745 33.628,235.982 C36.391,227.241 39.986,219.858 42.297,211.619 C44.583,203.33 46.798,195.995 47.298,186.588 C47.87,177.086 48.203,166.107 45.631,155.199 C43.083,144.172 35.938,131.931 32.294,121.5 C28.793,111.068 25.697,102.566 24.292,93.135 C22.982,83.585 22.839,74.463 23.959,64.842 C25.174,55.077 28.675,42.384 30.961,35.477 C33.271,28.642 34.485,26.07 37.629,23.807 C40.868,21.449 45.417,21.163 49.989,21.473 C54.61,21.711 59.73,22.95 64.993,25.474 C70.328,28.022 77.329,32.642 81.688,36.477 C85.927,40.24 88.785,43.932 90.357,47.837 C90.904,46.835 91.452,45.835 92.023,44.811 L92.023,44.811 Z" id="path43" fill="#000000"></path>
                        <path d="M85.688,62.506 C80.925,58.719 75.4,57.148 68.66,57.505 C61.968,57.862 50.989,59.387 45.63,64.84 C40.319,70.341 37.032,79.558 36.961,90.204 C37.08,100.754 42.082,116.449 45.63,127.928 C49.202,139.312 56.204,146.552 57.99,158.293 C59.729,169.986 58.99,181.799 56.323,197.684 C53.703,213.594 43.963,237.337 42.629,252.747 C41.558,267.966 47.75,276.61 48.988,288.78 C50.226,300.974 50.941,314.239 49.655,325.172 C48.393,336.055 42.82,345.606 41.296,353.441 C39.915,361.11 39.986,365.445 40.963,371.136 C42.011,376.828 45.869,384.711 47.298,387.164 C48.775,389.45 50.204,387.28299 49.656,385.163 C49.18,382.973 45.465,378.947 44.298,374.47 C43.178,369.873 42.607,363.896 42.964,358.466 C43.417,353.035 45.394,347.844 46.965,342.438 C48.703,337.008 51.704,333.317 52.657,326.411 C53.514,319.361 52.727999,308.549 52.324,301.047 C52.062,293.497 51.752,287.472 50.657,281.685 C49.537,275.873 46.608,271.706 45.632,266.346 C44.703,260.917 44.132,257.202 45.299,249.32 C46.561,241.246 50.539,228.338 52.992,218.954 C55.492,209.547 58.684,202.998 59.993,193.424 C61.35,183.707 62.113,170.537 60.993,161.725 C59.873,152.961 56.444,148.627 53.658,141.363 C50.991,134.004 47.419,126.669 44.966,118.333 C42.513,109.95 39.274,99.852 39.298,91.635 C39.465,83.3 41.823,74.464 45.633,69.272 C49.611,64.128 57.874,62.27 62.328,60.937 C66.734,59.484 68.186,60.246 71.997,60.937 C75.784,61.58 80.094,62.914 85.024,64.938 C85.236,64.125 85.45,63.315 85.688,62.506 L85.688,62.506 Z" id="path45" fill="#000000"></path>
                        <path d="M83.354,87.298 C77.186,86.202 72.208,87.727 68.327,91.966 C64.445,96.181 59.705,100.421 59.991,112.662 C60.444,124.998 68.183,151.649 70.327,165.057 C72.327,178.227 73.851,180.513 72.327,191.754 C70.612,203.043 62.848,220.262 60.991,232.122 C59.3,243.911 61.467,251.461 61.991,261.844 C62.61,272.157 64.706,282.969 64.325,293.543 C63.968,304.045 60.395,313.5 59.657,324.575 C58.99,335.577 60.205,349.605 59.99,359.203 C59.847,368.753 59.752,375.136 58.323,381.566 C56.894,387.9 51.988,394.545 51.321,397.26 C50.726,399.904 53.06,399.831 54.655,397.59298 C56.346,395.16398 59.561,390.61498 60.99,383.56598 C62.419,376.49298 62.776,365.08598 62.99,355.86798 C63.252,346.60398 61.657,338.79298 62.323,328.57598 C63.037,318.14398 66.705,307.04698 66.991,294.54298 C67.348,282.03898 64.895,265.20198 64.324,254.41298 C63.728,243.64798 62.133,239.83798 63.657,230.38298 C65.372,220.78498 72.112,207.28198 74.017,197.68398 C75.755,188.03898 75.589,183.89498 74.35,173.32098 C72.945,162.60398 68.277,144.67098 66.325,134.59698 C64.396,124.52298 62.609,120.11698 62.991,113.66298 C63.586,107.13798 65.468,99.82598 68.992,95.96798 C72.446,92.06298 77.28,90.37098 83.686,90.63398 C83.593005,89.53698 83.474,88.41698 83.354,87.29798 L83.354,87.298 Z" id="path47" fill="#000000"></path>
                        <path d="M74.352,353.54 C74.019,356.874 73.709,362.138 72.328,367.21 C70.804,372.211 66.183,380.856 65.659,383.238 C65.255,385.524 67.493,383.95199 69.327,380.903 C71.042,377.713 74.709,370.234 76.019,364.543 C77.257,358.779 77.281,349.705 77.019,346.871 C76.662,344.037 74.828,346.371 74.352,347.53799 C73.948,348.63399 74.59,350.20599 74.352,353.53999 L74.352,353.54 Z" id="path49" fill="#000000"></path>
                        <path d="M81.354,48.835 C80.092,51.359 77.115,61.886 76.02,67.84 C74.948,73.675 74.734,78.866 75.02,83.868 C75.187,88.893 76.64,95.204 77.354,97.562 C78.116,99.801 79.212,100.825 79.354,97.229 C79.401005,93.442 77.044,82.964 77.687,75.533 C78.354,68.031 82.307,57.314 83.021,52.837 C83.521,48.312 82.569,46.335 81.354,48.835 L81.354,48.835 Z" id="path51" fill="#000000"></path>
                        <path d="M68.994,73.199 C70.423,72.056 74.376,69.579 76.353,69.174 C78.211,68.721 80.616,69.93599 80.354,70.507 C79.997,70.984 76.854,71.26899 74.686,72.198 C72.519,73.127 68.589,75.604 67.66,75.865 C66.731,76.009 67.49299,74.294 68.994,73.199 L68.994,73.199 Z" id="path53" fill="#000000"></path>
                        <path d="M70.994,78.867 C72.423,77.7 76.376,75.295 78.353,74.866 C80.211,74.413 82.616,75.628 82.354,76.2 C81.997,76.7 78.853,76.914 76.686,77.867 C74.519,78.796 70.589,81.273 69.661,81.534 C68.708,81.678 69.494,79.963 70.994,78.867 L70.994,78.867 Z" id="path55" fill="#000000"></path>
                        <path d="M91.357,59.839 C91.332998,58.172 91.786,54.551 93.357,52.837 C94.905,51.026 97.858,49.788 100.382,49.503 C102.859,49.217 106.765,50.503 108.051,51.17 C109.289,51.742 108.718,52.956 107.718,53.17 C106.599,53.242002 103.836,51.837 101.717,52.17 C99.55,52.432 96.43,53.432 95.025,55.171 C93.596,56.933 93.929,61.649 93.358,62.506 C92.667,63.24401 91.357,61.434 91.357,59.839 L91.357,59.839 Z" id="path57" fill="#000000"></path>
                        <path d="M92.69,98.56 C94.619,99.703 100.525,101.56 104.717,102.561 C108.885,103.466 113.624,104.3 117.387,104.228 C121.055,104.038 125.366,102.585 126.747,101.894 C128.009,101.251 127.318,100.203 125.413,100.227 C123.46,100.155993 119.078,101.608 115.387,101.56 C111.624,101.417 107.075,100.536 103.384,99.56 C99.645,98.464 95.144,95.726 93.358,95.559 C91.523,95.369 90.785,97.322 92.69,98.56 L92.69,98.56 Z" id="path59" fill="#000000"></path>
                        <path d="M167.45,124.59 C167.520999,129.924 166.806,135.45 165.116,141.261 C163.33,147.072 160.591,155.098 157.447,159.289 C154.303,163.457 150.112,165.648 146.421,165.958 C142.563,166.10099 138.538,163.957 135.084,160.623 C131.607,157.218 127.559,152.359 126.059,145.953 C124.511,139.499 124.63,129.544 126.416,122.257 C128.202,114.898 131.583,108.349 136.751,102.228 C135.299,98.393 134.966,94.916 135.751,91.535 C136.48901,88.153 138.99,84.58 141.419,82.199 C143.872,79.794 146.611,78.126 150.088,77.198 C149.565,72.864 150.351,69.219 152.446,66.171 C154.59,63.075 159.519,60.265 162.449,58.836 C165.235,57.336 167.426,56.978 169.117,57.502 C167.902,52.977 168.188,48.857 169.78399,45.142 C171.37999,41.331 173.61799,37.14 178.80999,35.14 C184.00099,33.092 194.52799,32.211 200.83899,33.139 C207.05499,33.997 212.41299,38.188 216.17599,40.475 C219.89199,42.642 221.79699,43.547 223.17799,46.5 C224.41599,49.453 223.035,57.265 224.17899,58.169 C225.34599,58.907 228.08399,54.787 230.20299,51.501 C232.22699,48.214 232.65599,43.213 236.53899,38.807 C240.44399,34.306 246.46999,28.185 253.23299,25.137 C259.87799,22.065 268.30799,20.588 276.23899,20.802 C284.09799,21.041 294.86299,23.85 300.26899,26.47 C305.60399,29.042 308.24799,32.234 308.29499,36.139 C313.19999,34.615 317.72599,34.425 321.96499,35.472 C326.20399,36.496 330.03799,39.473 333.65799,42.474 C337.18199,45.451 341.13699,48.619 343.32699,53.167 C345.47099,57.668 346.61399,62.884 346.66199,69.171 C352.85299,68.59999 358.35499,68.742 363.35599,69.504 C368.35699,70.26599 372.26299,71.29 376.35899,73.862 C380.38399,76.363 384.88499,80.745 387.38599,84.532 C389.83899,88.223 390.93499,91.439 391.05299,96.201 C391.100994,101.012 389.95799,106.394 387.71999,112.896 C391.10099,115.039 394.19799,117.849 397.38799,121.588 C400.53299,125.279 403.93799,130.829 406.41499,134.925 C408.79599,138.95 411.34499,141.784 411.74899,145.618 C412.05899,149.357 409.93899,154.597 408.41499,157.288 C406.79599,159.884 404.88999,161.217 402.41399,161.289 C402.483997,166.052 400.84199,169.743 397.38799,172.649 C393.83999,175.53 386.38599,178.77 381.71799,178.317 C377.02699,177.65001 372.83499,173.602 369.69099,169.291 C366.52399,164.981 364.33299,159.456 363.02299,152.621 C355.59199,150.334 349.39999,147.834 343.99399,144.928 C338.56399,142.023 333.70599,138.617 330.98999,135.259 C328.29999,131.829 327.29999,128.305 327.98999,124.59 C321.51199,125.709 315.98699,125.686 310.96199,124.257 C305.88999,122.78 300.76899,120.137 298.26799,116.231 C295.79099,112.277 295.12399,107.252 296.26799,100.894 C290.74299,96.702 284.85999,93.725 278.26299,91.868 C271.59499,90.035 263.71099,91.843998 256.90099,89.868 C249.96999,87.701 243.61199,83.033 237.53899,79.532 C231.41799,76.055 226.03599,72.602 220.84399,69.172 C219.05799,79.198 216.69999,86.724 213.50899,92.202 C210.29399,97.513 205.24499,99.466 201.83899,101.561 C198.38599,103.705 195.57499,104.729 193.14699,104.895 C189.97899,110.944 186.83499,115.493 183.81099,118.898 C180.64299,122.256 177.57099,123.899 174.78499,124.923 C171.99899,125.875 169.64199,125.733 167.44999,124.59 L167.45,124.59 Z" id="path61" fill="#FFFFAA"></path>
                        <path d="M208.84,50.503 C206.244,48.669 203.268,47.669 199.814,47.502 C196.337,47.264 191.741,46.954 188.144,49.502 C184.429,52.05 180.357,58.766 178.142,62.839 C175.951,66.864 174.974,70.341 175.118,73.532 C167.853,77.104 162.805,80.486 159.78,83.868 C156.779,87.155 158.375,89.489 157.113,93.537 C155.756,97.681 154.683,103.254 151.778,108.231 C148.706,113.065 142.013,118.496 139.418,122.592 C136.798,126.593 136.227,128.284 136.417,132.261 C136.58399,136.215 138.037,144.074 140.418,146.288 C142.729,148.36 148.92,145.812 150.087,145.264 C151.111,144.716 148.135,143.526 146.753,143.264 C145.324,142.97799 143.014,144.931 141.752,143.59699 C140.418,142.11999 139.037,138.19099 139.085,134.92799 C139.107995,131.64099 139.561,128.23599 142.085,124.25899 C144.586,120.25799 150.754,116.58999 153.779,111.23199 C156.613,105.73099 157.399,96.58599 159.447,91.86999 C161.518,87.10699 163.067,85.96399 166.115,83.20099 C169.093,80.41399 172.879,77.74699 177.475,75.19899 C177.904,69.22099 179.428,64.24299 182.143,60.17099 C184.881,56.05099 189.764,52.35899 193.479,50.83499 C197.099,49.23999 200.981,49.35799 203.839,50.83499 C206.577,52.23999 208.625,58.21799 210.174,59.50399 C211.77,60.69499 213.293,60.02799 213.175,58.50399 C212.889,56.93299 211.531,54.36099 208.84,50.50299 L208.84,50.503 Z" id="path63" fill="#000000"></path>
                        <path d="M218.84,61.172 C218.10199,64.411 215.268,72.675 212.171,77.867 C208.98,82.987 205.313,87.941 200.145,91.537 C194.833,95.014 185.593,96.919 181.139,98.896 C176.71,100.801 175.971,100.444 173.781,103.23 C171.47,106.04 170.113,112.542 167.779,115.566 C165.35,118.472 160.968,117.614 159.777,120.901 C158.562,124.164 161.349,130.451 160.777,135.262 C160.111,140.025 158.039,145.741 156.109,149.289 C154.085,152.79 150.584,155.076 149.084,155.957 C147.465,156.62399 146.369,155.314 147.084,153.957 C147.75099,152.647 151.585,150.861 153.442,147.956 C155.228,144.86 157.514,140.668 158.11,135.929 C158.58699,131.094 155.753,123.283 156.776,119.567 C157.896,115.923 162.349,115.876 164.445,113.899 C166.422,111.803 167.469,109.612 168.78,107.231 C169.946,104.731 169.49399,101.682 172.114,99.563 C174.829,97.539 180.164,96.752 184.807,94.895 C189.356,92.894 194.929,91.132 199.144,87.87 C203.289,84.488 206.742,79.344 209.504,75.2 C212.123,70.937 213.982,65.983 215.172,63.173 C216.291,60.363 215.90999,59.195 216.506,58.839 C217.101,58.457 219.507,57.981 218.84,61.172 L218.84,61.172 Z" id="path65" fill="#000000"></path>
                        <path d="M243.21,46.835 C248.997,40.286 254.999,35.951 261.572,33.475 C268.144,30.951 276.147,29.712 282.267,32.141 C288.292,34.642 293.341,39.858 297.605,48.169 C302.462,46.978 307.322,46.669 312.632,47.502 C317.919,48.24 324.659,48.764 328.993,52.837 C333.113,56.909 333.09,67.507 337.662,71.865 C342.282,76.152 349.189,76.081 356.357,78.533 C363.503,80.867 375.719,82.106 380.053,86.201 C384.198,90.369 381.721,97.824 381.721,103.23 C381.648979,108.612 377.6,113.566 380.053,117.9 C382.554,122.02 392.104,124.188 396.391,128.26 C400.559,132.333 403.822,137.977 405.083,142.263 C406.227,146.527 404.24999,152.147 403.75,153.623 C403.22699,154.956 402.273,152.575 402.083,150.622 C401.82098,148.645 403.25,144.954 402.41698,141.93 C401.43898,138.762 399.93898,135.142 396.72498,132.261 C393.43798,129.332 386.72198,127.403 383.38798,124.926 C380.05298,122.449 377.79098,120.854 377.05298,117.567 C376.24298,114.114 378.36298,109.612 378.71998,104.897 C379.02998,100.158 380.57698,92.894 379.05299,89.536 C377.45699,86.226 374.50399,86.512 369.35999,84.869 C364.07399,83.035 353.64199,80.868 347.99799,79.201 C342.37799,77.558 338.66299,78.487 335.66199,75.2 C332.54199,71.747 331.92299,63.101 329.65999,59.172 C327.37399,55.242 325.42099,53.313 321.96799,51.837 C318.39599,50.265 313.06099,50.384 308.63099,50.17 C304.15299,49.908 299.69999,50.051 295.26999,50.503 C292.50799,44.978 289.45899,40.953 285.93499,38.142 C282.41099,35.356 278.81399,33.879 274.24199,33.808 C269.50299,33.736001 262.76299,34.927 258.23699,37.475 C253.75999,39.952 250.28299,46.073 247.54399,48.501 C244.73399,50.835 242.20999,51.74 241.54299,51.502 C240.82799,51.193 241.35299,49.669 243.20999,46.835 L243.21,46.835 Z" id="path67" fill="#000000"></path>
                        <path d="M261.23,54.503 C265.827,54.837 280.306,57.028 286.927,59.504 C293.405,61.957 295.31,66.601 300.264,68.84 C305.242,70.912 310.79,68.268 316.625,72.198 C322.436,76.128 329.271,87.417 334.654,92.203 C339.869,96.823 343.179,98.395 347.99,100.229 C352.848,101.92 359.136,99.46701 363.351,102.896 C367.4,106.373 371.257,117.948 372.353,120.901 C373.258,123.687 371.187,122.711 369.352,119.901 C367.448,116.972 364.781,106.707 361.35,103.897 C357.826,101.063 352.919,104.302 348.657,103.23 C344.394,102.182 340.845,101.73 335.987,97.562 C331.081,93.204 324.127,82.106 319.626,77.867 C315.125,73.604 312.79,73.842 308.956,72.532 C305.003,71.199 299.883,71.889 296.263,70.198 C292.666,68.436 290.857,63.982 287.26,62.172 C283.545,60.291 278.806,59.933 274.234,59.172 C269.518,58.362 261.755,58.267 259.563,57.505 C257.325,56.671 256.658,54.17 261.23,54.503 L261.23,54.503 Z" id="path69" fill="#000000"></path>
                        <path d="M249.21,63.506 C250.4,65.506 253.521,70.865 257.569,73.532 C261.522,76.128 267.523,78.628 272.906,79.2 C278.241,79.7 284.552,75.771 289.267,76.866 C293.935,77.914 298.246,83.058 300.627,85.868 C302.89,88.702 299.74599,91.655 302.961,93.537 C306.151,95.275 315.964,93.251 319.632,96.561 C323.277,99.848 323.014,109.564 324.633,113.232 C326.11,116.804 324.728978,117.519 328.658,118.233 C332.635,118.876 342.852,116.399 347.996,117.233 C353.021,118.043 355.331,118.162 358.689,122.925 C361.928,127.689 364.381,139.215 367.692,145.288 C371.026,151.289 374.527,156.744 378.385,158.624 C382.123,160.291 388.339,156.767 390.054,155.957 C391.674,155.12399 390.17299,154.028 388.387,153.957 C386.553,153.814 382.147,156.553 379.385,155.29 C376.598,153.957 374.217,150.622 371.693,146.288 C369.049,141.882 366.31,134.095 364.024,129.26 C361.69,124.377 360.333,119.662 358.022,117.233 C355.688,114.756 354.665,114.876 349.997,114.566 C345.162,114.28 333.54,116.066 329.658,115.233 C325.824,114.256 328.086,112.209 326.99,108.898 C325.8,105.516 324.467,98.467 322.633,95.562 C320.68,92.704 318.56,92.513 315.631,91.87 C312.606,91.18 306.818,92.537 304.961,91.537 C303.08,90.465 305.84299,88.274 304.62799,85.869 C303.34199,83.392 300.60299,79.248 297.60299,77.2 C294.48299,75.033 290.17199,73.842 286.59999,73.533 C282.95599,73.319 279.59799,75.176 276.23999,75.533 C272.85799,75.7 270.00099,76.033 266.57099,74.866 C263.06999,73.628 258.21199,70.746 255.56799,68.507 C252.87699,66.197 251.56699,62.363 250.54299,61.505 C249.44699,60.648 247.99499,61.433997 249.20999,63.506 L249.21,63.506 Z" id="path71" fill="#000000"></path>
                        <path d="M409.083,115.23 C413.989,114.373 420.849,113.015 425.421,110.896 C429.779,108.824 433.234,105.609 435.781,102.894 C438.282,100.06 440.378,98.297 440.782,94.201 C441.139,90.034 439.734,83.936 438.115,78.197 C436.377,72.409 433.47,63.503 430.78,59.835 C428.016,56.167 427.326,55.19 422.087,56.167 C416.681,57 406.631,62.359 399.391,65.169 C392.199,67.979 385.649,70.456 379.386,72.861 C383.243,74.1 386.269,76.148 388.722,79.196 C391.079,82.173 393.175,85.293 393.723,90.866 C394.223,96.439 393.55601,103.607 391.723,112.562 C393.271,113.444 394.818,114.325 396.39,115.23 C400.034,115.921 404.202,115.921 409.083,115.23 Z" id="path83" fill="#50E3C2"></path>
                        <path d="M423.75,62.172 C423.845001,63.815 425.798,67.745 426.773,69.84 C427.678,71.769 428.536,73.294 429.441,73.865 C430.27498,74.294 432.204,73.960001 432.108,72.865 C431.918,71.698 429.798,69.245 428.774,67.173 C427.726,65.053 426.893,61.362 426.083,60.505 C425.17901,59.576 423.63,60.648 423.75,62.172 L423.75,62.172 Z" id="path85" fill="#000000"></path>
                        <path d="M404.08,109.57 C405.985,109.856 411.034,109.165 415.083,108.237 C418.965,107.141 424.062,105.498 427.444,103.569 C430.801,101.616 434.089,98.353 435.112,96.9 C435.969,95.352 434.659,94.256 433.111,94.9 C431.611,95.59 429.42,98.996 426.086,100.901 C422.562,102.758 416.465,104.855 412.75,105.902 C409.034,106.831 405.533,105.948997 404.08,106.569 C402.628,107.164 402.199,109.236 404.08,109.57 L404.08,109.57 Z" id="path87" fill="#000000"></path>
                        <path d="M427.47,52.837 C426.207,50.146 426.351,46.811 427.80301,42.477 C429.25601,38.142 431.51801,32.355 436.13901,27.14 C440.78301,21.757 449.45201,15.161 455.16701,11.112 C460.71701,7.111 463.90801,4.801 469.52801,3.444 C475.12501,1.967 482.53101,1.777 488.53301,2.777 C494.51101,3.777 499.84601,6.421 504.89401,9.779 C509.72901,13.113 513.82501,16.019 517.92101,22.806 C522.08901,29.594 527.23301,40.644 529.59001,50.171 C531.80601,59.626 531.73501,67.437 531.59101,79.202 C531.35297,90.896 533.35401,99.993 528.59001,119.903 C523.75601,139.884 515.27701,165.32 502.89401,197.685 C506.20401,202.758 509.20501,208.474 511.89601,215.191 C514.58701,221.835 517.54101,228.218 518.92101,237.552 C520.15901,246.912 520.49301,259.464 519.92201,270.61 C519.37397,281.612 518.13601,292.545 515.56401,303.308 C512.80101,314.074 509.06201,324.315 503.89401,334.674 C507.27601,338.627 509.27601,344.01 509.89501,351.107 C510.49102,358.205 510.01403,367.659 507.56101,376.804 C505.03801,385.854 499.03601,398.833 494.89201,405.169 C490.67601,411.408 486.88901,413.527 482.53101,414.194 C478.05401,414.71799 472.31401,411.193 468.52801,408.86 C464.69301,406.477 461.76401,405.263 459.83501,400.167 C457.81101,394.928 458.00101,386.974 456.83501,378.138 C455.62001,369.206 453.85701,357.132 452.83301,347.439 C451.71401,337.747 450.26101,329.626 450.49901,320.409 C450.66603,311.191 453.26201,302.214 454.16701,292.378 C455.02403,282.447 457.47801,272.897 455.83401,261.346 C454.11901,249.676 446.49801,233.434 444.16401,223.287 C441.83001,213.166 440.71101,209.261 441.83001,201.092 C442.87801,192.852 447.99901,183.182 450.49901,174.394 C452.97701,165.559 455.52401,157.176 456.50101,148.697 C457.38202,140.171 458.90601,131.264 455.83402,124 C452.64302,116.76 446.76002,110.735 437.80602,105.638 C439.99702,103.185 441.49702,100.66 442.49702,97.97 C443.37901,95.279 443.92702,93.969 443.49702,89.634 C442.99702,85.109 441.30702,76.774 439.80602,71.606 C438.30602,66.414 436.49602,62.104 434.47202,58.936 C432.39902,55.79 430.06502,53.79 427.47002,52.837 L427.47,52.837 Z" id="path89" fill="#FFFFAA"></path>
                        <path d="M432.47,57.838 C436.4,46.478 442.116,37.571 450.165,30.474 C458.19,23.377 470.313,16.732 480.196,15.78 C490.032,14.803 501.511,17.257 508.561,24.806 C515.396,32.403 519.587,47.288 521.587,60.839 C523.517,74.366 524.255,89.132 520.587,105.232 C516.848,121.236 503.868,141.503 499.558,156.293 C495.247,170.987 494.795,180.466 494.891,192.993 C494.937997,205.472 497.558,219.451 499.892,230.717 C502.202,241.91 507.942,248.985 508.561,259.748 C508.98999,270.489 505.727,283.897 502.893,294.447 C499.915,304.855 492.795,313.238 491.556,322.074 C490.389,330.91 495.391,338.245 495.891,347.104 C496.31901,355.916 496.65302,365.156 494.223,374.468 C491.604,383.733 483.625,397.593 480.863,402.166 C478.053,406.523 476.958,403.737 477.863,401.166 C478.76699,398.546 483.887,392.878 486.531,386.828 C489.151,380.683 492.414,372.087 493.557,364.799 C494.605,357.415 493.557,348.961 492.89001,343.103 C492.03299,337.197 489.81801,334.029 489.19901,329.742 C488.62702,325.361 488.12701,322.503 489.53202,317.406 C490.91402,312.238 495.36702,305.189 497.55802,299.378 C499.63002,293.543 501.20202,289.137 502.55902,282.683 C503.98902,276.11 506.08402,267.274 505.89402,260.678 C505.56,254.057 502.60702,249.222 500.89202,243.316 C499.12902,237.29 497.10502,234.528 495.55702,225.288 C493.91302,215.975 491.62702,199.257 491.55602,188.254 C491.508016,177.18 492.81802,168.963 495.22402,159.556 C497.62902,150.125 502.05902,140.718 505.56002,132.168 C508.99002,123.595 513.06202,116.902 515.56302,108.495 C517.89602,99.921 519.56402,90.585 519.92102,81.869 C520.20599,73.2 519.27698,65.103 517.58702,56.839 C515.89602,48.48 514.58602,38.858 509.89402,32.475 C505.05902,25.997 496.50902,20.329 489.19902,18.781 C481.79202,17.328 472.43202,21.068 466.17002,23.473 C459.83402,25.736 456.31002,28.308 451.83202,32.475 C447.26002,36.666 442.49602,43.311 439.47202,48.17 C436.42302,52.957 434.56602,57.029 433.80402,60.84 C433.37503,59.839 432.92203,58.838 432.47002,57.838 L432.47,57.838 Z" id="path91" fill="#000000"></path>
                        <path d="M437.8,69.508 C443.349,62.053 449.589,56.814 457.162,53.504 C464.664,50.17 475.262,48.55 482.525,49.837 C489.717,51.099 495.624,53.743 499.887,61.173 C504.078,68.628 509.437,80.25 507.222,94.206 C504.769,108.114 491.313,127.263 485.86,143.934 C480.381,160.534 475.428,174.227 474.857,192.995 C474.26099,211.761 481.382,238.172 482.525,255.415 C483.573,272.491 482.90699,284.686 481.525,295.115 C480.096,305.404 475.047,309.835 474.19,317.146 C473.26098,324.433 474.69,331.554 476.19,338.508 C477.619,345.391 482.263,351.13 482.859,358.204 C483.38198,365.253 480.406,376.875 479.524,380.566 C478.62001,384.067 477.31,382.448 477.524,379.566 C477.69102,376.517 480.287,368.063 480.524,363.205 C480.596021,358.394 479.929,355.655 478.524,350.868 C477.001,345.89 473.475,339.77 472.189,334.174 C470.879,328.625 470.426,323.289 471.189,317.813 C471.999,312.24 475.238,307.572 476.857,301.142 C478.358,294.568 480.024,288.328 480.191,279.112 C480.33498,269.847 478.834,259.511 477.524,246.08 C476.095,232.528 472.189,212.309 471.856,198.924 C471.499,185.516 473.213,177.61 475.523,166.559 C477.81,155.413 481.573,143.219 485.526,133.193 C489.432,123.214 495.6,114.807 498.887,107.139 C502.149,99.375 504.484,93.588 504.888,87.205 C505.14999,80.751 502.84,74.249 500.887,69.177 C498.887,64.08 497.005,60.079 493.218,57.174 C489.336,54.174 483.287,52.459 478.191,51.84 C473.046,51.269 468.045,51.84 462.83,53.84 C457.567,55.793 451.184,60.271 447.159,63.509 C443.135,66.724 440.347,69.725 438.8,72.868 C438.46699,71.747 438.13402,70.627 437.8,69.508 L437.8,69.508 Z" id="path93" fill="#000000"></path>
                        <path d="M442.16,92.204 C444.803,90.275 447.947,89.751 451.495,90.537 C455.092,91.347 459.521,92.728 463.499,96.895 C467.381,100.992 473.312,107.517 474.859,114.9 C476.311,122.212 475.19201,128.88 472.524,140.597 C469.738,152.386 461.165,171.82 458.831,184.656 C456.497,197.35 457.354,201.732 458.831,216.355 C460.26,230.978 466.833,255.246 467.523,271.608 C468.18999,287.897 463.379,300.115 462.832,313.309 C462.142,326.432 462.59399,338.625 463.832,349.7 C465.071,360.655 469.548,373.826 470.191,378.732 C470.66799,383.471 468.524,382.256 467.167,378.39802 C465.81,374.42002 463.38,364.68002 462.165,355.70202 C460.831,346.62802 459.45,335.07702 459.498,325.00402 C459.544997,314.95302 461.403,304.87902 462.498,295.97202 C463.476,287.01702 465.88,280.27802 465.499,271.60902 C465.02299,262.82102 461.57,254.10402 459.831,243.88702 C457.997,233.52702 455.592,219.95202 454.83,210.52202 C453.99598,201.09002 453.925,196.16102 455.16298,187.82502 C456.40098,179.41802 459.37898,169.58202 462.16498,160.79402 C464.80898,151.93502 469.49998,143.36102 471.19098,135.43002 C472.90598,127.47502 473.88098,119.99702 472.19098,113.73402 C470.30998,107.49402 463.92698,101.82602 460.49798,98.39702 C457.09198,94.87302 454.99598,93.63402 451.82898,93.03902 C448.54198,92.44402 445.04198,92.968021 441.13598,94.70602 C441.46996,93.87102 441.80297,93.03802 442.15998,92.20402 L442.16,92.204 Z" id="path95" fill="#000000"></path>
                        <path d="M441.47,54.17 C442.28,57.123 448.542,64.054 450.162,71.198 C451.686,78.319 450.805,91.37 450.82899,96.562 C450.805003,101.563 449.75699,100.658 450.162,101.563 C450.54298,102.373 452.4,104.35 453.163,101.896 C453.806,99.348 454.615,92.322 454.496,86.869 C454.425993,81.391 453.97302,75.056 452.496,69.507 C450.829,63.862 447.066,56.074 445.161,53.503 C443.279,50.884 440.611,51.193 441.47,54.17 L441.47,54.17 Z" id="path97" fill="#000000"></path>
                        <path d="M445.16,77.867 C445.68301,76.009 447.803,70.317 450.494,68.507 C453.185,66.65 459.33,66.674 460.83,66.84 C462.141,66.887005 460.52098,68.46 458.83,69.174 C457.139,69.841 452.662,69.507 450.828,71.198 C448.923,72.889 448.423,78.009 447.493,79.2 C446.51699,80.249 444.636,79.653 445.16,77.867 L445.16,77.867 Z" id="path99" fill="#000000"></path>
                        <path d="M447.45,82.892 C448.428,81.225 452.286,76.581 455.357,75.581 C458.477,74.604 464.288,76.486 465.717,77.081 C466.955,77.581 464.93099,78.462 463.121,78.701 C461.216,78.844 457.215,77.153 454.881,78.225 C452.546,79.249 450.498,84.036 449.284,84.87 C448.022,85.583 446.402,84.46399 447.45,82.892 L447.45,82.892 Z" id="path101" fill="#000000"></path>
                        <path d="M463.84,388.5 C463.791996,390.167 464.388,394.597 466.175,397.836 C468.056,400.98 473.128,405.934 474.867,407.172 C476.463,408.268 476.915,406.50501 475.867,404.838 C474.723,403.052 469.842,400.003 468.198,397.169 C466.46,394.335 466.531,389.62 465.841,388.167 C465.00702,386.691 463.817,386.833 463.84,388.50001 L463.84,388.5 Z" id="path103" fill="#000000"></path>
                    </g>
                </g>
            </g>
        </g>
    </g>
</svg>