<?xml version="1.0" encoding="UTF-8" standalone="no"?>
<svg width="350px" height="350px" viewBox="0 0 350 350" version="1.1" xmlns="http://www.w3.org/2000/svg" xmlns:xlink="http://www.w3.org/1999/xlink" xmlns:sketch="http://www.bohemiancoding.com/sketch/ns">
    <!-- Generator: Sketch 3.3.3 (12081) - http://www.bohemiancoding.com/sketch -->
    <title>chef</title>
    <desc>Created with Sketch.</desc>
    <defs></defs>
    <g id="Page-1" stroke="none" stroke-width="1" fill="none" fill-rule="evenodd" sketch:type="MSPage">
        <g id="chef" sketch:type="MSArtboardGroup">
            <g sketch:type="MSLayerGroup" transform="translate(66.000000, 35.000000)" id="Chefberser">
                <g sketch:type="MSShapeGroup">
                    <g id="Group">
                        <g id="Bulb" transform="translate(0.000000, 99.000000)">
                            <path d="M143.671068,45.6607956 L29.9741882,133.616367 C28.8025587,133.746454 27.0613871,133.453757 24.7506734,132.738274 C21.8541448,131.82766 19.10407,130.478 16.5004489,128.689293 C9.08012868,123.615872 4.58888224,116.330959 3.02670956,106.834554 C1.49708215,97.7284122 2.89652851,87.9555709 7.22504863,77.5160301 C8.65704025,74.0687051 10.4144845,70.5075533 12.4973814,66.8325747 L16.3051773,60.4420146 C19.3969774,54.9458078 21.9517806,49.5146448 23.969587,44.1485256 C27.3217492,35.1724718 28.2330166,28.5379972 26.7033892,24.2451019 L28.2655619,24.4402335 C29.4371914,24.6678871 30.381004,25.0906722 31.0969999,25.708589 C30.9993641,24.6678871 30.7227293,23.4483145 30.2670956,22.0498714 C29.323283,19.1879412 27.9726545,16.781318 26.2152102,14.830002 L31.487543,14.0982585 C35.9462442,14.1307804 40.4700359,15.3991358 45.0589182,17.9033248 L44.7171929,15.2202652 C44.5870118,13.3990369 44.7660108,12.3908569 45.2541897,12.1957253 C46.0027308,11.9030279 47.0767245,12.6185105 48.4761709,14.342173 C48.5087161,12.9112079 48.8178962,11.2851112 49.4037109,9.46388284 C50.5427952,5.88647008 52.4629657,3.18714955 55.1642227,1.36592123 L57.8492069,6.29299426 C60.3551923,9.83788508 63.4144471,12.2932911 67.0269714,13.6592123 C70.183862,14.8950458 77.3438201,15.8381819 88.5068457,16.4886206 C99.3118734,17.1390593 106.927465,18.4724586 111.353621,20.4888185 L116.040139,20.8790817 C119.847935,21.3669107 123.362824,22.2612639 126.584805,23.5621413 C136.966744,27.7574708 142.662165,35.1236889 143.671068,45.6607956 L97.1132883,44.8516854" id="Shape" fill="#68AE28"></path>
                            <path d="M6.3951444,116.396002 C-0.960085291,102.541658 0.797358971,86.6221716 11.6674772,68.6375421 C6.16732755,83.1748466 8.0224076,94.8014381 17.2327173,103.517316 C21.2357848,107.289861 26.2803008,110.054225 32.3662652,111.81041 C38.3220485,113.50155 44.6358297,114.054423 51.3076089,113.469028 L28.5584693,134.00663 C25.2388523,133.713932 21.5449648,132.104097 17.4768068,129.177123 C12.8228341,125.762319 9.12894658,121.501946 6.3951444,116.396002" id="Shape" fill="#56931F"></path>
                            <path d="M25.385306,23.3182268 C25.6456681,23.1230952 26.2803008,23.1230952 27.289204,23.3182268 C28.8513766,23.6109242 30.2182777,24.3101458 31.3899072,25.4158915 C31.6502693,25.6110232 31.666542,25.9199815 31.4387251,26.3427667 C31.2434535,26.7330299 31.0156367,26.8305957 30.7552746,26.6354641 C30.071824,26.0500693 29.4046461,25.6598061 28.7537408,25.4646745 L27.8262008,25.4158915 L28.0214724,26.9769444 L28.3143798,29.9039185 C28.4120156,34.3269015 26.9637513,40.1158058 23.969587,47.2706313 C21.626328,52.9619698 18.6158911,58.8484399 14.9382762,64.9300416 C3.3521622,84.1505047 0.797358971,100.736691 7.27386653,114.688601 C9.71476133,119.957154 13.2133772,124.26631 17.7697142,127.61607 C21.8053269,130.543044 25.6782134,132.136619 29.3883735,132.396794 C29.6812809,132.429316 29.632463,132.803318 29.2419198,133.518801 C28.8839219,134.266805 28.5421966,134.624546 28.216744,134.592025 C23.8882239,134.299327 19.5597037,132.591926 15.2311836,129.46982 C10.4144845,125.957451 6.7531423,121.40438 4.24715697,115.810608 C-2.26189586,101.305825 0.55326949,84.0204169 12.692653,63.9543835 C18.4206195,54.4579788 22.3097785,46.6527146 24.3601302,40.5385909 C26.5406629,34.066726 26.8986608,28.8144337 25.4341239,24.7817138 C25.1412165,24.0337093 25.1249439,23.5458803 25.385306,23.3182268" id="Shape" fill="#0D131A"></path>
                            <path d="M50.6729762,21.6108253 C50.9007931,21.8384788 50.9007931,22.1962201 50.6729762,22.6840491 C50.4451594,23.2044 50.2173425,23.3507487 49.9895257,23.1230952 C47.5486309,20.5863843 44.3754676,18.5537634 40.4700359,17.0252325 C36.7924211,15.6267894 33.4890768,15.0088726 30.560003,15.1714823 C29.1931019,15.2690481 28.4608335,15.4479187 28.3631977,15.7080942 C28.2655619,15.9357477 28.5910145,16.6349693 29.3395556,17.805759 C32.8869894,23.3995316 32.9846252,31.6601029 29.632463,42.5874728 C27.8099282,48.4414209 24.9622176,55.7263342 21.0893311,64.4422125 C15.3613647,79.4998681 14.905731,92.9314269 19.72243,104.736889 C21.7076912,109.615179 24.457766,113.745465 27.9726545,117.127746 C31.2271809,120.282374 34.7420694,122.41256 38.5173201,123.518306 C38.7776822,123.58335 38.5824106,123.908569 37.9315053,124.493964 C37.2806,125.046837 36.8086937,125.290751 36.5157863,125.225708 C26.5243902,122.298733 19.6736122,114.851211 15.963452,102.883139 C12.0905656,90.4922818 13.0343783,77.2883765 18.79489,63.2714229 L23.0908649,53.5636256 C25.1412165,48.8154232 26.6871166,44.6688766 27.728565,41.1239858 C30.9180009,30.4567913 30.5437304,22.6027442 26.6057534,17.5618444 C25.2713976,15.8381819 24.6530376,14.7324362 24.7506734,14.2446072 C24.8483091,13.6917343 25.8246671,13.3014711 27.6797471,13.0738175 C31.1620904,12.6185105 35.0675221,13.1551224 39.3960422,14.6836533 C43.9849244,16.30975 47.7439024,18.6188073 50.6729762,21.6108253" id="Shape" fill="#0D131A"></path>
                            <path d="M47.2557235,12.1957253 L49.0619856,13.6592123 C49.2572572,13.8868659 49.2084393,14.3584339 48.9155319,15.0739165 C48.6226246,15.7568771 48.3785351,15.9845306 48.1832635,15.7568771 L47.1580877,14.5373046 C46.5722729,13.9519098 46.1329119,13.7242562 45.8400045,13.854344 C45.5796424,13.9844317 45.4820066,14.4072168 45.5470971,15.1226994 L45.9864582,17.9033248 C46.0515487,18.1635002 45.7911866,18.293588 45.2053718,18.293588 C44.6195571,18.261066 44.3103771,18.0984564 44.2778318,17.805759 L43.7896529,14.7812191 C43.6594718,13.1226004 43.9198339,12.0331156 44.5707392,11.5127647 C45.1240087,11.0899796 46.0190034,11.3176331 47.2557235,12.1957253" id="Shape" fill="#0D131A"></path>
                            <path d="M122.142376,25.9525035 C129.139608,31.5787981 132.817223,38.3758823 133.175221,46.3437562 C133.207766,46.6689755 132.784678,46.91289 131.905955,47.0754997 C131.027233,47.2706313 130.587872,47.2055874 130.587872,46.8803681 C130.26242,39.5954548 126.975348,33.3024606 120.726657,28.0013853 C113.208701,21.6270862 102.696581,18.1960222 89.1902963,17.7081932 C77.6367275,17.285408 69.3702304,16.0007916 64.390805,13.854344 C60.3551923,12.1306814 57.4423911,9.21996834 55.6524016,5.12220463 C55.2618584,4.24411241 54.9364058,3.77254436 54.6760437,3.70750049 C54.3831363,3.60993469 53.91123,3.93515403 53.2603247,4.68315852 C51.079792,7.08978165 49.7942541,10.0330167 49.4037109,13.5128636 C49.0131677,17.0902764 49.7617088,19.8709018 51.6493341,21.8547398 C55.45713,25.7573719 58.467567,30.3592255 60.6806449,35.6603008 C62.047546,38.9450162 63.7073545,44.4249621 65.6600703,52.1001385 C68.0358746,61.4339336 70.6557684,68.3773666 73.5197516,72.9304374 C75.8304654,76.6054159 79.2151728,79.9226532 83.673874,82.8821492 C83.8691456,82.979715 83.7389645,83.4512831 83.2833308,84.2968534 C82.8602424,85.1099017 82.5185171,85.4351211 82.258155,85.2725114 C76.5301885,81.499967 72.4132126,77.4997691 69.9072273,73.2719177 C67.5965135,69.3692856 65.367163,63.0275084 63.2191755,54.2465862 C60.9084618,44.7176595 59.1835628,38.522231 58.0444785,35.6603008 C56.2870343,31.139752 53.6345952,27.0419883 50.0871615,23.3670097 C47.5486309,20.732733 46.7349993,16.8463619 47.6462666,11.7078963 C48.5249888,6.86212811 50.2987057,3.39854212 52.9674173,1.31713833 C54.1715921,0.374002243 55.017769,-0.0487829012 55.5059479,0.0487829012 C55.9941269,0.146348704 56.4660332,0.829309321 56.9216669,2.09766475 C58.8743828,7.17108648 61.6732755,10.5208457 65.3183451,12.1469424 C69.4190483,13.9356488 77.392638,15.0576555 89.2391142,15.5129626 C103.168487,16.0007916 114.136241,19.4806386 122.142376,25.9525035" id="Shape" fill="#0D131A"></path>
                            <path d="M136.397202,28.3916485 C142.613347,33.7252457 145.298332,39.497889 144.452155,45.7095785 C144.419609,46.0022759 143.93143,46.1323636 142.987618,46.0998417 C142.043805,46.0673197 141.588171,45.9047101 141.620717,45.6120127 C142.336713,40.2784155 140.22127,35.2700376 135.27439,30.5868791 C129.578969,25.2207599 121.654197,22.1636981 111.500075,21.4156936 C111.174622,21.3831717 110.23081,20.9929085 108.668637,20.244904 C107.073919,19.4643776 106.423014,19.0741144 106.715921,19.0741144 C119.278393,19.0741144 129.172153,22.1799591 136.397202,28.3916485" id="Shape" fill="#0D131A"></path>
                        </g>
                        <g id="White-Chef-Hat" transform="translate(33.000000, 0.000000)">
                            <path d="M108.660426,20.7150879 C104.241951,7.7547762 87.4909233,13.1938121 77.6103756,11.4428713 C69.4353732,9.99415631 62.0325091,3.91032598 53.8752682,1.8007812 C38.4556782,-2.18703348 17.2132035,5.16499529 8.50857017,18.6057129 C-0.360031106,32.2997721 -1.38819537,51.0257142 2.25173416,66.4841309 C3.59024186,72.1686072 6.65910236,77.1746154 8.04787674,82.8630371 C10.6153317,93.3792065 11.7126643,107.485276 11.1548104,118.303467 C10.6474317,128.14205 -0.834029651,143.479126 4.31130447,152.979736 C4.4141188,153.169578 4.63060028,153.433312 4.74709549,153.618164 C8.23693301,159.155891 14.6535071,161.335332 20.3210701,163.985107 C35.6932906,171.173098 52.217951,173.796849 68.9463143,173.790283 C75.1677155,173.787653 86.6656375,172.103621 91.6657967,167.962158 C94.2747682,165.801947 93.9016963,161.244399 94.2774143,158.224839 C95.2716552,150.234729 95.3170573,140.299561 99.4124551,133.22079 C109.614755,115.585707 122.527363,99.4758658 133.872619,82.5547089 C139.031345,74.8607073 145.858978,65.955996 148.037623,56.7512207 C150.305747,47.1648035 149.566787,32.5430756 142.36233,25.2416992 C133.891892,16.657286 121.05377,17.2175001 110.431666,20.3642578 L108.660426,20.7150879 L108.660426,20.7150879 Z" id="yellow-hat" fill="#FFFFFF" transform="translate(74.729626, 87.254426) scale(-1, 1) translate(-74.729626, -87.254426) "></path>
                            <g id="Chef-Hat" transform="translate(75.000000, 87.000000) scale(-1, 1) translate(-75.000000, -87.000000) " fill="#000000">
                                <path d="M109.22579,20.4359548 C104.827321,7.53432314 88.2755758,12.836326 78.439764,11.0933129 C70.3017753,9.65115721 62.9792856,3.64191485 54.8589779,1.5419214 C39.5092028,-2.42783777 17.3764742,5.09102686 8.71125262,18.4708893 C-0.117194541,32.1029463 -1.01156266,51.5540843 2.61188646,66.9425103 C3.94433384,72.6012491 7.03669192,77.6553897 8.41917838,83.3180561 C10.9750087,93.7866118 12.0034579,107.265003 11.4481297,118.034213 C10.9329557,128.023956 -1.18036048,144.011722 4.73920349,153.404743 C8.21324017,158.917397 15.8109675,161.75889 21.4528697,164.396668 C36.7554897,171.552114 53.162514,173.923989 69.8151367,173.917453 C76.0083694,173.914834 87.6650915,171.942512 92.6426116,167.819801 C95.2397705,165.669371 94.6286365,160.996444 95.0026533,157.990556 C95.9923926,150.036622 96.0375891,140.146438 100.114444,133.099716 C110.270551,115.544479 123.124695,99.5075784 134.418584,82.6630349 C139.553953,75.0038692 146.664882,66.2802825 148.833662,57.1171834 C151.091517,47.5741703 150.210512,32.5118116 143.038674,25.2434934 C134.606587,16.6979476 121.321806,17.013545 110.747795,20.1460552 L109.22579,20.4359548 L109.22579,20.4359548 Z M71.8895463,12.5756934 C59.1212083,16.5472932 50.294795,35.9950828 50.2738258,48.6018996 C50.121674,52.6503996 48.7004679,60.0451317 52.8939131,62.3573581 C51.0611692,47.8545203 53.9301583,26.1585511 67.4164055,17.256355 C76.7091976,11.1219445 97.8284148,10.1071782 105.695223,19.1941723 C110.576453,24.8329264 110.613134,33.708279 109.760295,40.7416382 C108.368373,52.2123812 98.6537384,59.7523389 94.160288,69.5625989 C102.356576,67.25561 111.762041,48.9883657 112.192389,40.7416382 C112.625355,32.4513531 108.679502,23.8363755 119.051118,21.0434974 C139.789112,15.4589758 147.127483,34.5019493 146.321139,50.9375594 C145.427581,57.0445965 142.012903,66.2160963 138.666411,71.5276644 C131.170341,83.4241729 123.809202,96.3339976 114.498069,106.898843 C111.528192,110.268933 102.684088,124.916532 97.1858365,118.287054 C95.3046177,116.018716 97.7439183,112.838587 98.9478465,110.828974 C103.101992,103.897533 107.820776,97.5700199 111.845878,90.5232976 C103.798283,94.4815939 102.016622,107.73924 93.5052662,112.788143 C89.0458782,115.433128 80.1834341,111.509543 79.303088,106.233996 C78.4030828,100.84055 81.7122544,93.7080131 84.3349605,89.2132533 C78.454836,93.5540823 79.940419,101.813259 74.9091969,105.757142 C72.272738,107.823736 67.4645705,106.277614 64.6145718,105.56823 C61.5503738,104.806433 56.8188066,104.454955 54.5989428,101.977664 C52.9495945,100.136394 53.5528729,96.7250456 53.5489349,94.4534279 C53.5404197,89.3488434 52.884748,84.3051773 51.5838694,79.3879258 C51.5838694,79.3879258 53.052431,95.9252679 49.7118262,100.140332 C46.5461004,104.13465 33.5991747,102.887624 32.6065821,98.3711155 L31.2781978,83.3180568 C29.5548328,88.0466555 31.0515596,93.1394561 29.3327823,97.7160937 C28.2958828,100.478317 22.3875878,104.354737 20.5380675,100.24186 C18.8664504,96.524609 19.808174,90.0300721 19.4195502,85.9381441 C18.8773251,80.2289718 17.0029127,73.8385808 15.5576738,68.2525546 C15.5576738,68.2525546 17.4224561,85.5804989 17.5201854,93.7984061 C17.5626937,97.3722111 16.4881035,105.347353 14.0303024,101.664725 C11.3073734,94.5937657 12.1571293,90.3539843 10.3842445,83.0924135 C9.0540262,77.6439465 6.12640742,71.0409852 4.73566572,65.6324672 C1.08981288,51.4538672 2.55496638,34.6002183 9.88387271,21.7460044 C19.324574,5.18776769 44.7723059,-1.33723231 61.4091969,6.51372838 C64.8690308,8.14643515 69.7227347,9.26737402 71.8895463,12.5756941 L71.8895463,12.5756934 L71.8895463,12.5756934 Z M30.623176,38.7765727 L31.1332474,39.6462838 C31.9068282,29.9276561 38.0910753,16.9970921 48.3087603,14.5407603 C38.2306035,10.3513055 27.2688072,30.6684544 30.623176,38.7765734 L30.623176,38.7765727 L30.623176,38.7765727 Z M126.256359,31.5713332 C128.425799,36.8605028 130.545764,41.7220179 129.440095,47.6146009 C129.02329,52.3124155 125.996972,57.7217731 124.946315,62.3573594 C131.819287,56.6418648 135.052218,37.4489934 126.256359,31.5713332 L126.256359,31.5713332 L126.256359,31.5713332 Z M92.850245,161.265666 C68.3681541,148.383996 33.0009033,141.605836 5.73234629,148.820251 C6.19937489,138.600588 12.7242465,129.583563 13.5314299,119.344259 C13.8047037,115.877889 12.6511192,109.492076 15.291841,106.703645 C19.3388915,102.430291 29.2174965,103.562817 34.553307,103.626354 C52.1281985,103.835306 71.4729616,107.113693 86.9550485,115.791423 C90.8936948,117.999503 97.1334334,120.005178 99.6500345,123.957577 C101.890208,127.475701 97.5002541,131.763477 96.3605129,135.064783 C93.735188,142.668937 92.8554924,153.212164 92.850245,161.265666 L92.850245,161.265666 L92.850245,161.265666 Z M87.1943849,162.073849 C90.3672472,164.083771 92.3664845,165.703155 89.6021718,167.377791 C73.4281821,175.05011 54.2917317,171.186624 37.8284162,165.313697 C33.5878055,163.800597 21.3727618,160.761287 21.8107107,154.743614 C22.272957,148.392513 32.7967343,149.40553 36.8192221,149.40553 C54.3282229,150.130296 71.2251092,153.420777 87.1943849,162.07385 L87.1943849,162.073849 L87.1943849,162.073849 Z" id="path3"></path>
                            </g>
                        </g>
                        <g id="Berlberser-No-Bulb" transform="translate(13.000000, 135.000000)">
                            <path d="M178.85,2.2 C181.816667,3.5 184.4,7.91666667 186.6,15.45 C188.566667,22.2833333 189.233333,27.1166667 188.6,29.95 C192.533333,34.5166667 196.366667,43.4333333 200.1,56.7 C204.333333,71.5666667 205.05,82.3833333 202.25,89.15 C201.35,91.3166667 198.716667,94.2666667 194.35,98 C189.816667,101.933333 185.333333,104.966667 180.9,107.1 L183.15,110.75 C184.95,113.95 186.566667,117.4 188,121.1 C192.566667,133.033333 194.466667,145.4 193.7,158.2 C193.466667,162.266667 190.1,165.6 183.6,168.2 C177.233333,170.7 170.45,171.533333 163.25,170.7 C160.816667,170.366667 157.6,167.516667 153.6,162.15 C149.033333,155.916667 146.316667,149.45 145.45,142.75 C139.35,146.283333 134.2,148.666667 130,149.9 L128.7,152.1 C127.566667,153.9 126.233333,155.566667 124.7,157.1 C119.866667,162.033333 114.15,164.783333 107.55,165.35 C100.983333,165.916667 95.8833333,165.4 92.25,163.8 C91.1166667,163.3 90.1833333,162.716667 89.45,162.05 L88.75,161.2 L48.8,162.55 L44.7,166.15 C41.0333333,168.583333 36.8,169.866667 32,170 C25.4333333,170.2 20.2666667,169.6 16.5,168.2 C11.7666667,166.4 8.4,163.116667 6.4,158.35 C3.5,151.483333 1.96666667,143.616667 1.8,134.75 C1.56666667,123.216667 4.15,113.783333 9.55,106.45 C14.75,99.3833333 21.5333333,92.1833333 29.9,84.85 C32.2333333,82.8166667 38.5833333,77.65 48.95,69.35 C54.25,65.15 58.9666667,61.0833333 63.1,57.15 C67.3,53.15 69.85,50.2833333 70.75,48.55 C71.7166667,41.9166667 72.9833333,35.1833333 74.55,28.35 C77.7166667,14.6833333 80.7833333,7.38333333 83.75,6.45 C86.7166667,5.55 91.0833333,6.5 96.85,9.3 C99.7166667,10.7333333 102.283333,12.2333333 104.55,13.8 L107.95,12.6 C110.95,11.7 114.233333,10.9333333 117.8,10.3 C129.2,8.33333333 141.3,8.21666667 154.1,9.95 C156.033333,7.88333333 160.3,5.88333333 166.9,3.95 C173.266667,2.08333333 177.25,1.5 178.85,2.2" id="Shape" fill="#7CBEB3"></path>
                            <path d="M187.9,22.1 L188.9,29.95 L183.75,22.3 C184.283333,20.0666667 184.516667,17.05 184.45,13.25 L184.15,8.25 C185.683333,11.55 186.933333,16.1666667 187.9,22.1" id="Shape" fill="#68A198"></path>
                            <path d="M73.4,30.95 C76.1,18.55 78.75,11.3833333 81.35,9.45 C80.7166667,16.65 80.5,23.7666667 80.7,30.8 C80.8333333,34.9333333 81.2666667,41.2333333 82,49.7 C82.4333333,54.7333333 81.9166667,59.2 80.45,63.1 C79.15,66.5 77.45,68.8166667 75.35,70.05 C73.2833333,71.25 71.5833333,70.9833333 70.25,69.25 C68.8166667,67.35 68.3333333,64.0833333 68.8,59.45 C69.7333333,50.2166667 71.2666667,40.7166667 73.4,30.95" id="Shape" fill="#68A198"></path>
                            <path d="M163.65,158.05 C166.216667,162.85 169.283333,165.85 172.85,167.05 L170.95,170.85 C165.916667,171.85 161.466667,170.533333 157.6,166.9 C152.966667,162.466667 148.866667,154.416667 145.3,142.75 C139.533333,146.25 133.133333,148.866667 126.1,150.6 C119.166667,152.333333 110.833333,153.383333 101.1,153.75 C99.5666667,154.25 98.45,155.316667 97.75,156.95 C97.05,158.516667 97.0333333,159.933333 97.7,161.2 L94.9,164.5 L88.9,160.85 C89.0666667,159.716667 90,156.333333 91.7,150.7 C93.3666667,145.3 94.4166667,140.616667 94.85,136.65 C96.1166667,124.783333 92.8166667,114.05 84.95,104.45 C91.95,111.483333 104.216667,115.9 121.75,117.7 C140.483333,119.6 156.4,117.9 169.5,112.6 C165.3,115.3 162.3,119.5 160.5,125.2 C158.9,130.333333 158.416667,136.016667 159.05,142.25 C159.683333,148.25 161.216667,153.516667 163.65,158.05" id="Shape" fill="#68A198"></path>
                            <path d="M1.3,129.35 C2.73333333,141.05 9.13333333,148.566667 20.5,151.9 C24.8666667,153.166667 29.4666667,153.633333 34.3,153.3 C38.7,153 42.3166667,152.133333 45.15,150.7 L48.8,163 C46.2,165.533333 42.7,167.516667 38.3,168.95 C29.5,171.816667 20.65,170.566667 11.75,165.2 C7.45,162.6 4.36666667,156 2.5,145.4 C1.9,141.833333 1.5,138.216667 1.3,134.55 C1.13333333,131.483333 1.13333333,129.75 1.3,129.35" id="Shape" fill="#68A198"></path>
                            <path d="M108.35,47.85 C109.65,47.6166667 111.033333,47.8333333 112.5,48.5 C107.466667,52.3666667 104.833333,58.3 104.6,66.3 C104.366667,73.6 106.033333,80.45 109.6,86.85 C102.6,86.0833333 97.6666667,84.4833333 94.8,82.05 C93.9666667,81.3166667 93.6166667,79.2666667 93.75,75.9 C93.8833333,72.4 94.5,68.7333333 95.6,64.9 C98.4666667,54.7 102.716667,49.0166667 108.35,47.85" id="Shape" fill="#FFFFFF"></path>
                            <path d="M125.65,66.9 C127.216667,71.1 128.183333,74.8833333 128.55,78.25 C128.95,81.85 128.55,84.25 127.35,85.45 C126.55,86.25 124.4,86.8 120.9,87.1 C117.333333,87.3666667 113.566667,87.2833333 109.6,86.85 C106.033333,80.45 104.366667,73.6 104.6,66.3 C104.833333,58.3 107.466667,52.3666667 112.5,48.5 C117.466667,50.8 121.85,56.9333333 125.65,66.9" id="Shape" fill="#D60040"></path>
                            <path d="M184.2,45.35 C188.366667,48.75 190.85,53.8333333 191.65,60.6 C192.15,64.8333333 191.95,70.7833333 191.05,78.45 C189.583333,79.0166667 188.166667,79.4 186.8,79.6 C185.4,79.8333333 184.35,79.8333333 183.65,79.6 C181.683333,78.9666667 180.7,73.9333333 180.7,64.5 C180.666667,54.8666667 181.833333,48.4833333 184.2,45.35" id="Shape" fill="#D60040"></path>
                            <path d="M184.2,45.35 C184.8,44.5166667 185.433333,44.0333333 186.1,43.9 C189.333333,43.2 192.466667,47.15 195.5,55.75 C198.466667,64.2833333 199.05,70.3833333 197.25,74.05 C196.416667,75.7833333 194.35,77.25 191.05,78.45 C191.95,70.7833333 192.15,64.8333333 191.65,60.6 C190.85,53.8333333 188.366667,48.75 184.2,45.35" id="Shape" fill="#FFFFFF"></path>
                            <path d="M154.85,40.25 C153.883333,40.6166667 151.366667,39.6 147.3,37.2 C143.033333,34.7333333 140.983333,32.7166667 141.15,31.15 C141.383333,29.0833333 144.833333,26.2333333 151.5,22.6 C158.266667,18.9333333 162.766667,17.5833333 165,18.55 C166.433333,19.15 165.683333,22.6833333 162.75,29.15 C159.783333,35.65 157.15,39.35 154.85,40.25" id="Shape" fill="#006359"></path>
                            <path d="M132.6,44.55 C132.5,44.1166667 133,43.3 134.1,42.1 C135.233333,40.8666667 136.25,40.1333333 137.15,39.9 L138.25,41.45 C139.183333,43.0166667 140.116667,45.2166667 141.05,48.05 L140.4,49.6 C139.766667,50.7333333 138.983333,51.5166667 138.05,51.95 L135.65,49.65 C133.983333,47.8166667 132.966667,46.1166667 132.6,44.55" id="Shape" fill="#006359"></path>
                            <path d="M171.25,55.45 C172.283333,61.35 172.366667,64.65 171.5,65.35 C170.733333,65.9833333 168.4,65.7333333 164.5,64.6 C160.566667,63.4666667 158.333333,62.3666667 157.8,61.3 C157.966667,58.8333333 159.233333,55.75 161.6,52.05 C164.033333,48.35 166,46.5 167.5,46.5 C168.966667,46.5 170.216667,49.4833333 171.25,55.45" id="Shape" fill="#006359"></path>
                            <path d="M174.25,142.4 C174.116667,140.5 175.283333,137.783333 177.75,134.25 C180.15,130.783333 181.883333,129.116667 182.95,129.25 C184.55,129.416667 185.65,132.766667 186.25,139.3 C186.816667,145.866667 186.3,149.416667 184.7,149.95 C182.933333,150.55 180.816667,150.216667 178.35,148.95 C175.516667,147.45 174.15,145.266667 174.25,142.4" id="Shape" fill="#006359"></path>
                            <path d="M15.75,114.3 L24,114.65 C27.7,115.383333 29.8333333,116.2 30.4,117.1 C31.3333333,118.6 30.7166667,121.766667 28.55,126.6 C26.4166667,131.4 24.6166667,133.866667 23.15,134 C21.8833333,134.1 19.3166667,132.833333 15.45,130.2 C11.55,127.566667 9.61666667,125.733333 9.65,124.7 C9.68333333,123.366667 10.3333333,121.466667 11.6,119 C13,116.233333 14.3833333,114.666667 15.75,114.3" id="Shape" fill="#006359"></path>
                            <path d="M63.3,71.45 C64.1666667,72.95 62.7666667,77.1166667 59.1,83.95 C55.4333333,90.7833333 52.6166667,94.4166667 50.65,94.85 C48.85,95.2833333 45.9166667,94.5 41.85,92.5 C38.0166667,90.6666667 35.4666667,88.9833333 34.2,87.45 C33.8,86.95 34.0666667,85.4833333 35,83.05 L36.5,79.5 L43.2,74.2 C47.7333333,70.6333333 50.2666667,68.7833333 50.8,68.65 L57.05,69.2 C60.7166667,69.8333333 62.8,70.5833333 63.3,71.45" id="Shape" fill="#006359"></path>
                            <path d="M114.05,53.55 C115.116667,53.55 116.05,54.6 116.85,56.7 C117.65,58.9333333 118.033333,61.7166667 118,65.05 C117.933333,68.2166667 117.5,70.7166667 116.7,72.55 C115.966667,74.2166667 115.066667,75.05 114,75.05 C113,75.05 112.133333,74.15 111.4,72.35 C110.6,70.45 110.166667,68.05 110.1,65.15 C109.966667,61.65 110.333333,58.8 111.2,56.6 C111.966667,54.5666667 112.916667,53.55 114.05,53.55" id="Shape" fill="#FFFFFF"></path>
                            <path d="M181.85,54.65 L182.85,50.15 C183.25,49.6166667 183.633333,49.3666667 184,49.4 C184.6,49.4333333 185.166667,50.0833333 185.7,51.35 C186.466667,53.05 186.883333,55.45 186.95,58.55 C186.983333,61.4833333 186.716667,63.7666667 186.15,65.4 C185.616667,66.8666667 184.95,67.6 184.15,67.6 C183.65,67.6 183.15,67.2333333 182.65,66.5 C182.116667,65.7 181.75,64.65 181.55,63.35 C181.15,61.05 181.25,58.15 181.85,54.65" id="Shape" fill="#FFFFFF"></path>
                            <path d="M160.55,12.25 C151.416667,10.4833333 142.166667,9.8 132.8,10.2 C122.733333,10.6 113.483333,12.2333333 105.05,15.1 C104.75,15.2 104.333333,14.8666667 103.8,14.1 C103.233333,13.3333333 103.1,12.8833333 103.4,12.75 C112.966667,9.51666667 123.333333,7.78333333 134.5,7.55 C144.3,7.31666667 153.25,8.23333333 161.35,10.3 C165.483333,11.3666667 167.45,12.15 167.25,12.65 L160.55,12.25" id="Shape" fill="#0D131A"></path>
                            <path d="M187.55,26.2 C194.316667,36 199.25,47.3666667 202.35,60.3 C205.05,71.5666667 205.716667,80.2833333 204.35,86.45 C202.85,93.2833333 195.383333,100.283333 181.95,107.45 C168.616667,114.583333 155.733333,118.533333 143.3,119.3 C130,120.1 117.483333,119 105.75,116 C94.0166667,113 86.45,108.95 83.05,103.85 C81.95,102.183333 81.6,101.166667 82,100.8 C82.4333333,100.433333 83.4166667,101.083333 84.95,102.75 C89.45,107.683333 97.4666667,111.45 109,114.05 C119.966667,116.516667 131.416667,117.383333 143.35,116.65 C155.816667,115.883333 168.4,111.966667 181.1,104.9 C193.3,98.1 200.066667,91.6666667 201.4,85.6 C202.8,79.3 202.216667,70.8 199.65,60.1 C196.783333,48.1333333 192.2,37.3666667 185.9,27.8 C183.3,23.8333333 182.283333,21.6333333 182.85,21.2 C183.383333,20.7666667 184.95,22.4333333 187.55,26.2" id="Shape" fill="#0D131A"></path>
                            <path d="M71.7,49.1 C69.5,53.2333333 65.05,58.15 58.35,63.85 C54.35,67.2166667 47.6166667,72.55 38.15,79.85 C29.5166667,86.7166667 22.85,92.7666667 18.15,98 C11.6833333,105.2 7.38333333,112.283333 5.25,119.25 C2.68333333,127.616667 2.55,137.016667 4.85,147.45 C6.98333333,157.283333 10.0166667,163.35 13.95,165.65 C18.1833333,168.116667 23.8833333,169.2 31.05,168.9 C38.45,168.6 43.5666667,166.866667 46.4,163.7 C50.7666667,158.8 52.4666667,150.866667 51.5,139.9 C50.5,128.7 47.1,119.766667 41.3,113.1 C39.0333333,110.466667 38.0666667,108.866667 38.4,108.3 C38.7333333,107.733333 40.15,108.783333 42.65,111.45 C49.95,119.283333 54.0166667,128.866667 54.85,140.2 C55.6166667,150.966667 53.3666667,159.3 48.1,165.2 C44.9333333,168.766667 39.2333333,170.766667 31,171.2 C23.0333333,171.633333 16.7166667,170.483333 12.05,167.75 C7.31666667,164.983333 3.85,158.45 1.65,148.15 C-0.583333333,137.55 -0.366666667,127.75 2.3,118.75 C4.33333333,111.95 8.35,105.133333 14.35,98.3 C18.7166667,93.3 25.0333333,87.45 33.3,80.75 L53.8,64.15 C61.2,57.7833333 66.7166667,51.9333333 70.35,46.6 C70.5166667,46.3666667 70.8166667,46.65 71.25,47.45 C71.7166667,48.2833333 71.8666667,48.8333333 71.7,49.1" id="Shape" fill="#0D131A"></path>
                            <path d="M83.95,4.95 C86.0166667,4.28333333 89.5,4.95 94.4,6.95 C99.3333333,8.98333333 103.383333,11.4666667 106.55,14.4 C109.05,16.7333333 110.016667,18.05 109.45,18.35 C108.916667,18.6833333 107.383333,17.8666667 104.85,15.9 C101.583333,13.4333333 97.8,11.35 93.5,9.65 C89.3,7.95 86.4833333,7.35 85.05,7.85 C82.7166667,8.61666667 80.0166667,14.5333333 76.95,25.6 C73.7166667,37.3 71.6166667,49.5666667 70.65,62.4 C70.3833333,66.1 69.9166667,67.8 69.25,67.5 C68.55,67.2 68.2666667,65.45 68.4,62.25 C68.8333333,51.15 70.5,39.5333333 73.4,27.4 C76.7,13.6666667 80.2166667,6.18333333 83.95,4.95" id="Shape" fill="#0D131A"></path>
                            <path d="M152.5,9.25 C155.4,7.05 159.85,4.95 165.85,2.95 C172.616667,0.683333333 177.316667,0.15 179.95,1.35 C182.55,2.51666667 184.916667,6.43333333 187.05,13.1 C189.016667,19.3 190.116667,25.5333333 190.35,31.8 C190.35,32.1 189.933333,31.7833333 189.1,30.85 C188.233333,29.9166667 187.8,29.2833333 187.8,28.95 C187.6,23.8833333 186.433333,18.55 184.3,12.95 C182.266667,7.61666667 180.383333,4.55 178.65,3.75 C177.016667,3.01666667 173.283333,3.48333333 167.45,5.15 C161.55,6.81666667 157.35,8.6 154.85,10.5 C154.616667,10.7 154.1,10.6 153.3,10.2 C152.533333,9.76666667 152.266667,9.45 152.5,9.25" id="Shape" fill="#0D131A"></path>
                            <path d="M154.35,38.85 C155.983333,38.8166667 158.266667,35.7 161.2,29.5 C164.1,23.4 165.183333,20.1666667 164.45,19.8 C162.816667,18.9666667 158.766667,20.1833333 152.3,23.45 C145.8,26.7166667 142.533333,29.2333333 142.5,31 C142.466667,32.1 143.9,33.65 146.8,35.65 C149.766667,37.65 152.283333,38.7166667 154.35,38.85 M150.35,22.1 C157.45,18.2666667 162.516667,16.6333333 165.55,17.2 C166.583333,17.4 166.883333,18.7666667 166.45,21.3 C166.05,23.6333333 165.15,26.3666667 163.75,29.5 C160.25,37.3 157.116667,41.1333333 154.35,41 C152.15,40.8666667 149.216667,39.6 145.55,37.2 C141.716667,34.7 139.8,32.5833333 139.8,30.85 C139.8,28.8166667 143.316667,25.9 150.35,22.1" id="Shape" fill="#0D131A"></path>
                            <path d="M140.05,48.35 C140.15,48.0833333 139.783333,46.85 138.95,44.65 C138.116667,42.4166667 137.516667,41.2833333 137.15,41.25 C136.85,41.2166667 136.183333,41.6666667 135.15,42.6 C134.116667,43.5333333 133.6,44.2333333 133.6,44.7 C133.633333,45.1333333 134.333333,46.2666667 135.7,48.1 C137.066667,49.8666667 137.866667,50.75 138.1,50.75 C138.3,50.75 138.65,50.4166667 139.15,49.75 L140.05,48.35 M140.15,43.1 C141.183333,45.5666667 141.716667,47.25 141.75,48.15 C141.783333,48.8833333 141.25,49.8833333 140.15,51.15 C139.016667,52.45 138.166667,52.9666667 137.6,52.7 C136.933333,52.4 135.783333,51.1666667 134.15,49 C132.383333,46.7 131.566667,45.1166667 131.7,44.25 C131.833333,43.35 132.616667,42.2166667 134.05,40.85 C135.483333,39.55 136.566667,38.9166667 137.3,38.95 C138.066667,39.0166667 139.016667,40.4 140.15,43.1" id="Shape" fill="#0D131A"></path>
                            <path d="M167.15,47.95 C166.116667,47.8833333 164.416667,49.8333333 162.05,53.8 C159.75,57.7333333 158.733333,60.0833333 159,60.85 C159.266667,61.55 161.15,62.4 164.65,63.4 C168.183333,64.4 170.2,64.6666667 170.7,64.2 C171.466667,63.4666667 171.316667,60.5833333 170.25,55.55 C169.183333,50.55 168.15,48.0166667 167.15,47.95 M160.35,52.15 C163.25,47.15 165.533333,44.7333333 167.2,44.9 C169.3,45.1 170.983333,48.5666667 172.25,55.3 C173.483333,62 173.383333,65.7 171.95,66.4 C170.716667,67.0333333 168,66.65 163.8,65.25 C159.666667,63.8833333 157.4,62.7166667 157,61.75 C156.366667,60.3166667 157.483333,57.1166667 160.35,52.15" id="Shape" fill="#0D131A"></path>
                            <path d="M96.8,57.9 C100.7,50 104.883333,46.3 109.35,46.8 C115.65,47.5333333 121.066667,52.85 125.6,62.75 C127.5,66.95 128.75,71.1 129.35,75.2 C129.983333,79.4666667 129.766667,82.8666667 128.7,85.4 C128.133333,86.8 126,87.7333333 122.3,88.2 C118.9,88.6 114.95,88.5666667 110.45,88.1 C105.916667,87.6333333 102.05,86.8166667 98.85,85.65 C95.3166667,84.4166667 93.4,83 93.1,81.4 C91.6,73.8 92.8333333,65.9666667 96.8,57.9 M120.3,58.6 C116.8,52.6666667 113.066667,49.4833333 109.1,49.05 C107.533333,48.8833333 105.833333,49.75 104,51.65 C101.233333,54.5166667 99,58.65 97.3,64.05 C95.5,69.9166667 94.9666667,75.5333333 95.7,80.9 C95.9666667,82.9666667 100.95,84.5333333 110.65,85.6 C120.35,86.7 125.616667,86.2833333 126.45,84.35 C127.316667,82.25 127.166667,78.5833333 126,73.35 C124.766667,67.8833333 122.866667,62.9666667 120.3,58.6" id="Shape" fill="#0D131A"></path>
                            <path d="M193.95,54.6 C191.45,48.4 188.933333,45.3 186.4,45.3 C184.166667,45.3 182.8,50.5833333 182.3,61.15 C181.8,71.65 182.433333,77.4166667 184.2,78.45 C185.366667,79.1166667 187.566667,78.75 190.8,77.35 C194.033333,75.95 195.783333,74.6333333 196.05,73.4 C197.35,67.5 196.65,61.2333333 193.95,54.6 M179.95,60.3 C180.516667,48.7666667 182.666667,43 186.4,43 C189.633333,43 192.766667,46.45 195.8,53.35 C198.966667,60.6166667 199.85,67.4 198.45,73.7 C197.95,75.8333333 195.483333,77.7333333 191.05,79.4 C186.75,81.0333333 184.016667,81.35 182.85,80.35 C181.75,79.45 180.933333,76.9833333 180.4,72.95 C179.866667,69.0833333 179.716667,64.8666667 179.95,60.3" id="Shape" fill="#0D131A"></path>
                            <path d="M50.25,67.7 L59,68.25 C62.4,68.85 64.35,69.6333333 64.85,70.6 C65.75,72.4333333 64.1166667,77.1333333 59.95,84.7 C55.7833333,92.3333333 52.6,96.15 50.4,96.15 C48.3,96.15 44.8666667,95.1 40.1,93 C35.0666667,90.8 32.55,89 32.55,87.6 C32.55,86.8 32.9166667,85.6 33.65,84 L36.05,79.3 C36.2166667,79.0333333 36.6666667,78.8666667 37.4,78.8 C38.1666667,78.7666667 38.4666667,78.8833333 38.3,79.15 C37.4,80.8166667 36.6833333,82.4333333 36.15,84 C35.6833333,85.3666667 35.45,86.35 35.45,86.95 C35.5833333,87.85 37.7333333,89.2333333 41.9,91.1 C45.9666667,92.9333333 48.7833333,93.8666667 50.35,93.9 C51.8166667,93.4333333 54.2166667,90.0333333 57.55,83.7 C60.8833333,77.3666667 62.3166667,73.5 61.85,72.1 C61.5833333,71.5333333 60.15,71 57.55,70.5 L49.8,69.95 C49.4666667,69.9833333 49.3833333,69.6166667 49.55,68.85 C49.7166667,68.1166667 49.95,67.7333333 50.25,67.7" id="Shape" fill="#0D131A"></path>
                            <path d="M16.2,115.2 C15.1666667,115.7 13.9833333,117.083333 12.65,119.35 C11.3166667,121.583333 10.7,123.133333 10.8,124 C10.9333333,124.9 12.7,126.55 16.1,128.95 C19.5,131.35 21.7,132.483333 22.7,132.35 C23.7,132.216667 25.25,129.916667 27.35,125.45 C29.45,120.983333 30.2333333,118.466667 29.7,117.9 C29.1,117.3 26.9166667,116.6 23.15,115.8 C19.3166667,115 17,114.8 16.2,115.2 M10.65,118.05 C12.2166667,115.45 13.7,113.783333 15.1,113.05 L23.75,113.45 C28.55,114.35 31.35,115.433333 32.15,116.7 C32.8833333,117.866667 32.05,121.133333 29.65,126.5 C27.25,131.833333 25.2833333,134.783333 23.75,135.35 C22.5833333,135.816667 19.8333333,134.533333 15.5,131.5 C11.1,128.433333 8.78333333,126.033333 8.55,124.3 C8.38333333,122.8 9.08333333,120.716667 10.65,118.05" id="Shape" fill="#0D131A"></path>
                            <path d="M175.35,142.3 L175.35,142.35 C175.416667,145.116667 176.766667,147.133333 179.4,148.4 C181.766667,149.533333 183.366667,149.716667 184.2,148.95 C185.066667,148.15 185.366667,145.116667 185.1,139.85 C184.833333,134.483333 184.05,131.5 182.75,130.9 C182.05,130.6 180.633333,132.1 178.5,135.4 C176.4,138.7 175.35,141 175.35,142.3 M176.8,133.7 C179.366667,129.6 181.35,127.566667 182.75,127.6 C185.016667,127.633333 186.433333,131.25 187,138.45 C187.566667,145.516667 187.1,149.6 185.6,150.7 C184.366667,151.633333 182.116667,151.466667 178.85,150.2 C175.116667,148.733333 173.2,146.283333 173.1,142.85 C173.066667,140.783333 174.3,137.733333 176.8,133.7" id="Shape" fill="#0D131A"></path>
                            <path d="M198.75,84.1 C198.716667,85.4 198.533333,86.4666667 198.2,87.3 L197.2,88.95 C195.566667,90.8833333 191.666667,93.3166667 185.5,96.25 C179.133333,99.2833333 173.616667,101.266667 168.95,102.2 C160.45,103.933333 147.4,104.083333 129.8,102.65 C112.2,101.25 101.083333,99.15 96.45,96.35 C95.6833333,95.85 94.9833333,95.0333333 94.35,93.9 C93.7833333,92.9333333 93.3666667,91.8666667 93.1,90.7 C92.6,88.6 92.5666667,87.4166667 93,87.15 C93.4333333,86.8833333 94.1166667,87.85 95.05,90.05 C95.6166667,91.35 96.2166667,92.35 96.85,93.05 L98.85,94.55 C102.583333,96.5833333 112.566667,98.3833333 128.8,99.95 C146.366667,101.65 159.6,101.6 168.5,99.8 C172.5,98.9666667 177.25,97.35 182.75,94.95 C187.85,92.7166667 191.666667,90.6833333 194.2,88.85 C195.133333,88.15 195.816667,87.4333333 196.25,86.7 C196.716667,85.9333333 197.016667,85 197.15,83.9 C197.383333,81.9 197.716667,80.9666667 198.15,81.1 C198.583333,81.2666667 198.783333,82.2666667 198.75,84.1" id="Shape" fill="#0D131A"></path>
                            <path d="M122.95,43.05 C124.116667,44.1166667 125.25,45.4166667 126.35,46.95 C127.516667,48.55 128.35,50 128.85,51.3 C129.583333,53.1666667 129.616667,54.2166667 128.95,54.45 C128.25,54.65 127.466667,53.9166667 126.6,52.25 C125.166667,49.4166667 123.416667,46.85 121.35,44.55 C119.416667,42.3166667 118.65,41.0166667 119.05,40.65 C119.483333,40.2833333 120.783333,41.0833333 122.95,43.05" id="Shape" fill="#0D131A"></path>
                            <path d="M179.3,43.4 C178.666667,45.2333333 178.266667,47.2 178.1,49.3 C177.966667,51.1333333 177.55,52.0333333 176.85,52 C176.15,52 175.85,51.1 175.95,49.3 C176.05,47.1 176.616667,44.9333333 177.65,42.8 C178.583333,40.9 179.266667,40 179.7,40.1 C180.1,40.2333333 179.966667,41.3333333 179.3,43.4" id="Shape" fill="#0D131A"></path>
                            <path d="M157.35,95.8 C156.616667,95.4333333 156.033333,94.9666667 155.6,94.4 C155.166667,93.8666667 155.016667,93.4833333 155.15,93.25 L156.7,93.3 C157.666667,93.5 158.383333,93.8166667 158.85,94.25 C159.45,94.85 159.566667,95.3666667 159.2,95.8 C158.833333,96.2333333 158.216667,96.2333333 157.35,95.8" id="Shape" fill="#0D131A"></path>
                            <path d="M174.4,93.3 C173.7,94.1666667 173.066667,94.4666667 172.5,94.2 C171.933333,93.9333333 171.9,93.3833333 172.4,92.55 C172.766667,91.95 173.35,91.4166667 174.15,90.95 C174.883333,90.4833333 175.35,90.3333333 175.55,90.5 C175.683333,90.6333333 175.65,90.9833333 175.45,91.55 L174.4,93.3" id="Shape" fill="#0D131A"></path>
                            <path d="M114.3,48.75 C114.6,48.85 114.733333,49.3333333 114.7,50.2 C114.666667,51.0666667 114.516667,51.4166667 114.25,51.25 C112.55,50.1833333 110.95,51 109.45,53.7 C108.05,56.1666667 107.083333,59.5833333 106.55,63.95 C105.983333,68.45 106.05,72.65 106.75,76.55 C107.583333,80.9833333 109.133333,84.15 111.4,86.05 C111.666667,86.25 111.5,86.55 110.9,86.95 C110.3,87.3166667 109.866667,87.4 109.6,87.2 C106.866667,85.1666667 104.983333,81.8 103.95,77.1 C103.05,72.8666667 102.95,68.3333333 103.65,63.5 C104.35,58.7333333 105.633333,54.9333333 107.5,52.1 C109.533333,49.0666667 111.8,47.95 114.3,48.75" id="Shape" fill="#0D131A"></path>
                            <path d="M183.35,45.75 C184.516667,44.85 185.866667,45.2333333 187.4,46.9 C188.933333,48.5333333 190.25,50.9666667 191.35,54.2 C194.083333,62.3 194.2,70.2666667 191.7,78.1 C191.6,78.4 191.216667,78.6166667 190.55,78.75 C189.883333,78.85 189.583333,78.75 189.65,78.45 C191.683333,72.1166667 191.75,64.9333333 189.85,56.9 C189.083333,53.6666667 188.133333,51.1166667 187,49.25 C185.866667,47.35 184.833333,46.65 183.9,47.15 C183.633333,47.3166667 183.416667,47.1666667 183.25,46.7 C183.083333,46.2666667 183.116667,45.95 183.35,45.75" id="Shape" fill="#0D131A"></path>
                            <path d="M179.65,107.85 C179.483333,107.583333 179.833333,107.183333 180.7,106.65 C181.533333,106.083333 182.016667,105.933333 182.15,106.2 C191.616667,121.5 195.833333,139.35 194.8,159.75 C194.7,161.65 193.25,163.616667 190.45,165.65 C187.783333,167.583333 184.483333,169.2 180.55,170.5 C171.016667,173.633333 163.85,173.516667 159.05,170.15 C155.883333,167.916667 152.6,163.65 149.2,157.35 C145.933333,151.316667 144.266667,146.733333 144.2,143.6 C144.2,143.3 144.666667,142.966667 145.6,142.6 L146.95,142.45 C147.016667,145.55 148.566667,149.933333 151.6,155.6 C154.833333,161.633333 158.083333,165.8 161.35,168.1 C165.516667,171 171.8,171.083333 180.2,168.35 C183.6,167.25 186.466667,165.883333 188.8,164.25 C191.233333,162.583333 192.483333,161.05 192.55,159.65 C193.516667,140.583333 189.216667,123.316667 179.65,107.85" id="Shape" fill="#0D131A"></path>
                            <path d="M151.7,139.55 C143.066667,146.316667 132.766667,150.9 120.8,153.3 C109.7,155.5 99.7833333,155.383333 91.05,152.95 C90.75,152.85 90.7,152.333333 90.9,151.4 C91.0666667,150.5 91.3,150.083333 91.6,150.15 C100.166667,152.55 109.75,152.7 120.35,150.6 C131.116667,148.466667 140.883333,144.416667 149.65,138.45 C152.983333,136.183333 154.833333,135.283333 155.2,135.75 C155.533333,136.183333 154.366667,137.45 151.7,139.55" id="Shape" fill="#0D131A"></path>
                            <path d="M128.35,149.65 C128.516667,149.383333 129.283333,149.15 130.65,148.95 L132.45,149.1 C129.85,153.366667 126.633333,157.083333 122.8,160.25 C118.4,163.883333 114.083333,165.966667 109.85,166.5 L94.85,166.05 C90.9166667,165.083333 88.6,163.616667 87.9,161.65 C87.8,161.35 88.05,160.85 88.65,160.15 C89.2166667,159.416667 89.55,159.2 89.65,159.5 C90.3166667,161.366667 92.3666667,162.766667 95.8,163.7 C99.5333333,164.733333 104.116667,164.916667 109.55,164.25 C112.716667,163.85 116.066667,162.266667 119.6,159.5 C123.1,156.766667 126.016667,153.483333 128.35,149.65" id="Shape" fill="#0D131A"></path>
                            <path d="M46.75,119.95 C48.55,112.916667 51.0666667,107.65 54.3,104.15 L91.35,114.95 C94.5833333,127.283333 94.9,139.033333 92.3,150.2 C90.7333333,156.833333 88.2833333,162.75 84.95,167.95 C83.15,170.783333 79.4833333,172.65 73.95,173.55 C68.1166667,174.516667 62.5,173.933333 57.1,171.8 C53.1666667,170.266667 50.0833333,166.516667 47.85,160.55 C45.7833333,155.116667 44.6666667,148.6 44.5,141 C44.3333333,133.566667 45.0833333,126.55 46.75,119.95" id="Shape" fill="#7CBEB3"></path>
                            <path d="M54.7,133.7 C54.9,131.666667 57.35,128.916667 62.05,125.45 C66.75,121.983333 69.7333333,120.733333 71,121.7 C72.3,122.666667 72.55,127.933333 71.75,137.5 C70.95,147.066667 69.7333333,151.916667 68.1,152.05 C67.1333333,152.116667 64.6333333,149.45 60.6,144.05 C56.5333333,138.583333 54.5666667,135.133333 54.7,133.7" id="Shape" fill="#006359"></path>
                            <path d="M45.8,122.05 C45.9666667,136.35 49.1833333,148.266667 55.45,157.8 C61.45,167.033333 68.95,172.116667 77.95,173.05 C74.2833333,173.983333 70.3166667,174.283333 66.05,173.95 C57.5166667,173.283333 51.7666667,169.75 48.8,163.35 C45.8333333,156.983333 44.45,148.183333 44.65,136.95 L45.8,122.05" id="Shape" fill="#68A198"></path>
                            <path d="M52.15,109.65 C47.8166667,117.083333 45.85,127.733333 46.25,141.6 C46.6833333,156.033333 49.7166667,165.316667 55.35,169.45 C59.1833333,172.25 64.3166667,173.366667 70.75,172.8 C76.95,172.233333 81.05,170.533333 83.05,167.7 C87.5833333,161.266667 90.55,153.5 91.95,144.4 C93.2166667,136.2 93.05,128.4 91.45,121 C90.65,117.3 90.55,115.316667 91.15,115.05 C91.75,114.783333 92.55,116.45 93.55,120.05 C95.6166667,127.55 96.0333333,135.666667 94.8,144.4 C93.4666667,153.9 90.4166667,162.05 85.65,168.85 C83.1833333,172.35 78.0833333,174.4 70.35,175 C62.7833333,175.566667 57.0833333,174.45 53.25,171.65 C50.4833333,169.616667 48.2,166.016667 46.4,160.85 C44.6666667,155.916667 43.6166667,150.25 43.25,143.85 C42.35,129.316667 44.65,117.566667 50.15,108.6 C52.0833333,105.433333 53.4166667,103.916667 54.15,104.05 C54.9166667,104.15 54.25,106.016667 52.15,109.65" id="Shape" fill="#0D131A"></path>
                            <path d="M55.9,133.2 C55.8333333,134.366667 57.55,137.633333 61.05,143 C64.6166667,148.466667 66.9,151.133333 67.9,151 C69,150.833333 69.9,146.316667 70.6,137.45 C71.3,128.55 71.1333333,123.733333 70.1,123 C69.1333333,122.333333 66.5333333,123.583333 62.3,126.75 C58.1,129.916667 55.9666667,132.066667 55.9,133.2 M53.6,132.7 C53.7,130.266667 56.4833333,127.2 61.95,123.5 C67.3166667,119.9 70.5333333,118.6 71.6,119.6 C73.3666667,121.3 73.8666667,127.083333 73.1,136.95 C72.3,146.816667 70.8833333,152.333333 68.85,153.5 C67.45,154.333333 64.5333333,151.7 60.1,145.6 C55.6666667,139.533333 53.5,135.233333 53.6,132.7" id="Shape" fill="#0D131A"></path>
                            <path d="M15.9,168.05 C15.7333333,167.55 16.3666667,166.7 17.8,165.5 C19.2666667,164.3 20.3666667,163.75 21.1,163.85 C22.4333333,164.016667 23.35,165.466667 23.85,168.2 C24.3166667,170.733333 24.35,172.183333 23.95,172.55 C23.4833333,172.983333 22.1833333,172.716667 20.05,171.75 C17.75,170.716667 16.3666667,169.483333 15.9,168.05" id="Shape" fill="#FFFFFF"></path>
                            <path d="M30.8,171.8 C28.4666667,170.733333 27.3,169.666667 27.3,168.6 C27.3,167.666667 27.9833333,166.533333 29.35,165.2 C30.6833333,163.866667 31.7,163.366667 32.4,163.7 C33.5,164.233333 34.4,165.8 35.1,168.4 C35.7666667,170.9 35.8,172.35 35.2,172.75 C34.5666667,173.183333 33.1,172.866667 30.8,171.8" id="Shape" fill="#FFFFFF"></path>
                            <path d="M38.65,168.75 C38.4166667,167.016667 39.05,165.416667 40.55,163.95 L42.9,162.25 C44.1333333,162.783333 45.1,164.383333 45.8,167.05 C46.4333333,169.45 46.5833333,170.85 46.25,171.25 L42.3,171.15 C39.9666667,170.583333 38.75,169.783333 38.65,168.75" id="Shape" fill="#FFFFFF"></path>
                            <path d="M58.3,172.95 C58.2333333,172.083333 58.5333333,171.15 59.2,170.15 C60,168.95 61.0166667,168.366667 62.25,168.4 C63.4833333,168.433333 64.4333333,168.9 65.1,169.8 C65.6333333,170.633333 65.8666667,171.65 65.8,172.85 C65.7333333,173.95 65.35,175.183333 64.65,176.55 C63.9833333,177.916667 63.45,178.6 63.05,178.6 C62.6166667,178.6 61.75,177.883333 60.45,176.45 C59.0833333,174.95 58.3666667,173.783333 58.3,172.95" id="Shape" fill="#FFFFFF"></path>
                            <path d="M68.25,174.05 C68.15,172.416667 68.6,171.066667 69.6,170 C70.4,169.1 71.2,168.65 72,168.65 C72.6,168.65 73.3,169.1 74.1,170 C74.9,170.933333 75.4,171.866667 75.6,172.8 C75.7333333,173.4 75.5833333,174.433333 75.15,175.9 C74.7166667,177.466667 74.2,178.4 73.6,178.7 C73,179.033333 72,178.666667 70.6,177.6 C69.1,176.5 68.3166667,175.316667 68.25,174.05" id="Shape" fill="#FFFFFF"></path>
                            <path d="M78.1,173.75 C77.1666667,172.75 77.25,171.233333 78.35,169.2 C79.45,167.166667 80.5333333,166.3 81.6,166.6 C82.6,166.933333 83.5666667,168.333333 84.5,170.8 C85.3666667,173.166667 85.5833333,174.683333 85.15,175.35 C84.75,175.95 83.7166667,176.083333 82.05,175.75 C80.35,175.383333 79.0333333,174.716667 78.1,173.75" id="Shape" fill="#FFFFFF"></path>
                            <path d="M95.1,164.65 C94.9666667,163.95 95.6166667,163.083333 97.05,162.05 C98.45,161.05 99.4666667,160.683333 100.1,160.95 C101.2,161.45 101.916667,162.85 102.25,165.15 C102.583333,167.383333 102.45,168.633333 101.85,168.9 C101.25,169.166667 100.066667,168.85 98.3,167.95 C96.4,166.95 95.3333333,165.85 95.1,164.65" id="Shape" fill="#FFFFFF"></path>
                            <path d="M108.65,168.05 C106.616667,167.35 105.433333,166.55 105.1,165.65 C104.8,164.883333 105.316667,163.783333 106.65,162.35 C107.983333,160.95 108.95,160.383333 109.55,160.65 C110.716667,161.15 111.533333,162.433333 112,164.5 C112.4,166.3 112.433333,167.533333 112.1,168.2 L108.65,168.05" id="Shape" fill="#FFFFFF"></path>
                            <path d="M114.1,163.9 C113.7,163.1 114.266667,161.95 115.8,160.45 C117.3,158.983333 118.383333,158.383333 119.05,158.65 C119.816667,158.983333 120.566667,160.2 121.3,162.3 C122,164.366667 122.183333,165.633333 121.85,166.1 L118.05,166 C115.85,165.466667 114.533333,164.766667 114.1,163.9" id="Shape" fill="#FFFFFF"></path>
                            <path d="M170.8,171.6 C170.333333,171.133333 170.7,169.933333 171.9,168 C173.1,166.033333 174.116667,165.066667 174.95,165.1 C176.05,165.166667 177.283333,166.366667 178.65,168.7 C179.95,170.9 180.45,172.2 180.15,172.6 C179.783333,173.066667 178.366667,173.216667 175.9,173.05 C173.333333,172.883333 171.633333,172.4 170.8,171.6" id="Shape" fill="#FFFFFF"></path>
                            <path d="M181.7,168.85 C181.233333,168.35 181.533333,167.1 182.6,165.1 C183.633333,163.1 184.533333,162.133333 185.3,162.2 C186.033333,162.266667 187.066667,163.433333 188.4,165.7 C189.666667,167.933333 190.183333,169.3 189.95,169.8 C189.65,170.3 188.433333,170.483333 186.3,170.35 C184.033333,170.216667 182.5,169.716667 181.7,168.85" id="Shape" fill="#FFFFFF"></path>
                            <path d="M190.05,164.25 C189.516667,163.583333 189.683333,162.316667 190.55,160.45 C191.383333,158.65 192.05,157.783333 192.55,157.85 C193.416667,157.95 194.483333,159.05 195.75,161.15 C196.983333,163.216667 197.45,164.516667 197.15,165.05 C196.916667,165.616667 195.866667,165.833333 194,165.7 C192.033333,165.566667 190.716667,165.083333 190.05,164.25" id="Shape" fill="#FFFFFF"></path>
                            <path d="M18.05,165.2 L20.25,167.95 C21.7166667,169.983333 22.5333333,171.566667 22.7,172.7 L19.2,170.9 C16.9,169.6 15.8166667,168.666667 15.95,168.1 C16.0833333,167.533333 16.4833333,166.883333 17.15,166.15 L18.05,165.2" id="Shape" fill="#DBDCDC"></path>
                            <path d="M29.3,165.4 L31.2,167.75 C32.5333333,169.616667 33.4166667,171.3 33.85,172.8 C29.75,171.366667 27.65,169.95 27.55,168.55 C27.4833333,167.683333 27.75,166.9 28.35,166.2 L29.3,165.4" id="Shape" fill="#DBDCDC"></path>
                            <path d="M45,171.6 C42.8666667,171.133333 41.3333333,170.666667 40.4,170.2 C39.3333333,169.7 38.7333333,169.083333 38.6,168.35 C38.4666667,167.716667 38.6,166.983333 39,166.15 L39.65,165.1 C40.55,165.533333 41.65,166.6 42.95,168.3 C44.05,169.766667 44.7333333,170.866667 45,171.6" id="Shape" fill="#DBDCDC"></path>
                            <path d="M60.3,169.45 L60.8,172.5 C61.2333333,174.8 61.7666667,176.6 62.4,177.9 L60.5,176.25 C59.2666667,174.883333 58.6833333,173.483333 58.75,172.05 C58.8166667,171.05 59.0666667,170.316667 59.5,169.85 C59.8333333,169.483333 60.1,169.35 60.3,169.45" id="Shape" fill="#DBDCDC"></path>
                            <path d="M69.3,171.05 L71.2,174.15 L73.7,178.75 C72.7666667,178.45 71.8333333,178.016667 70.9,177.45 C69.0333333,176.316667 68.1666667,175.1 68.3,173.8 C68.4333333,172.533333 68.6333333,171.7 68.9,171.3 L69.3,171.05" id="Shape" fill="#DBDCDC"></path>
                            <path d="M78.35,169.25 L80.7,171.5 C82.3666667,173.2 83.3833333,174.616667 83.75,175.75 L80.65,174.75 C78.5833333,173.95 77.5833333,173.166667 77.65,172.4 L78.05,170.15 L78.35,169.25" id="Shape" fill="#DBDCDC"></path>
                            <path d="M96.75,162.4 C97.05,162.6 97.6833333,163.35 98.65,164.65 C99.85,166.283333 100.516667,167.6 100.65,168.6 L97.05,166.9 C96.1166667,166.333333 95.6333333,165.616667 95.6,164.75 C95.5666667,164.116667 95.75,163.533333 96.15,163 L96.75,162.4" id="Shape" fill="#DBDCDC"></path>
                            <path d="M106.1,162.7 L107.75,163.85 C109.016667,165.016667 110.116667,166.55 111.05,168.45 L108.35,167.7 C106.516667,167.033333 105.5,166.266667 105.3,165.4 C105.1,164.533333 105.166667,163.833333 105.5,163.3 L106.1,162.7" id="Shape" fill="#DBDCDC"></path>
                            <path d="M115.5,160.7 L117.55,162.2 C119.016667,163.5 120.016667,164.85 120.55,166.25 L117.7,165.85 C115.7,165.35 114.516667,164.6 114.15,163.6 C113.95,163.133333 114.033333,162.55 114.4,161.85 C114.733333,161.183333 115.1,160.8 115.5,160.7" id="Shape" fill="#DBDCDC"></path>
                            <path d="M172.1,167.75 C174.9,169.083333 177.15,170.75 178.85,172.75 L175.1,172.8 C172.6,172.666667 171.3,172.166667 171.2,171.3 C171.1,170.433333 171.216667,169.583333 171.55,168.75 L172.1,167.75" id="Shape" fill="#DBDCDC"></path>
                            <path d="M182.55,165.6 C183.116667,165.766667 184.066667,166.266667 185.4,167.1 C187.2,168.2 188.316667,169.25 188.75,170.25 L185.25,170.1 C182.883333,169.833333 181.683333,169.316667 181.65,168.55 C181.583333,167.816667 181.716667,167.1 182.05,166.4 L182.55,165.6" id="Shape" fill="#DBDCDC"></path>
                            <path d="M190.45,160.7 L192.65,162.05 C194.283333,163.183333 195.416667,164.383333 196.05,165.65 L193.45,165.45 C191.65,165.183333 190.533333,164.733333 190.1,164.1 C189.666667,163.466667 189.6,162.7 189.9,161.8 L190.45,160.7" id="Shape" fill="#DBDCDC"></path>
                            <path d="M169.85,171.9 C169.583333,170.933333 170.116667,169.383333 171.45,167.25 C172.783333,165.083333 173.933333,163.983333 174.9,163.95 C175.866667,163.916667 177.216667,165.183333 178.95,167.75 C180.65,170.25 181.383333,171.95 181.15,172.85 C180.95,173.65 179.083333,173.9 175.55,173.6 C172.016667,173.3 170.116667,172.733333 169.85,171.9 M173.1,168 C172.266667,169.333333 171.933333,170.3 172.1,170.9 C172.433333,171.366667 173.616667,171.75 175.65,172.05 C177.616667,172.35 178.683333,172.333333 178.85,172 C179.016667,171.633333 178.566667,170.566667 177.5,168.8 C176.366667,167 175.483333,166.083333 174.85,166.05 C174.483333,166.016667 173.9,166.666667 173.1,168" id="Shape" fill="#0D131A"></path>
                            <path d="M188.9,169.4 C189.1,169.1 188.666667,168.033333 187.6,166.2 C186.566667,164.366667 185.783333,163.4 185.25,163.3 C184.85,163.266667 184.283333,163.966667 183.55,165.4 C182.783333,166.833333 182.466667,167.833333 182.6,168.4 C182.7,168.9 183.75,169.266667 185.75,169.5 L188.9,169.4 M185.5,161.05 C186.566667,161.183333 187.833333,162.666667 189.3,165.5 C190.7,168.2 191.25,169.866667 190.95,170.5 C190.65,171.166667 189.066667,171.366667 186.2,171.1 C183.266667,170.8 181.5,170.233333 180.9,169.4 C180.366667,168.666667 180.716667,167.083333 181.95,164.65 C183.183333,162.116667 184.366667,160.916667 185.5,161.05" id="Shape" fill="#0D131A"></path>
                            <path d="M191.2,161 C190.7,162.133333 190.6,163.066667 190.9,163.8 C191.033333,164.2 191.916667,164.516667 193.55,164.75 L196.2,164.6 C196.4,164.266667 196.05,163.3 195.15,161.7 C194.25,160 193.466667,159.166667 192.8,159.2 C192.233333,159.266667 191.7,159.866667 191.2,161 M190.1,159.75 C191.133333,157.85 192.016667,156.9 192.75,156.9 C193.983333,156.9 195.283333,158.283333 196.65,161.05 C197.983333,163.716667 198.45,165.383333 198.05,166.05 L193.6,166.2 C190.866667,165.866667 189.383333,165.4 189.15,164.8 C188.65,163.5 188.966667,161.816667 190.1,159.75" id="Shape" fill="#0D131A"></path>
                            <path d="M73.6,170.7 C73.0333333,170.033333 72.4833333,169.733333 71.95,169.8 C71.1833333,169.833333 70.5,170.316667 69.9,171.25 C69.3,172.15 69.05,173.016667 69.15,173.85 C69.25,174.616667 69.9,175.483333 71.1,176.45 C72.2666667,177.35 73.05,177.716667 73.45,177.55 C73.7166667,177.45 74,176.966667 74.3,176.1 C74.7,175.1 74.8333333,174.166667 74.7,173.3 C74.6,172.266667 74.2333333,171.4 73.6,170.7 M68.4,170.05 C69.5333333,168.383333 70.7666667,167.6 72.1,167.7 C73.0666667,167.766667 73.9333333,168.266667 74.7,169.2 C75.4666667,170.133333 75.95,171.283333 76.15,172.65 C76.3833333,173.983333 76.2833333,175.433333 75.85,177 C75.4166667,178.533333 74.8833333,179.416667 74.25,179.65 C73.45,179.95 72.1666667,179.516667 70.4,178.35 C68.5,177.05 67.4166667,175.633333 67.15,174.1 C66.95,172.933333 67.3666667,171.583333 68.4,170.05" id="Shape" fill="#0D131A"></path>
                            <path d="M64.05,170.6 C63.6166667,170 63.1333333,169.666667 62.6,169.6 C61.9666667,169.533333 61.3,169.8 60.6,170.4 C59.8666667,171 59.5,171.65 59.5,172.35 C59.5333333,173.216667 60.0166667,174.25 60.95,175.45 C61.7833333,176.583333 62.4,177.15 62.8,177.15 C63.1666667,177.116667 63.5666667,176.633333 64,175.7 C64.4666667,174.766667 64.7166667,173.833333 64.75,172.9 C64.7833333,172.033333 64.55,171.266667 64.05,170.6 M58.9,168.95 C60.1333333,167.85 61.4166667,167.383333 62.75,167.55 C63.85,167.683333 64.8,168.283333 65.6,169.35 C66.3666667,170.416667 66.7166667,171.6 66.65,172.9 C66.6166667,173.966667 66.2,175.333333 65.4,177 C64.5333333,178.733333 63.7833333,179.633333 63.15,179.7 C62.4166667,179.8 61.2666667,178.95 59.7,177.15 C58.0333333,175.283333 57.1666667,173.7 57.1,172.4 C57.0333333,171.166667 57.6333333,170.016667 58.9,168.95" id="Shape" fill="#0D131A"></path>
                            <path d="M83.3,169.6 C82.5333333,168.533333 81.8333333,168 81.2,168 C80.5666667,167.933333 79.9333333,168.4 79.3,169.4 C78.6333333,170.433333 78.3833333,171.4 78.55,172.3 C78.7166667,173.1 79.65,173.8 81.35,174.4 C82.9833333,174.933333 83.9333333,175.083333 84.2,174.85 C84.4333333,174.65 84.4833333,173.95 84.35,172.75 C84.2166667,171.45 83.8666667,170.4 83.3,169.6 M81.55,165.8 C83.1833333,166.033333 84.4666667,167.75 85.4,170.95 C86.2666667,173.95 86.4333333,175.75 85.9,176.35 L81.2,176.05 C78.4,175.283333 76.8833333,174.283333 76.65,173.05 C76.3833333,171.683333 76.7666667,170.116667 77.8,168.35 C78.9333333,166.45 80.1833333,165.6 81.55,165.8" id="Shape" fill="#0D131A"></path>
                            <path d="M46.7,166.65 C47.5333333,169.85 47.6166667,171.65 46.95,172.05 C46.0833333,172.55 44.3833333,172.45 41.85,171.75 C39.2166667,171.016667 37.75,170.133333 37.45,169.1 C37.05,167.866667 37.5166667,166.283333 38.85,164.35 C40.2166667,162.35 41.5833333,161.4 42.95,161.5 C44.55,161.6 45.8,163.316667 46.7,166.65 M39.55,168.3 C39.65,169 40.5666667,169.633333 42.3,170.2 C43.9666667,170.733333 44.9833333,170.833333 45.35,170.5 C45.6166667,170.266667 45.4666667,169.15 44.9,167.15 C44.3,165.016667 43.6,163.883333 42.8,163.75 C42.1333333,163.65 41.4,164.1 40.6,165.1 C39.7,166.166667 39.35,167.233333 39.55,168.3" id="Shape" fill="#0D131A"></path>
                            <path d="M28.5,168.6 C28.5,169.366667 29.4166667,170.166667 31.25,171 C33.05,171.8 34.0833333,172.016667 34.35,171.65 C34.65,171.283333 34.5666667,170.2 34.1,168.4 C33.6,166.466667 32.95,165.416667 32.15,165.25 C31.3833333,165.083333 30.5833333,165.433333 29.75,166.3 C28.9833333,167.1 28.5666667,167.833333 28.5,168.5 L28.5,168.6 M28.45,164.65 C29.8833333,163.316667 31.15,162.75 32.25,162.95 C33.9166667,163.25 35.1166667,165 35.85,168.2 C36.55,171.233333 36.5666667,173.033333 35.9,173.6 C35.2666667,174.2 33.5,173.866667 30.6,172.6 C27.5666667,171.333333 26.1166667,169.9 26.25,168.3 C26.35,167.166667 27.0833333,165.95 28.45,164.65" id="Shape" fill="#0D131A"></path>
                            <path d="M115.1,163.2 C115.2,163.866667 116.166667,164.5 118,165.1 C119.766667,165.666667 120.766667,165.8 121,165.5 C121.233333,165.2 121.083333,164.166667 120.55,162.4 C119.983333,160.533333 119.366667,159.566667 118.7,159.5 C118.133333,159.433333 117.366667,159.866667 116.4,160.8 C115.433333,161.766667 115,162.566667 115.1,163.2 M115.15,159.85 C116.883333,158.183333 118.25,157.516667 119.25,157.85 C120.516667,158.316667 121.55,159.9 122.35,162.6 C123.116667,165.166667 123.25,166.683333 122.75,167.15 C122.25,167.583333 120.616667,167.433333 117.85,166.7 C115.016667,165.933333 113.433333,165.083333 113.1,164.15 C112.7,162.983333 113.383333,161.55 115.15,159.85" id="Shape" fill="#0D131A"></path>
                            <path d="M108.75,167.2 C110.216667,167.7 111.066667,167.833333 111.3,167.6 C111.533333,167.366667 111.483333,166.416667 111.15,164.75 C110.783333,162.983333 110.266667,162.016667 109.6,161.85 C108.933333,161.683333 108.15,162.05 107.25,162.95 C106.35,163.883333 105.983333,164.7 106.15,165.4 C106.35,166.1 107.216667,166.7 108.75,167.2 M110,160 C111.1,160.266667 112.016667,161.716667 112.75,164.35 C113.416667,166.916667 113.483333,168.6 112.95,169.4 C112.616667,169.9 111.133333,169.683333 108.5,168.75 C105.766667,167.783333 104.3,166.766667 104.1,165.7 C103.866667,164.633333 104.5,163.35 106,161.85 C107.533333,160.316667 108.866667,159.7 110,160" id="Shape" fill="#0D131A"></path>
                            <path d="M98.65,167.1 C100.116667,167.9 101,168.2 101.3,168 C101.566667,167.833333 101.6,166.866667 101.4,165.1 C101.166667,163.233333 100.7,162.183333 100,161.95 C99.3333333,161.716667 98.5333333,161.95 97.6,162.65 C96.7,163.316667 96.2666667,163.983333 96.3,164.65 C96.3333333,165.45 97.1166667,166.266667 98.65,167.1 M100.55,160.1 C101.95,160.4 102.783333,162.05 103.05,165.05 C103.283333,167.883333 103.116667,169.5 102.55,169.9 C101.916667,170.3 100.35,169.833333 97.85,168.5 C95.3166667,167.1 94,165.883333 93.9,164.85 C93.8,163.883333 94.5166667,162.783333 96.05,161.55 C97.6833333,160.283333 99.1833333,159.8 100.55,160.1" id="Shape" fill="#0D131A"></path>
                            <path d="M19.85,170.25 C21.6166667,171.15 22.6333333,171.433333 22.9,171.1 C23.2,170.766667 23.15,169.716667 22.75,167.95 C22.3166667,166.116667 21.8,165.116667 21.2,164.95 C20.5,164.716667 19.65,164.983333 18.65,165.75 C17.65,166.516667 17.15,167.266667 17.15,168 C17.1833333,168.566667 18.0833333,169.316667 19.85,170.25 M21.65,162.7 C23.0833333,163 24.1,164.75 24.7,167.95 C25.2666667,171.016667 25.25,172.733333 24.65,173.1 C23.6166667,173.8 21.75,173.433333 19.05,172 C16.3833333,170.6 15,169.35 14.9,168.25 C14.7666667,166.983333 15.55,165.666667 17.25,164.3 C18.9166667,162.966667 20.3833333,162.433333 21.65,162.7" id="Shape" fill="#0D131A"></path>
                        </g>
                    </g>
                </g>
            </g>
        </g>
    </g>
</svg>