<?xml version="1.0" encoding="UTF-8" standalone="no"?>
<svg width="205px" height="180px" viewBox="0 0 205 180" version="1.1" xmlns="http://www.w3.org/2000/svg" xmlns:xlink="http://www.w3.org/1999/xlink" xmlns:sketch="http://www.bohemiancoding.com/sketch/ns">
    <!-- Generator: Sketch 3.3.3 (12081) - http://www.bohemiancoding.com/sketch -->
    <title>Berlberser No Bulb</title>
    <desc>Created with Sketch.</desc>
    <defs></defs>
    <g id="Berlberser" stroke="none" stroke-width="1" fill="none" fill-rule="evenodd" sketch:type="MSPage">
        <g id="Berlberser-No-Bulb" sketch:type="MSLayerGroup">
            <path d="M178.85,2.2 C181.816667,3.5 184.4,7.91666667 186.6,15.45 C188.566667,22.2833333 189.233333,27.1166667 188.6,29.95 C192.533333,34.5166667 196.366667,43.4333333 200.1,56.7 C204.333333,71.5666667 205.05,82.3833333 202.25,89.15 C201.35,91.3166667 198.716667,94.2666667 194.35,98 C189.816667,101.933333 185.333333,104.966667 180.9,107.1 L183.15,110.75 C184.95,113.95 186.566667,117.4 188,121.1 C192.566667,133.033333 194.466667,145.4 193.7,158.2 C193.466667,162.266667 190.1,165.6 183.6,168.2 C177.233333,170.7 170.45,171.533333 163.25,170.7 C160.816667,170.366667 157.6,167.516667 153.6,162.15 C149.033333,155.916667 146.316667,149.45 145.45,142.75 C139.35,146.283333 134.2,148.666667 130,149.9 L128.7,152.1 C127.566667,153.9 126.233333,155.566667 124.7,157.1 C119.866667,162.033333 114.15,164.783333 107.55,165.35 C100.983333,165.916667 95.8833333,165.4 92.25,163.8 C91.1166667,163.3 90.1833333,162.716667 89.45,162.05 L88.75,161.2 L48.8,162.55 L44.7,166.15 C41.0333333,168.583333 36.8,169.866667 32,170 C25.4333333,170.2 20.2666667,169.6 16.5,168.2 C11.7666667,166.4 8.4,163.116667 6.4,158.35 C3.5,151.483333 1.96666667,143.616667 1.8,134.75 C1.56666667,123.216667 4.15,113.783333 9.55,106.45 C14.75,99.3833333 21.5333333,92.1833333 29.9,84.85 C32.2333333,82.8166667 38.5833333,77.65 48.95,69.35 C54.25,65.15 58.9666667,61.0833333 63.1,57.15 C67.3,53.15 69.85,50.2833333 70.75,48.55 C71.7166667,41.9166667 72.9833333,35.1833333 74.55,28.35 C77.7166667,14.6833333 80.7833333,7.38333333 83.75,6.45 C86.7166667,5.55 91.0833333,6.5 96.85,9.3 C99.7166667,10.7333333 102.283333,12.2333333 104.55,13.8 L107.95,12.6 C110.95,11.7 114.233333,10.9333333 117.8,10.3 C129.2,8.33333333 141.3,8.21666667 154.1,9.95 C156.033333,7.88333333 160.3,5.88333333 166.9,3.95 C173.266667,2.08333333 177.25,1.5 178.85,2.2" id="Shape" fill="#7CBEB3" sketch:type="MSShapeGroup"></path>
            <path d="M187.9,22.1 L188.9,29.95 L183.75,22.3 C184.283333,20.0666667 184.516667,17.05 184.45,13.25 L184.15,8.25 C185.683333,11.55 186.933333,16.1666667 187.9,22.1" id="Shape" fill="#68A198" sketch:type="MSShapeGroup"></path>
            <path d="M73.4,30.95 C76.1,18.55 78.75,11.3833333 81.35,9.45 C80.7166667,16.65 80.5,23.7666667 80.7,30.8 C80.8333333,34.9333333 81.2666667,41.2333333 82,49.7 C82.4333333,54.7333333 81.9166667,59.2 80.45,63.1 C79.15,66.5 77.45,68.8166667 75.35,70.05 C73.2833333,71.25 71.5833333,70.9833333 70.25,69.25 C68.8166667,67.35 68.3333333,64.0833333 68.8,59.45 C69.7333333,50.2166667 71.2666667,40.7166667 73.4,30.95" id="Shape" fill="#68A198" sketch:type="MSShapeGroup"></path>
            <path d="M163.65,158.05 C166.216667,162.85 169.283333,165.85 172.85,167.05 L170.95,170.85 C165.916667,171.85 161.466667,170.533333 157.6,166.9 C152.966667,162.466667 148.866667,154.416667 145.3,142.75 C139.533333,146.25 133.133333,148.866667 126.1,150.6 C119.166667,152.333333 110.833333,153.383333 101.1,153.75 C99.5666667,154.25 98.45,155.316667 97.75,156.95 C97.05,158.516667 97.0333333,159.933333 97.7,161.2 L94.9,164.5 L88.9,160.85 C89.0666667,159.716667 90,156.333333 91.7,150.7 C93.3666667,145.3 94.4166667,140.616667 94.85,136.65 C96.1166667,124.783333 92.8166667,114.05 84.95,104.45 C91.95,111.483333 104.216667,115.9 121.75,117.7 C140.483333,119.6 156.4,117.9 169.5,112.6 C165.3,115.3 162.3,119.5 160.5,125.2 C158.9,130.333333 158.416667,136.016667 159.05,142.25 C159.683333,148.25 161.216667,153.516667 163.65,158.05" id="Shape" fill="#68A198" sketch:type="MSShapeGroup"></path>
            <path d="M1.3,129.35 C2.73333333,141.05 9.13333333,148.566667 20.5,151.9 C24.8666667,153.166667 29.4666667,153.633333 34.3,153.3 C38.7,153 42.3166667,152.133333 45.15,150.7 L48.8,163 C46.2,165.533333 42.7,167.516667 38.3,168.95 C29.5,171.816667 20.65,170.566667 11.75,165.2 C7.45,162.6 4.36666667,156 2.5,145.4 C1.9,141.833333 1.5,138.216667 1.3,134.55 C1.13333333,131.483333 1.13333333,129.75 1.3,129.35" id="Shape" fill="#68A198" sketch:type="MSShapeGroup"></path>
            <path d="M108.35,47.85 C109.65,47.6166667 111.033333,47.8333333 112.5,48.5 C107.466667,52.3666667 104.833333,58.3 104.6,66.3 C104.366667,73.6 106.033333,80.45 109.6,86.85 C102.6,86.0833333 97.6666667,84.4833333 94.8,82.05 C93.9666667,81.3166667 93.6166667,79.2666667 93.75,75.9 C93.8833333,72.4 94.5,68.7333333 95.6,64.9 C98.4666667,54.7 102.716667,49.0166667 108.35,47.85" id="Shape" fill="#FFFFFF" sketch:type="MSShapeGroup"></path>
            <path d="M125.65,66.9 C127.216667,71.1 128.183333,74.8833333 128.55,78.25 C128.95,81.85 128.55,84.25 127.35,85.45 C126.55,86.25 124.4,86.8 120.9,87.1 C117.333333,87.3666667 113.566667,87.2833333 109.6,86.85 C106.033333,80.45 104.366667,73.6 104.6,66.3 C104.833333,58.3 107.466667,52.3666667 112.5,48.5 C117.466667,50.8 121.85,56.9333333 125.65,66.9" id="Shape" fill="#D60040" sketch:type="MSShapeGroup"></path>
            <path d="M184.2,45.35 C188.366667,48.75 190.85,53.8333333 191.65,60.6 C192.15,64.8333333 191.95,70.7833333 191.05,78.45 C189.583333,79.0166667 188.166667,79.4 186.8,79.6 C185.4,79.8333333 184.35,79.8333333 183.65,79.6 C181.683333,78.9666667 180.7,73.9333333 180.7,64.5 C180.666667,54.8666667 181.833333,48.4833333 184.2,45.35" id="Shape" fill="#D60040" sketch:type="MSShapeGroup"></path>
            <path d="M184.2,45.35 C184.8,44.5166667 185.433333,44.0333333 186.1,43.9 C189.333333,43.2 192.466667,47.15 195.5,55.75 C198.466667,64.2833333 199.05,70.3833333 197.25,74.05 C196.416667,75.7833333 194.35,77.25 191.05,78.45 C191.95,70.7833333 192.15,64.8333333 191.65,60.6 C190.85,53.8333333 188.366667,48.75 184.2,45.35" id="Shape" fill="#FFFFFF" sketch:type="MSShapeGroup"></path>
            <path d="M154.85,40.25 C153.883333,40.6166667 151.366667,39.6 147.3,37.2 C143.033333,34.7333333 140.983333,32.7166667 141.15,31.15 C141.383333,29.0833333 144.833333,26.2333333 151.5,22.6 C158.266667,18.9333333 162.766667,17.5833333 165,18.55 C166.433333,19.15 165.683333,22.6833333 162.75,29.15 C159.783333,35.65 157.15,39.35 154.85,40.25" id="Shape" fill="#006359" sketch:type="MSShapeGroup"></path>
            <path d="M132.6,44.55 C132.5,44.1166667 133,43.3 134.1,42.1 C135.233333,40.8666667 136.25,40.1333333 137.15,39.9 L138.25,41.45 C139.183333,43.0166667 140.116667,45.2166667 141.05,48.05 L140.4,49.6 C139.766667,50.7333333 138.983333,51.5166667 138.05,51.95 L135.65,49.65 C133.983333,47.8166667 132.966667,46.1166667 132.6,44.55" id="Shape" fill="#006359" sketch:type="MSShapeGroup"></path>
            <path d="M171.25,55.45 C172.283333,61.35 172.366667,64.65 171.5,65.35 C170.733333,65.9833333 168.4,65.7333333 164.5,64.6 C160.566667,63.4666667 158.333333,62.3666667 157.8,61.3 C157.966667,58.8333333 159.233333,55.75 161.6,52.05 C164.033333,48.35 166,46.5 167.5,46.5 C168.966667,46.5 170.216667,49.4833333 171.25,55.45" id="Shape" fill="#006359" sketch:type="MSShapeGroup"></path>
            <path d="M174.25,142.4 C174.116667,140.5 175.283333,137.783333 177.75,134.25 C180.15,130.783333 181.883333,129.116667 182.95,129.25 C184.55,129.416667 185.65,132.766667 186.25,139.3 C186.816667,145.866667 186.3,149.416667 184.7,149.95 C182.933333,150.55 180.816667,150.216667 178.35,148.95 C175.516667,147.45 174.15,145.266667 174.25,142.4" id="Shape" fill="#006359" sketch:type="MSShapeGroup"></path>
            <path d="M15.75,114.3 L24,114.65 C27.7,115.383333 29.8333333,116.2 30.4,117.1 C31.3333333,118.6 30.7166667,121.766667 28.55,126.6 C26.4166667,131.4 24.6166667,133.866667 23.15,134 C21.8833333,134.1 19.3166667,132.833333 15.45,130.2 C11.55,127.566667 9.61666667,125.733333 9.65,124.7 C9.68333333,123.366667 10.3333333,121.466667 11.6,119 C13,116.233333 14.3833333,114.666667 15.75,114.3" id="Shape" fill="#006359" sketch:type="MSShapeGroup"></path>
            <path d="M63.3,71.45 C64.1666667,72.95 62.7666667,77.1166667 59.1,83.95 C55.4333333,90.7833333 52.6166667,94.4166667 50.65,94.85 C48.85,95.2833333 45.9166667,94.5 41.85,92.5 C38.0166667,90.6666667 35.4666667,88.9833333 34.2,87.45 C33.8,86.95 34.0666667,85.4833333 35,83.05 L36.5,79.5 L43.2,74.2 C47.7333333,70.6333333 50.2666667,68.7833333 50.8,68.65 L57.05,69.2 C60.7166667,69.8333333 62.8,70.5833333 63.3,71.45" id="Shape" fill="#006359" sketch:type="MSShapeGroup"></path>
            <path d="M114.05,53.55 C115.116667,53.55 116.05,54.6 116.85,56.7 C117.65,58.9333333 118.033333,61.7166667 118,65.05 C117.933333,68.2166667 117.5,70.7166667 116.7,72.55 C115.966667,74.2166667 115.066667,75.05 114,75.05 C113,75.05 112.133333,74.15 111.4,72.35 C110.6,70.45 110.166667,68.05 110.1,65.15 C109.966667,61.65 110.333333,58.8 111.2,56.6 C111.966667,54.5666667 112.916667,53.55 114.05,53.55" id="Shape" fill="#FFFFFF" sketch:type="MSShapeGroup"></path>
            <path d="M181.85,54.65 L182.85,50.15 C183.25,49.6166667 183.633333,49.3666667 184,49.4 C184.6,49.4333333 185.166667,50.0833333 185.7,51.35 C186.466667,53.05 186.883333,55.45 186.95,58.55 C186.983333,61.4833333 186.716667,63.7666667 186.15,65.4 C185.616667,66.8666667 184.95,67.6 184.15,67.6 C183.65,67.6 183.15,67.2333333 182.65,66.5 C182.116667,65.7 181.75,64.65 181.55,63.35 C181.15,61.05 181.25,58.15 181.85,54.65" id="Shape" fill="#FFFFFF" sketch:type="MSShapeGroup"></path>
            <path d="M160.55,12.25 C151.416667,10.4833333 142.166667,9.8 132.8,10.2 C122.733333,10.6 113.483333,12.2333333 105.05,15.1 C104.75,15.2 104.333333,14.8666667 103.8,14.1 C103.233333,13.3333333 103.1,12.8833333 103.4,12.75 C112.966667,9.51666667 123.333333,7.78333333 134.5,7.55 C144.3,7.31666667 153.25,8.23333333 161.35,10.3 C165.483333,11.3666667 167.45,12.15 167.25,12.65 L160.55,12.25" id="Shape" fill="#0D131A" sketch:type="MSShapeGroup"></path>
            <path d="M187.55,26.2 C194.316667,36 199.25,47.3666667 202.35,60.3 C205.05,71.5666667 205.716667,80.2833333 204.35,86.45 C202.85,93.2833333 195.383333,100.283333 181.95,107.45 C168.616667,114.583333 155.733333,118.533333 143.3,119.3 C130,120.1 117.483333,119 105.75,116 C94.0166667,113 86.45,108.95 83.05,103.85 C81.95,102.183333 81.6,101.166667 82,100.8 C82.4333333,100.433333 83.4166667,101.083333 84.95,102.75 C89.45,107.683333 97.4666667,111.45 109,114.05 C119.966667,116.516667 131.416667,117.383333 143.35,116.65 C155.816667,115.883333 168.4,111.966667 181.1,104.9 C193.3,98.1 200.066667,91.6666667 201.4,85.6 C202.8,79.3 202.216667,70.8 199.65,60.1 C196.783333,48.1333333 192.2,37.3666667 185.9,27.8 C183.3,23.8333333 182.283333,21.6333333 182.85,21.2 C183.383333,20.7666667 184.95,22.4333333 187.55,26.2" id="Shape" fill="#0D131A" sketch:type="MSShapeGroup"></path>
            <path d="M71.7,49.1 C69.5,53.2333333 65.05,58.15 58.35,63.85 C54.35,67.2166667 47.6166667,72.55 38.15,79.85 C29.5166667,86.7166667 22.85,92.7666667 18.15,98 C11.6833333,105.2 7.38333333,112.283333 5.25,119.25 C2.68333333,127.616667 2.55,137.016667 4.85,147.45 C6.98333333,157.283333 10.0166667,163.35 13.95,165.65 C18.1833333,168.116667 23.8833333,169.2 31.05,168.9 C38.45,168.6 43.5666667,166.866667 46.4,163.7 C50.7666667,158.8 52.4666667,150.866667 51.5,139.9 C50.5,128.7 47.1,119.766667 41.3,113.1 C39.0333333,110.466667 38.0666667,108.866667 38.4,108.3 C38.7333333,107.733333 40.15,108.783333 42.65,111.45 C49.95,119.283333 54.0166667,128.866667 54.85,140.2 C55.6166667,150.966667 53.3666667,159.3 48.1,165.2 C44.9333333,168.766667 39.2333333,170.766667 31,171.2 C23.0333333,171.633333 16.7166667,170.483333 12.05,167.75 C7.31666667,164.983333 3.85,158.45 1.65,148.15 C-0.583333333,137.55 -0.366666667,127.75 2.3,118.75 C4.33333333,111.95 8.35,105.133333 14.35,98.3 C18.7166667,93.3 25.0333333,87.45 33.3,80.75 L53.8,64.15 C61.2,57.7833333 66.7166667,51.9333333 70.35,46.6 C70.5166667,46.3666667 70.8166667,46.65 71.25,47.45 C71.7166667,48.2833333 71.8666667,48.8333333 71.7,49.1" id="Shape" fill="#0D131A" sketch:type="MSShapeGroup"></path>
            <path d="M83.95,4.95 C86.0166667,4.28333333 89.5,4.95 94.4,6.95 C99.3333333,8.98333333 103.383333,11.4666667 106.55,14.4 C109.05,16.7333333 110.016667,18.05 109.45,18.35 C108.916667,18.6833333 107.383333,17.8666667 104.85,15.9 C101.583333,13.4333333 97.8,11.35 93.5,9.65 C89.3,7.95 86.4833333,7.35 85.05,7.85 C82.7166667,8.61666667 80.0166667,14.5333333 76.95,25.6 C73.7166667,37.3 71.6166667,49.5666667 70.65,62.4 C70.3833333,66.1 69.9166667,67.8 69.25,67.5 C68.55,67.2 68.2666667,65.45 68.4,62.25 C68.8333333,51.15 70.5,39.5333333 73.4,27.4 C76.7,13.6666667 80.2166667,6.18333333 83.95,4.95" id="Shape" fill="#0D131A" sketch:type="MSShapeGroup"></path>
            <path d="M152.5,9.25 C155.4,7.05 159.85,4.95 165.85,2.95 C172.616667,0.683333333 177.316667,0.15 179.95,1.35 C182.55,2.51666667 184.916667,6.43333333 187.05,13.1 C189.016667,19.3 190.116667,25.5333333 190.35,31.8 C190.35,32.1 189.933333,31.7833333 189.1,30.85 C188.233333,29.9166667 187.8,29.2833333 187.8,28.95 C187.6,23.8833333 186.433333,18.55 184.3,12.95 C182.266667,7.61666667 180.383333,4.55 178.65,3.75 C177.016667,3.01666667 173.283333,3.48333333 167.45,5.15 C161.55,6.81666667 157.35,8.6 154.85,10.5 C154.616667,10.7 154.1,10.6 153.3,10.2 C152.533333,9.76666667 152.266667,9.45 152.5,9.25" id="Shape" fill="#0D131A" sketch:type="MSShapeGroup"></path>
            <path d="M154.35,38.85 C155.983333,38.8166667 158.266667,35.7 161.2,29.5 C164.1,23.4 165.183333,20.1666667 164.45,19.8 C162.816667,18.9666667 158.766667,20.1833333 152.3,23.45 C145.8,26.7166667 142.533333,29.2333333 142.5,31 C142.466667,32.1 143.9,33.65 146.8,35.65 C149.766667,37.65 152.283333,38.7166667 154.35,38.85 M150.35,22.1 C157.45,18.2666667 162.516667,16.6333333 165.55,17.2 C166.583333,17.4 166.883333,18.7666667 166.45,21.3 C166.05,23.6333333 165.15,26.3666667 163.75,29.5 C160.25,37.3 157.116667,41.1333333 154.35,41 C152.15,40.8666667 149.216667,39.6 145.55,37.2 C141.716667,34.7 139.8,32.5833333 139.8,30.85 C139.8,28.8166667 143.316667,25.9 150.35,22.1" id="Shape" fill="#0D131A" sketch:type="MSShapeGroup"></path>
            <path d="M140.05,48.35 C140.15,48.0833333 139.783333,46.85 138.95,44.65 C138.116667,42.4166667 137.516667,41.2833333 137.15,41.25 C136.85,41.2166667 136.183333,41.6666667 135.15,42.6 C134.116667,43.5333333 133.6,44.2333333 133.6,44.7 C133.633333,45.1333333 134.333333,46.2666667 135.7,48.1 C137.066667,49.8666667 137.866667,50.75 138.1,50.75 C138.3,50.75 138.65,50.4166667 139.15,49.75 L140.05,48.35 M140.15,43.1 C141.183333,45.5666667 141.716667,47.25 141.75,48.15 C141.783333,48.8833333 141.25,49.8833333 140.15,51.15 C139.016667,52.45 138.166667,52.9666667 137.6,52.7 C136.933333,52.4 135.783333,51.1666667 134.15,49 C132.383333,46.7 131.566667,45.1166667 131.7,44.25 C131.833333,43.35 132.616667,42.2166667 134.05,40.85 C135.483333,39.55 136.566667,38.9166667 137.3,38.95 C138.066667,39.0166667 139.016667,40.4 140.15,43.1" id="Shape" fill="#0D131A" sketch:type="MSShapeGroup"></path>
            <path d="M167.15,47.95 C166.116667,47.8833333 164.416667,49.8333333 162.05,53.8 C159.75,57.7333333 158.733333,60.0833333 159,60.85 C159.266667,61.55 161.15,62.4 164.65,63.4 C168.183333,64.4 170.2,64.6666667 170.7,64.2 C171.466667,63.4666667 171.316667,60.5833333 170.25,55.55 C169.183333,50.55 168.15,48.0166667 167.15,47.95 M160.35,52.15 C163.25,47.15 165.533333,44.7333333 167.2,44.9 C169.3,45.1 170.983333,48.5666667 172.25,55.3 C173.483333,62 173.383333,65.7 171.95,66.4 C170.716667,67.0333333 168,66.65 163.8,65.25 C159.666667,63.8833333 157.4,62.7166667 157,61.75 C156.366667,60.3166667 157.483333,57.1166667 160.35,52.15" id="Shape" fill="#0D131A" sketch:type="MSShapeGroup"></path>
            <path d="M96.8,57.9 C100.7,50 104.883333,46.3 109.35,46.8 C115.65,47.5333333 121.066667,52.85 125.6,62.75 C127.5,66.95 128.75,71.1 129.35,75.2 C129.983333,79.4666667 129.766667,82.8666667 128.7,85.4 C128.133333,86.8 126,87.7333333 122.3,88.2 C118.9,88.6 114.95,88.5666667 110.45,88.1 C105.916667,87.6333333 102.05,86.8166667 98.85,85.65 C95.3166667,84.4166667 93.4,83 93.1,81.4 C91.6,73.8 92.8333333,65.9666667 96.8,57.9 M120.3,58.6 C116.8,52.6666667 113.066667,49.4833333 109.1,49.05 C107.533333,48.8833333 105.833333,49.75 104,51.65 C101.233333,54.5166667 99,58.65 97.3,64.05 C95.5,69.9166667 94.9666667,75.5333333 95.7,80.9 C95.9666667,82.9666667 100.95,84.5333333 110.65,85.6 C120.35,86.7 125.616667,86.2833333 126.45,84.35 C127.316667,82.25 127.166667,78.5833333 126,73.35 C124.766667,67.8833333 122.866667,62.9666667 120.3,58.6" id="Shape" fill="#0D131A" sketch:type="MSShapeGroup"></path>
            <path d="M193.95,54.6 C191.45,48.4 188.933333,45.3 186.4,45.3 C184.166667,45.3 182.8,50.5833333 182.3,61.15 C181.8,71.65 182.433333,77.4166667 184.2,78.45 C185.366667,79.1166667 187.566667,78.75 190.8,77.35 C194.033333,75.95 195.783333,74.6333333 196.05,73.4 C197.35,67.5 196.65,61.2333333 193.95,54.6 M179.95,60.3 C180.516667,48.7666667 182.666667,43 186.4,43 C189.633333,43 192.766667,46.45 195.8,53.35 C198.966667,60.6166667 199.85,67.4 198.45,73.7 C197.95,75.8333333 195.483333,77.7333333 191.05,79.4 C186.75,81.0333333 184.016667,81.35 182.85,80.35 C181.75,79.45 180.933333,76.9833333 180.4,72.95 C179.866667,69.0833333 179.716667,64.8666667 179.95,60.3" id="Shape" fill="#0D131A" sketch:type="MSShapeGroup"></path>
            <path d="M50.25,67.7 L59,68.25 C62.4,68.85 64.35,69.6333333 64.85,70.6 C65.75,72.4333333 64.1166667,77.1333333 59.95,84.7 C55.7833333,92.3333333 52.6,96.15 50.4,96.15 C48.3,96.15 44.8666667,95.1 40.1,93 C35.0666667,90.8 32.55,89 32.55,87.6 C32.55,86.8 32.9166667,85.6 33.65,84 L36.05,79.3 C36.2166667,79.0333333 36.6666667,78.8666667 37.4,78.8 C38.1666667,78.7666667 38.4666667,78.8833333 38.3,79.15 C37.4,80.8166667 36.6833333,82.4333333 36.15,84 C35.6833333,85.3666667 35.45,86.35 35.45,86.95 C35.5833333,87.85 37.7333333,89.2333333 41.9,91.1 C45.9666667,92.9333333 48.7833333,93.8666667 50.35,93.9 C51.8166667,93.4333333 54.2166667,90.0333333 57.55,83.7 C60.8833333,77.3666667 62.3166667,73.5 61.85,72.1 C61.5833333,71.5333333 60.15,71 57.55,70.5 L49.8,69.95 C49.4666667,69.9833333 49.3833333,69.6166667 49.55,68.85 C49.7166667,68.1166667 49.95,67.7333333 50.25,67.7" id="Shape" fill="#0D131A" sketch:type="MSShapeGroup"></path>
            <path d="M16.2,115.2 C15.1666667,115.7 13.9833333,117.083333 12.65,119.35 C11.3166667,121.583333 10.7,123.133333 10.8,124 C10.9333333,124.9 12.7,126.55 16.1,128.95 C19.5,131.35 21.7,132.483333 22.7,132.35 C23.7,132.216667 25.25,129.916667 27.35,125.45 C29.45,120.983333 30.2333333,118.466667 29.7,117.9 C29.1,117.3 26.9166667,116.6 23.15,115.8 C19.3166667,115 17,114.8 16.2,115.2 M10.65,118.05 C12.2166667,115.45 13.7,113.783333 15.1,113.05 L23.75,113.45 C28.55,114.35 31.35,115.433333 32.15,116.7 C32.8833333,117.866667 32.05,121.133333 29.65,126.5 C27.25,131.833333 25.2833333,134.783333 23.75,135.35 C22.5833333,135.816667 19.8333333,134.533333 15.5,131.5 C11.1,128.433333 8.78333333,126.033333 8.55,124.3 C8.38333333,122.8 9.08333333,120.716667 10.65,118.05" id="Shape" fill="#0D131A" sketch:type="MSShapeGroup"></path>
            <path d="M175.35,142.3 L175.35,142.35 C175.416667,145.116667 176.766667,147.133333 179.4,148.4 C181.766667,149.533333 183.366667,149.716667 184.2,148.95 C185.066667,148.15 185.366667,145.116667 185.1,139.85 C184.833333,134.483333 184.05,131.5 182.75,130.9 C182.05,130.6 180.633333,132.1 178.5,135.4 C176.4,138.7 175.35,141 175.35,142.3 M176.8,133.7 C179.366667,129.6 181.35,127.566667 182.75,127.6 C185.016667,127.633333 186.433333,131.25 187,138.45 C187.566667,145.516667 187.1,149.6 185.6,150.7 C184.366667,151.633333 182.116667,151.466667 178.85,150.2 C175.116667,148.733333 173.2,146.283333 173.1,142.85 C173.066667,140.783333 174.3,137.733333 176.8,133.7" id="Shape" fill="#0D131A" sketch:type="MSShapeGroup"></path>
            <path d="M198.75,84.1 C198.716667,85.4 198.533333,86.4666667 198.2,87.3 L197.2,88.95 C195.566667,90.8833333 191.666667,93.3166667 185.5,96.25 C179.133333,99.2833333 173.616667,101.266667 168.95,102.2 C160.45,103.933333 147.4,104.083333 129.8,102.65 C112.2,101.25 101.083333,99.15 96.45,96.35 C95.6833333,95.85 94.9833333,95.0333333 94.35,93.9 C93.7833333,92.9333333 93.3666667,91.8666667 93.1,90.7 C92.6,88.6 92.5666667,87.4166667 93,87.15 C93.4333333,86.8833333 94.1166667,87.85 95.05,90.05 C95.6166667,91.35 96.2166667,92.35 96.85,93.05 L98.85,94.55 C102.583333,96.5833333 112.566667,98.3833333 128.8,99.95 C146.366667,101.65 159.6,101.6 168.5,99.8 C172.5,98.9666667 177.25,97.35 182.75,94.95 C187.85,92.7166667 191.666667,90.6833333 194.2,88.85 C195.133333,88.15 195.816667,87.4333333 196.25,86.7 C196.716667,85.9333333 197.016667,85 197.15,83.9 C197.383333,81.9 197.716667,80.9666667 198.15,81.1 C198.583333,81.2666667 198.783333,82.2666667 198.75,84.1" id="Shape" fill="#0D131A" sketch:type="MSShapeGroup"></path>
            <path d="M122.95,43.05 C124.116667,44.1166667 125.25,45.4166667 126.35,46.95 C127.516667,48.55 128.35,50 128.85,51.3 C129.583333,53.1666667 129.616667,54.2166667 128.95,54.45 C128.25,54.65 127.466667,53.9166667 126.6,52.25 C125.166667,49.4166667 123.416667,46.85 121.35,44.55 C119.416667,42.3166667 118.65,41.0166667 119.05,40.65 C119.483333,40.2833333 120.783333,41.0833333 122.95,43.05" id="Shape" fill="#0D131A" sketch:type="MSShapeGroup"></path>
            <path d="M179.3,43.4 C178.666667,45.2333333 178.266667,47.2 178.1,49.3 C177.966667,51.1333333 177.55,52.0333333 176.85,52 C176.15,52 175.85,51.1 175.95,49.3 C176.05,47.1 176.616667,44.9333333 177.65,42.8 C178.583333,40.9 179.266667,40 179.7,40.1 C180.1,40.2333333 179.966667,41.3333333 179.3,43.4" id="Shape" fill="#0D131A" sketch:type="MSShapeGroup"></path>
            <path d="M157.35,95.8 C156.616667,95.4333333 156.033333,94.9666667 155.6,94.4 C155.166667,93.8666667 155.016667,93.4833333 155.15,93.25 L156.7,93.3 C157.666667,93.5 158.383333,93.8166667 158.85,94.25 C159.45,94.85 159.566667,95.3666667 159.2,95.8 C158.833333,96.2333333 158.216667,96.2333333 157.35,95.8" id="Shape" fill="#0D131A" sketch:type="MSShapeGroup"></path>
            <path d="M174.4,93.3 C173.7,94.1666667 173.066667,94.4666667 172.5,94.2 C171.933333,93.9333333 171.9,93.3833333 172.4,92.55 C172.766667,91.95 173.35,91.4166667 174.15,90.95 C174.883333,90.4833333 175.35,90.3333333 175.55,90.5 C175.683333,90.6333333 175.65,90.9833333 175.45,91.55 L174.4,93.3" id="Shape" fill="#0D131A" sketch:type="MSShapeGroup"></path>
            <path d="M114.3,48.75 C114.6,48.85 114.733333,49.3333333 114.7,50.2 C114.666667,51.0666667 114.516667,51.4166667 114.25,51.25 C112.55,50.1833333 110.95,51 109.45,53.7 C108.05,56.1666667 107.083333,59.5833333 106.55,63.95 C105.983333,68.45 106.05,72.65 106.75,76.55 C107.583333,80.9833333 109.133333,84.15 111.4,86.05 C111.666667,86.25 111.5,86.55 110.9,86.95 C110.3,87.3166667 109.866667,87.4 109.6,87.2 C106.866667,85.1666667 104.983333,81.8 103.95,77.1 C103.05,72.8666667 102.95,68.3333333 103.65,63.5 C104.35,58.7333333 105.633333,54.9333333 107.5,52.1 C109.533333,49.0666667 111.8,47.95 114.3,48.75" id="Shape" fill="#0D131A" sketch:type="MSShapeGroup"></path>
            <path d="M183.35,45.75 C184.516667,44.85 185.866667,45.2333333 187.4,46.9 C188.933333,48.5333333 190.25,50.9666667 191.35,54.2 C194.083333,62.3 194.2,70.2666667 191.7,78.1 C191.6,78.4 191.216667,78.6166667 190.55,78.75 C189.883333,78.85 189.583333,78.75 189.65,78.45 C191.683333,72.1166667 191.75,64.9333333 189.85,56.9 C189.083333,53.6666667 188.133333,51.1166667 187,49.25 C185.866667,47.35 184.833333,46.65 183.9,47.15 C183.633333,47.3166667 183.416667,47.1666667 183.25,46.7 C183.083333,46.2666667 183.116667,45.95 183.35,45.75" id="Shape" fill="#0D131A" sketch:type="MSShapeGroup"></path>
            <path d="M179.65,107.85 C179.483333,107.583333 179.833333,107.183333 180.7,106.65 C181.533333,106.083333 182.016667,105.933333 182.15,106.2 C191.616667,121.5 195.833333,139.35 194.8,159.75 C194.7,161.65 193.25,163.616667 190.45,165.65 C187.783333,167.583333 184.483333,169.2 180.55,170.5 C171.016667,173.633333 163.85,173.516667 159.05,170.15 C155.883333,167.916667 152.6,163.65 149.2,157.35 C145.933333,151.316667 144.266667,146.733333 144.2,143.6 C144.2,143.3 144.666667,142.966667 145.6,142.6 L146.95,142.45 C147.016667,145.55 148.566667,149.933333 151.6,155.6 C154.833333,161.633333 158.083333,165.8 161.35,168.1 C165.516667,171 171.8,171.083333 180.2,168.35 C183.6,167.25 186.466667,165.883333 188.8,164.25 C191.233333,162.583333 192.483333,161.05 192.55,159.65 C193.516667,140.583333 189.216667,123.316667 179.65,107.85" id="Shape" fill="#0D131A" sketch:type="MSShapeGroup"></path>
            <path d="M151.7,139.55 C143.066667,146.316667 132.766667,150.9 120.8,153.3 C109.7,155.5 99.7833333,155.383333 91.05,152.95 C90.75,152.85 90.7,152.333333 90.9,151.4 C91.0666667,150.5 91.3,150.083333 91.6,150.15 C100.166667,152.55 109.75,152.7 120.35,150.6 C131.116667,148.466667 140.883333,144.416667 149.65,138.45 C152.983333,136.183333 154.833333,135.283333 155.2,135.75 C155.533333,136.183333 154.366667,137.45 151.7,139.55" id="Shape" fill="#0D131A" sketch:type="MSShapeGroup"></path>
            <path d="M128.35,149.65 C128.516667,149.383333 129.283333,149.15 130.65,148.95 L132.45,149.1 C129.85,153.366667 126.633333,157.083333 122.8,160.25 C118.4,163.883333 114.083333,165.966667 109.85,166.5 L94.85,166.05 C90.9166667,165.083333 88.6,163.616667 87.9,161.65 C87.8,161.35 88.05,160.85 88.65,160.15 C89.2166667,159.416667 89.55,159.2 89.65,159.5 C90.3166667,161.366667 92.3666667,162.766667 95.8,163.7 C99.5333333,164.733333 104.116667,164.916667 109.55,164.25 C112.716667,163.85 116.066667,162.266667 119.6,159.5 C123.1,156.766667 126.016667,153.483333 128.35,149.65" id="Shape" fill="#0D131A" sketch:type="MSShapeGroup"></path>
            <path d="M46.75,119.95 C48.55,112.916667 51.0666667,107.65 54.3,104.15 L91.35,114.95 C94.5833333,127.283333 94.9,139.033333 92.3,150.2 C90.7333333,156.833333 88.2833333,162.75 84.95,167.95 C83.15,170.783333 79.4833333,172.65 73.95,173.55 C68.1166667,174.516667 62.5,173.933333 57.1,171.8 C53.1666667,170.266667 50.0833333,166.516667 47.85,160.55 C45.7833333,155.116667 44.6666667,148.6 44.5,141 C44.3333333,133.566667 45.0833333,126.55 46.75,119.95" id="Shape" fill="#7CBEB3" sketch:type="MSShapeGroup"></path>
            <path d="M54.7,133.7 C54.9,131.666667 57.35,128.916667 62.05,125.45 C66.75,121.983333 69.7333333,120.733333 71,121.7 C72.3,122.666667 72.55,127.933333 71.75,137.5 C70.95,147.066667 69.7333333,151.916667 68.1,152.05 C67.1333333,152.116667 64.6333333,149.45 60.6,144.05 C56.5333333,138.583333 54.5666667,135.133333 54.7,133.7" id="Shape" fill="#006359" sketch:type="MSShapeGroup"></path>
            <path d="M45.8,122.05 C45.9666667,136.35 49.1833333,148.266667 55.45,157.8 C61.45,167.033333 68.95,172.116667 77.95,173.05 C74.2833333,173.983333 70.3166667,174.283333 66.05,173.95 C57.5166667,173.283333 51.7666667,169.75 48.8,163.35 C45.8333333,156.983333 44.45,148.183333 44.65,136.95 L45.8,122.05" id="Shape" fill="#68A198" sketch:type="MSShapeGroup"></path>
            <path d="M52.15,109.65 C47.8166667,117.083333 45.85,127.733333 46.25,141.6 C46.6833333,156.033333 49.7166667,165.316667 55.35,169.45 C59.1833333,172.25 64.3166667,173.366667 70.75,172.8 C76.95,172.233333 81.05,170.533333 83.05,167.7 C87.5833333,161.266667 90.55,153.5 91.95,144.4 C93.2166667,136.2 93.05,128.4 91.45,121 C90.65,117.3 90.55,115.316667 91.15,115.05 C91.75,114.783333 92.55,116.45 93.55,120.05 C95.6166667,127.55 96.0333333,135.666667 94.8,144.4 C93.4666667,153.9 90.4166667,162.05 85.65,168.85 C83.1833333,172.35 78.0833333,174.4 70.35,175 C62.7833333,175.566667 57.0833333,174.45 53.25,171.65 C50.4833333,169.616667 48.2,166.016667 46.4,160.85 C44.6666667,155.916667 43.6166667,150.25 43.25,143.85 C42.35,129.316667 44.65,117.566667 50.15,108.6 C52.0833333,105.433333 53.4166667,103.916667 54.15,104.05 C54.9166667,104.15 54.25,106.016667 52.15,109.65" id="Shape" fill="#0D131A" sketch:type="MSShapeGroup"></path>
            <path d="M55.9,133.2 C55.8333333,134.366667 57.55,137.633333 61.05,143 C64.6166667,148.466667 66.9,151.133333 67.9,151 C69,150.833333 69.9,146.316667 70.6,137.45 C71.3,128.55 71.1333333,123.733333 70.1,123 C69.1333333,122.333333 66.5333333,123.583333 62.3,126.75 C58.1,129.916667 55.9666667,132.066667 55.9,133.2 M53.6,132.7 C53.7,130.266667 56.4833333,127.2 61.95,123.5 C67.3166667,119.9 70.5333333,118.6 71.6,119.6 C73.3666667,121.3 73.8666667,127.083333 73.1,136.95 C72.3,146.816667 70.8833333,152.333333 68.85,153.5 C67.45,154.333333 64.5333333,151.7 60.1,145.6 C55.6666667,139.533333 53.5,135.233333 53.6,132.7" id="Shape" fill="#0D131A" sketch:type="MSShapeGroup"></path>
            <path d="M15.9,168.05 C15.7333333,167.55 16.3666667,166.7 17.8,165.5 C19.2666667,164.3 20.3666667,163.75 21.1,163.85 C22.4333333,164.016667 23.35,165.466667 23.85,168.2 C24.3166667,170.733333 24.35,172.183333 23.95,172.55 C23.4833333,172.983333 22.1833333,172.716667 20.05,171.75 C17.75,170.716667 16.3666667,169.483333 15.9,168.05" id="Shape" fill="#FFFFFF" sketch:type="MSShapeGroup"></path>
            <path d="M30.8,171.8 C28.4666667,170.733333 27.3,169.666667 27.3,168.6 C27.3,167.666667 27.9833333,166.533333 29.35,165.2 C30.6833333,163.866667 31.7,163.366667 32.4,163.7 C33.5,164.233333 34.4,165.8 35.1,168.4 C35.7666667,170.9 35.8,172.35 35.2,172.75 C34.5666667,173.183333 33.1,172.866667 30.8,171.8" id="Shape" fill="#FFFFFF" sketch:type="MSShapeGroup"></path>
            <path d="M38.65,168.75 C38.4166667,167.016667 39.05,165.416667 40.55,163.95 L42.9,162.25 C44.1333333,162.783333 45.1,164.383333 45.8,167.05 C46.4333333,169.45 46.5833333,170.85 46.25,171.25 L42.3,171.15 C39.9666667,170.583333 38.75,169.783333 38.65,168.75" id="Shape" fill="#FFFFFF" sketch:type="MSShapeGroup"></path>
            <path d="M58.3,172.95 C58.2333333,172.083333 58.5333333,171.15 59.2,170.15 C60,168.95 61.0166667,168.366667 62.25,168.4 C63.4833333,168.433333 64.4333333,168.9 65.1,169.8 C65.6333333,170.633333 65.8666667,171.65 65.8,172.85 C65.7333333,173.95 65.35,175.183333 64.65,176.55 C63.9833333,177.916667 63.45,178.6 63.05,178.6 C62.6166667,178.6 61.75,177.883333 60.45,176.45 C59.0833333,174.95 58.3666667,173.783333 58.3,172.95" id="Shape" fill="#FFFFFF" sketch:type="MSShapeGroup"></path>
            <path d="M68.25,174.05 C68.15,172.416667 68.6,171.066667 69.6,170 C70.4,169.1 71.2,168.65 72,168.65 C72.6,168.65 73.3,169.1 74.1,170 C74.9,170.933333 75.4,171.866667 75.6,172.8 C75.7333333,173.4 75.5833333,174.433333 75.15,175.9 C74.7166667,177.466667 74.2,178.4 73.6,178.7 C73,179.033333 72,178.666667 70.6,177.6 C69.1,176.5 68.3166667,175.316667 68.25,174.05" id="Shape" fill="#FFFFFF" sketch:type="MSShapeGroup"></path>
            <path d="M78.1,173.75 C77.1666667,172.75 77.25,171.233333 78.35,169.2 C79.45,167.166667 80.5333333,166.3 81.6,166.6 C82.6,166.933333 83.5666667,168.333333 84.5,170.8 C85.3666667,173.166667 85.5833333,174.683333 85.15,175.35 C84.75,175.95 83.7166667,176.083333 82.05,175.75 C80.35,175.383333 79.0333333,174.716667 78.1,173.75" id="Shape" fill="#FFFFFF" sketch:type="MSShapeGroup"></path>
            <path d="M95.1,164.65 C94.9666667,163.95 95.6166667,163.083333 97.05,162.05 C98.45,161.05 99.4666667,160.683333 100.1,160.95 C101.2,161.45 101.916667,162.85 102.25,165.15 C102.583333,167.383333 102.45,168.633333 101.85,168.9 C101.25,169.166667 100.066667,168.85 98.3,167.95 C96.4,166.95 95.3333333,165.85 95.1,164.65" id="Shape" fill="#FFFFFF" sketch:type="MSShapeGroup"></path>
            <path d="M108.65,168.05 C106.616667,167.35 105.433333,166.55 105.1,165.65 C104.8,164.883333 105.316667,163.783333 106.65,162.35 C107.983333,160.95 108.95,160.383333 109.55,160.65 C110.716667,161.15 111.533333,162.433333 112,164.5 C112.4,166.3 112.433333,167.533333 112.1,168.2 L108.65,168.05" id="Shape" fill="#FFFFFF" sketch:type="MSShapeGroup"></path>
            <path d="M114.1,163.9 C113.7,163.1 114.266667,161.95 115.8,160.45 C117.3,158.983333 118.383333,158.383333 119.05,158.65 C119.816667,158.983333 120.566667,160.2 121.3,162.3 C122,164.366667 122.183333,165.633333 121.85,166.1 L118.05,166 C115.85,165.466667 114.533333,164.766667 114.1,163.9" id="Shape" fill="#FFFFFF" sketch:type="MSShapeGroup"></path>
            <path d="M170.8,171.6 C170.333333,171.133333 170.7,169.933333 171.9,168 C173.1,166.033333 174.116667,165.066667 174.95,165.1 C176.05,165.166667 177.283333,166.366667 178.65,168.7 C179.95,170.9 180.45,172.2 180.15,172.6 C179.783333,173.066667 178.366667,173.216667 175.9,173.05 C173.333333,172.883333 171.633333,172.4 170.8,171.6" id="Shape" fill="#FFFFFF" sketch:type="MSShapeGroup"></path>
            <path d="M181.7,168.85 C181.233333,168.35 181.533333,167.1 182.6,165.1 C183.633333,163.1 184.533333,162.133333 185.3,162.2 C186.033333,162.266667 187.066667,163.433333 188.4,165.7 C189.666667,167.933333 190.183333,169.3 189.95,169.8 C189.65,170.3 188.433333,170.483333 186.3,170.35 C184.033333,170.216667 182.5,169.716667 181.7,168.85" id="Shape" fill="#FFFFFF" sketch:type="MSShapeGroup"></path>
            <path d="M190.05,164.25 C189.516667,163.583333 189.683333,162.316667 190.55,160.45 C191.383333,158.65 192.05,157.783333 192.55,157.85 C193.416667,157.95 194.483333,159.05 195.75,161.15 C196.983333,163.216667 197.45,164.516667 197.15,165.05 C196.916667,165.616667 195.866667,165.833333 194,165.7 C192.033333,165.566667 190.716667,165.083333 190.05,164.25" id="Shape" fill="#FFFFFF" sketch:type="MSShapeGroup"></path>
            <path d="M18.05,165.2 L20.25,167.95 C21.7166667,169.983333 22.5333333,171.566667 22.7,172.7 L19.2,170.9 C16.9,169.6 15.8166667,168.666667 15.95,168.1 C16.0833333,167.533333 16.4833333,166.883333 17.15,166.15 L18.05,165.2" id="Shape" fill="#DBDCDC" sketch:type="MSShapeGroup"></path>
            <path d="M29.3,165.4 L31.2,167.75 C32.5333333,169.616667 33.4166667,171.3 33.85,172.8 C29.75,171.366667 27.65,169.95 27.55,168.55 C27.4833333,167.683333 27.75,166.9 28.35,166.2 L29.3,165.4" id="Shape" fill="#DBDCDC" sketch:type="MSShapeGroup"></path>
            <path d="M45,171.6 C42.8666667,171.133333 41.3333333,170.666667 40.4,170.2 C39.3333333,169.7 38.7333333,169.083333 38.6,168.35 C38.4666667,167.716667 38.6,166.983333 39,166.15 L39.65,165.1 C40.55,165.533333 41.65,166.6 42.95,168.3 C44.05,169.766667 44.7333333,170.866667 45,171.6" id="Shape" fill="#DBDCDC" sketch:type="MSShapeGroup"></path>
            <path d="M60.3,169.45 L60.8,172.5 C61.2333333,174.8 61.7666667,176.6 62.4,177.9 L60.5,176.25 C59.2666667,174.883333 58.6833333,173.483333 58.75,172.05 C58.8166667,171.05 59.0666667,170.316667 59.5,169.85 C59.8333333,169.483333 60.1,169.35 60.3,169.45" id="Shape" fill="#DBDCDC" sketch:type="MSShapeGroup"></path>
            <path d="M69.3,171.05 L71.2,174.15 L73.7,178.75 C72.7666667,178.45 71.8333333,178.016667 70.9,177.45 C69.0333333,176.316667 68.1666667,175.1 68.3,173.8 C68.4333333,172.533333 68.6333333,171.7 68.9,171.3 L69.3,171.05" id="Shape" fill="#DBDCDC" sketch:type="MSShapeGroup"></path>
            <path d="M78.35,169.25 L80.7,171.5 C82.3666667,173.2 83.3833333,174.616667 83.75,175.75 L80.65,174.75 C78.5833333,173.95 77.5833333,173.166667 77.65,172.4 L78.05,170.15 L78.35,169.25" id="Shape" fill="#DBDCDC" sketch:type="MSShapeGroup"></path>
            <path d="M96.75,162.4 C97.05,162.6 97.6833333,163.35 98.65,164.65 C99.85,166.283333 100.516667,167.6 100.65,168.6 L97.05,166.9 C96.1166667,166.333333 95.6333333,165.616667 95.6,164.75 C95.5666667,164.116667 95.75,163.533333 96.15,163 L96.75,162.4" id="Shape" fill="#DBDCDC" sketch:type="MSShapeGroup"></path>
            <path d="M106.1,162.7 L107.75,163.85 C109.016667,165.016667 110.116667,166.55 111.05,168.45 L108.35,167.7 C106.516667,167.033333 105.5,166.266667 105.3,165.4 C105.1,164.533333 105.166667,163.833333 105.5,163.3 L106.1,162.7" id="Shape" fill="#DBDCDC" sketch:type="MSShapeGroup"></path>
            <path d="M115.5,160.7 L117.55,162.2 C119.016667,163.5 120.016667,164.85 120.55,166.25 L117.7,165.85 C115.7,165.35 114.516667,164.6 114.15,163.6 C113.95,163.133333 114.033333,162.55 114.4,161.85 C114.733333,161.183333 115.1,160.8 115.5,160.7" id="Shape" fill="#DBDCDC" sketch:type="MSShapeGroup"></path>
            <path d="M172.1,167.75 C174.9,169.083333 177.15,170.75 178.85,172.75 L175.1,172.8 C172.6,172.666667 171.3,172.166667 171.2,171.3 C171.1,170.433333 171.216667,169.583333 171.55,168.75 L172.1,167.75" id="Shape" fill="#DBDCDC" sketch:type="MSShapeGroup"></path>
            <path d="M182.55,165.6 C183.116667,165.766667 184.066667,166.266667 185.4,167.1 C187.2,168.2 188.316667,169.25 188.75,170.25 L185.25,170.1 C182.883333,169.833333 181.683333,169.316667 181.65,168.55 C181.583333,167.816667 181.716667,167.1 182.05,166.4 L182.55,165.6" id="Shape" fill="#DBDCDC" sketch:type="MSShapeGroup"></path>
            <path d="M190.45,160.7 L192.65,162.05 C194.283333,163.183333 195.416667,164.383333 196.05,165.65 L193.45,165.45 C191.65,165.183333 190.533333,164.733333 190.1,164.1 C189.666667,163.466667 189.6,162.7 189.9,161.8 L190.45,160.7" id="Shape" fill="#DBDCDC" sketch:type="MSShapeGroup"></path>
            <path d="M169.85,171.9 C169.583333,170.933333 170.116667,169.383333 171.45,167.25 C172.783333,165.083333 173.933333,163.983333 174.9,163.95 C175.866667,163.916667 177.216667,165.183333 178.95,167.75 C180.65,170.25 181.383333,171.95 181.15,172.85 C180.95,173.65 179.083333,173.9 175.55,173.6 C172.016667,173.3 170.116667,172.733333 169.85,171.9 M173.1,168 C172.266667,169.333333 171.933333,170.3 172.1,170.9 C172.433333,171.366667 173.616667,171.75 175.65,172.05 C177.616667,172.35 178.683333,172.333333 178.85,172 C179.016667,171.633333 178.566667,170.566667 177.5,168.8 C176.366667,167 175.483333,166.083333 174.85,166.05 C174.483333,166.016667 173.9,166.666667 173.1,168" id="Shape" fill="#0D131A" sketch:type="MSShapeGroup"></path>
            <path d="M188.9,169.4 C189.1,169.1 188.666667,168.033333 187.6,166.2 C186.566667,164.366667 185.783333,163.4 185.25,163.3 C184.85,163.266667 184.283333,163.966667 183.55,165.4 C182.783333,166.833333 182.466667,167.833333 182.6,168.4 C182.7,168.9 183.75,169.266667 185.75,169.5 L188.9,169.4 M185.5,161.05 C186.566667,161.183333 187.833333,162.666667 189.3,165.5 C190.7,168.2 191.25,169.866667 190.95,170.5 C190.65,171.166667 189.066667,171.366667 186.2,171.1 C183.266667,170.8 181.5,170.233333 180.9,169.4 C180.366667,168.666667 180.716667,167.083333 181.95,164.65 C183.183333,162.116667 184.366667,160.916667 185.5,161.05" id="Shape" fill="#0D131A" sketch:type="MSShapeGroup"></path>
            <path d="M191.2,161 C190.7,162.133333 190.6,163.066667 190.9,163.8 C191.033333,164.2 191.916667,164.516667 193.55,164.75 L196.2,164.6 C196.4,164.266667 196.05,163.3 195.15,161.7 C194.25,160 193.466667,159.166667 192.8,159.2 C192.233333,159.266667 191.7,159.866667 191.2,161 M190.1,159.75 C191.133333,157.85 192.016667,156.9 192.75,156.9 C193.983333,156.9 195.283333,158.283333 196.65,161.05 C197.983333,163.716667 198.45,165.383333 198.05,166.05 L193.6,166.2 C190.866667,165.866667 189.383333,165.4 189.15,164.8 C188.65,163.5 188.966667,161.816667 190.1,159.75" id="Shape" fill="#0D131A" sketch:type="MSShapeGroup"></path>
            <path d="M73.6,170.7 C73.0333333,170.033333 72.4833333,169.733333 71.95,169.8 C71.1833333,169.833333 70.5,170.316667 69.9,171.25 C69.3,172.15 69.05,173.016667 69.15,173.85 C69.25,174.616667 69.9,175.483333 71.1,176.45 C72.2666667,177.35 73.05,177.716667 73.45,177.55 C73.7166667,177.45 74,176.966667 74.3,176.1 C74.7,175.1 74.8333333,174.166667 74.7,173.3 C74.6,172.266667 74.2333333,171.4 73.6,170.7 M68.4,170.05 C69.5333333,168.383333 70.7666667,167.6 72.1,167.7 C73.0666667,167.766667 73.9333333,168.266667 74.7,169.2 C75.4666667,170.133333 75.95,171.283333 76.15,172.65 C76.3833333,173.983333 76.2833333,175.433333 75.85,177 C75.4166667,178.533333 74.8833333,179.416667 74.25,179.65 C73.45,179.95 72.1666667,179.516667 70.4,178.35 C68.5,177.05 67.4166667,175.633333 67.15,174.1 C66.95,172.933333 67.3666667,171.583333 68.4,170.05" id="Shape" fill="#0D131A" sketch:type="MSShapeGroup"></path>
            <path d="M64.05,170.6 C63.6166667,170 63.1333333,169.666667 62.6,169.6 C61.9666667,169.533333 61.3,169.8 60.6,170.4 C59.8666667,171 59.5,171.65 59.5,172.35 C59.5333333,173.216667 60.0166667,174.25 60.95,175.45 C61.7833333,176.583333 62.4,177.15 62.8,177.15 C63.1666667,177.116667 63.5666667,176.633333 64,175.7 C64.4666667,174.766667 64.7166667,173.833333 64.75,172.9 C64.7833333,172.033333 64.55,171.266667 64.05,170.6 M58.9,168.95 C60.1333333,167.85 61.4166667,167.383333 62.75,167.55 C63.85,167.683333 64.8,168.283333 65.6,169.35 C66.3666667,170.416667 66.7166667,171.6 66.65,172.9 C66.6166667,173.966667 66.2,175.333333 65.4,177 C64.5333333,178.733333 63.7833333,179.633333 63.15,179.7 C62.4166667,179.8 61.2666667,178.95 59.7,177.15 C58.0333333,175.283333 57.1666667,173.7 57.1,172.4 C57.0333333,171.166667 57.6333333,170.016667 58.9,168.95" id="Shape" fill="#0D131A" sketch:type="MSShapeGroup"></path>
            <path d="M83.3,169.6 C82.5333333,168.533333 81.8333333,168 81.2,168 C80.5666667,167.933333 79.9333333,168.4 79.3,169.4 C78.6333333,170.433333 78.3833333,171.4 78.55,172.3 C78.7166667,173.1 79.65,173.8 81.35,174.4 C82.9833333,174.933333 83.9333333,175.083333 84.2,174.85 C84.4333333,174.65 84.4833333,173.95 84.35,172.75 C84.2166667,171.45 83.8666667,170.4 83.3,169.6 M81.55,165.8 C83.1833333,166.033333 84.4666667,167.75 85.4,170.95 C86.2666667,173.95 86.4333333,175.75 85.9,176.35 L81.2,176.05 C78.4,175.283333 76.8833333,174.283333 76.65,173.05 C76.3833333,171.683333 76.7666667,170.116667 77.8,168.35 C78.9333333,166.45 80.1833333,165.6 81.55,165.8" id="Shape" fill="#0D131A" sketch:type="MSShapeGroup"></path>
            <path d="M46.7,166.65 C47.5333333,169.85 47.6166667,171.65 46.95,172.05 C46.0833333,172.55 44.3833333,172.45 41.85,171.75 C39.2166667,171.016667 37.75,170.133333 37.45,169.1 C37.05,167.866667 37.5166667,166.283333 38.85,164.35 C40.2166667,162.35 41.5833333,161.4 42.95,161.5 C44.55,161.6 45.8,163.316667 46.7,166.65 M39.55,168.3 C39.65,169 40.5666667,169.633333 42.3,170.2 C43.9666667,170.733333 44.9833333,170.833333 45.35,170.5 C45.6166667,170.266667 45.4666667,169.15 44.9,167.15 C44.3,165.016667 43.6,163.883333 42.8,163.75 C42.1333333,163.65 41.4,164.1 40.6,165.1 C39.7,166.166667 39.35,167.233333 39.55,168.3" id="Shape" fill="#0D131A" sketch:type="MSShapeGroup"></path>
            <path d="M28.5,168.6 C28.5,169.366667 29.4166667,170.166667 31.25,171 C33.05,171.8 34.0833333,172.016667 34.35,171.65 C34.65,171.283333 34.5666667,170.2 34.1,168.4 C33.6,166.466667 32.95,165.416667 32.15,165.25 C31.3833333,165.083333 30.5833333,165.433333 29.75,166.3 C28.9833333,167.1 28.5666667,167.833333 28.5,168.5 L28.5,168.6 M28.45,164.65 C29.8833333,163.316667 31.15,162.75 32.25,162.95 C33.9166667,163.25 35.1166667,165 35.85,168.2 C36.55,171.233333 36.5666667,173.033333 35.9,173.6 C35.2666667,174.2 33.5,173.866667 30.6,172.6 C27.5666667,171.333333 26.1166667,169.9 26.25,168.3 C26.35,167.166667 27.0833333,165.95 28.45,164.65" id="Shape" fill="#0D131A" sketch:type="MSShapeGroup"></path>
            <path d="M115.1,163.2 C115.2,163.866667 116.166667,164.5 118,165.1 C119.766667,165.666667 120.766667,165.8 121,165.5 C121.233333,165.2 121.083333,164.166667 120.55,162.4 C119.983333,160.533333 119.366667,159.566667 118.7,159.5 C118.133333,159.433333 117.366667,159.866667 116.4,160.8 C115.433333,161.766667 115,162.566667 115.1,163.2 M115.15,159.85 C116.883333,158.183333 118.25,157.516667 119.25,157.85 C120.516667,158.316667 121.55,159.9 122.35,162.6 C123.116667,165.166667 123.25,166.683333 122.75,167.15 C122.25,167.583333 120.616667,167.433333 117.85,166.7 C115.016667,165.933333 113.433333,165.083333 113.1,164.15 C112.7,162.983333 113.383333,161.55 115.15,159.85" id="Shape" fill="#0D131A" sketch:type="MSShapeGroup"></path>
            <path d="M108.75,167.2 C110.216667,167.7 111.066667,167.833333 111.3,167.6 C111.533333,167.366667 111.483333,166.416667 111.15,164.75 C110.783333,162.983333 110.266667,162.016667 109.6,161.85 C108.933333,161.683333 108.15,162.05 107.25,162.95 C106.35,163.883333 105.983333,164.7 106.15,165.4 C106.35,166.1 107.216667,166.7 108.75,167.2 M110,160 C111.1,160.266667 112.016667,161.716667 112.75,164.35 C113.416667,166.916667 113.483333,168.6 112.95,169.4 C112.616667,169.9 111.133333,169.683333 108.5,168.75 C105.766667,167.783333 104.3,166.766667 104.1,165.7 C103.866667,164.633333 104.5,163.35 106,161.85 C107.533333,160.316667 108.866667,159.7 110,160" id="Shape" fill="#0D131A" sketch:type="MSShapeGroup"></path>
            <path d="M98.65,167.1 C100.116667,167.9 101,168.2 101.3,168 C101.566667,167.833333 101.6,166.866667 101.4,165.1 C101.166667,163.233333 100.7,162.183333 100,161.95 C99.3333333,161.716667 98.5333333,161.95 97.6,162.65 C96.7,163.316667 96.2666667,163.983333 96.3,164.65 C96.3333333,165.45 97.1166667,166.266667 98.65,167.1 M100.55,160.1 C101.95,160.4 102.783333,162.05 103.05,165.05 C103.283333,167.883333 103.116667,169.5 102.55,169.9 C101.916667,170.3 100.35,169.833333 97.85,168.5 C95.3166667,167.1 94,165.883333 93.9,164.85 C93.8,163.883333 94.5166667,162.783333 96.05,161.55 C97.6833333,160.283333 99.1833333,159.8 100.55,160.1" id="Shape" fill="#0D131A" sketch:type="MSShapeGroup"></path>
            <path d="M19.85,170.25 C21.6166667,171.15 22.6333333,171.433333 22.9,171.1 C23.2,170.766667 23.15,169.716667 22.75,167.95 C22.3166667,166.116667 21.8,165.116667 21.2,164.95 C20.5,164.716667 19.65,164.983333 18.65,165.75 C17.65,166.516667 17.15,167.266667 17.15,168 C17.1833333,168.566667 18.0833333,169.316667 19.85,170.25 M21.65,162.7 C23.0833333,163 24.1,164.75 24.7,167.95 C25.2666667,171.016667 25.25,172.733333 24.65,173.1 C23.6166667,173.8 21.75,173.433333 19.05,172 C16.3833333,170.6 15,169.35 14.9,168.25 C14.7666667,166.983333 15.55,165.666667 17.25,164.3 C18.9166667,162.966667 20.3833333,162.433333 21.65,162.7" id="Shape" fill="#0D131A" sketch:type="MSShapeGroup"></path>
        </g>
    </g>
</svg>