<?xml version="1.0" encoding="UTF-8" standalone="no"?>
<svg width="350px" height="350px" viewBox="0 0 350 350" version="1.1" xmlns="http://www.w3.org/2000/svg" xmlns:xlink="http://www.w3.org/1999/xlink" xmlns:sketch="http://www.bohemiancoding.com/sketch/ns">
    <!-- Generator: Sketch 3.3.3 (12081) - http://www.bohemiancoding.com/sketch -->
    <title>pirate</title>
    <desc>Created with Sketch.</desc>
    <defs></defs>
    <g id="Page-1" stroke="none" stroke-width="1" fill="none" fill-rule="evenodd" sketch:type="MSPage">
        <g id="pirate" sketch:type="MSArtboardGroup">
            <g sketch:type="MSLayerGroup" transform="translate(63.000000, 127.000000)" id="Arrrberser">
                <g sketch:type="MSShapeGroup">
                    <g id="Group">
                        <g id="Berlberser-Minus-Left-Eye">
                            <path d="M150.494318,47.8636364 L31.3977273,140.0625 C30.1704545,140.198864 28.3465909,139.892045 25.9261364,139.142045 C22.8920455,138.1875 20.0113636,136.772727 17.2840909,134.897727 C9.51136364,129.579545 4.80681818,121.943182 3.17045455,111.988636 C1.56818182,102.443182 3.03409091,92.1988636 7.56818182,81.2556818 C9.06818182,77.6420455 10.9090909,73.9090909 13.0909091,70.0568182 L17.0795455,63.3579545 C20.3181818,57.5965909 22.9943182,51.9034091 25.1079545,46.2784091 C28.6193182,36.8693182 29.5738636,29.9147727 27.9715909,25.4147727 L29.6079545,25.6193182 C30.8352273,25.8579545 31.8238636,26.3011364 32.5738636,26.9488636 C32.4715909,25.8579545 32.1818182,24.5795455 31.7045455,23.1136364 C30.7159091,20.1136364 29.3011364,17.5909091 27.4602273,15.5454545 L32.9829545,14.7784091 C37.6534091,14.8125 42.3920455,16.1420455 47.1988636,18.7670455 L46.8409091,15.9545455 C46.7045455,14.0454545 46.8920455,12.9886364 47.4034091,12.7840909 C48.1875,12.4772727 49.3125,13.2272727 50.7784091,15.0340909 C50.8125,13.5340909 51.1363636,11.8295455 51.75,9.92045455 C52.9431818,6.17045455 54.9545455,3.34090909 57.7840909,1.43181818 L60.5965909,6.59659091 C63.2215909,10.3125 66.4261364,12.8863636 70.2102273,14.3181818 C73.5170455,15.6136364 81.0170455,16.6022727 92.7102273,17.2840909 C104.028409,17.9659091 112.005682,19.3636364 116.642045,21.4772727 L121.551136,21.8863636 C125.539773,22.3977273 129.221591,23.3352273 132.596591,24.6988636 C143.471591,29.0965909 149.4375,36.8181818 150.494318,47.8636364" id="Shape" fill="#68AE28"></path>
                            <path d="M6.69886364,122.011364 C-1.00568182,107.488636 0.835227273,90.8011364 12.2215909,71.9488636 C6.46022727,87.1875 8.40340909,99.375 18.0511364,108.511364 C22.2443182,112.465909 27.5284091,115.363636 33.9034091,117.204545 C40.1420455,118.977273 46.7556818,119.556818 53.7443182,118.943182 L29.9147727,140.471591 C26.4375,140.164773 22.5681818,138.477273 18.3068182,135.409091 C13.4318182,131.829545 9.5625,127.363636 6.69886364,122.011364" id="Shape" fill="#56931F"></path>
                            <path d="M197.232955,41.1136364 C200.267045,42.4431818 202.909091,46.9602273 205.159091,54.6647727 C207.170455,61.6534091 207.852273,66.5965909 207.204545,69.4943182 C211.227273,74.1647727 215.147727,83.2840909 218.965909,96.8522727 C223.295455,112.056818 224.028409,123.119318 221.164773,130.039773 C220.244318,132.255682 217.551136,135.272727 213.085227,139.090909 C208.448864,143.113636 203.863636,146.215909 199.329545,148.397727 L201.630682,152.130682 C203.471591,155.403409 205.125,158.931818 206.590909,162.715909 C211.261364,174.920455 213.204545,187.568182 212.420455,200.659091 C212.181818,204.818182 208.738636,208.227273 202.090909,210.886364 C195.579545,213.443182 188.642045,214.295455 181.278409,213.443182 C178.789773,213.102273 175.5,210.1875 171.409091,204.698864 C166.738636,198.323864 163.960227,191.710227 163.073864,184.857955 C156.835227,188.471591 151.568182,190.909091 147.272727,192.170455 L145.943182,194.420455 C144.784091,196.261364 143.420455,197.965909 141.852273,199.534091 C136.909091,204.579545 131.0625,207.392045 124.3125,207.971591 C117.596591,208.551136 112.380682,208.022727 108.664773,206.386364 C107.505682,205.875 106.551136,205.278409 105.801136,204.596591 L105.085227,203.727273 L64.2272727,205.107955 L60.0340909,208.789773 C56.2840909,211.278409 51.9545455,212.590909 47.0454545,212.727273 C40.3295455,212.931818 35.0454545,212.318182 31.1931818,210.886364 C26.3522727,209.045455 22.9090909,205.6875 20.8636364,200.8125 C17.8977273,193.789773 16.3295455,185.744318 16.1590909,176.676136 C15.9204545,164.880682 18.5625,155.232955 24.0852273,147.732955 C29.4034091,140.505682 36.3409091,133.142045 44.8977273,125.642045 C47.2840909,123.5625 53.7784091,118.278409 64.3806818,109.789773 C69.8011364,105.494318 74.625,101.335227 78.8522727,97.3125 C83.1477273,93.2215909 85.7556818,90.2897727 86.6761364,88.5170455 C87.6647727,81.7329545 88.9602273,74.8465909 90.5625,67.8579545 C93.8011364,53.8806818 96.9375,46.4147727 99.9715909,45.4602273 C103.005682,44.5397727 107.471591,45.5113636 113.369318,48.375 C116.301136,49.8409091 118.926136,51.375 121.244318,52.9772727 L124.721591,51.75 C127.789773,50.8295455 131.147727,50.0454545 134.795455,49.3977273 C146.454545,47.3863636 158.829545,47.2670455 171.920455,49.0397727 C173.897727,46.9261364 178.261364,44.8806818 185.011364,42.9034091 C191.522727,40.9943182 195.596591,40.3977273 197.232955,41.1136364 L135.615234,115.148704" id="Shape" fill="#7CBEB3"></path>
                            <path d="M206.488636,61.4659091 L207.511364,69.4943182 L202.244318,61.6704545 C202.789773,59.3863636 203.028409,56.3011364 202.960227,52.4147727 L202.653409,47.3011364 C204.221591,50.6761364 205.5,55.3977273 206.488636,61.4659091" id="Shape" fill="#68A198"></path>
                            <path d="M89.3863636,70.5170455 C92.1477273,57.8352273 94.8579545,50.5056818 97.5170455,48.5284091 C96.8693182,55.8920455 96.6477273,63.1704545 96.8522727,70.3636364 C96.9886364,74.5909091 97.4318182,81.0340909 98.1818182,89.6931818 C98.625,94.8409091 98.0965909,99.4090909 96.5965909,103.397727 C95.2670455,106.875 93.5284091,109.244318 91.3806818,110.505682 C89.2670455,111.732955 87.5284091,111.460227 86.1647727,109.6875 C84.6988636,107.744318 84.2045455,104.403409 84.6818182,99.6647727 C85.6363636,90.2215909 87.2045455,80.5056818 89.3863636,70.5170455" id="Shape" fill="#68A198"></path>
                            <path d="M181.6875,200.505682 C184.3125,205.414773 187.448864,208.482955 191.096591,209.710227 L189.153409,213.596591 C184.005682,214.619318 179.454545,213.272727 175.5,209.556818 C170.761364,205.022727 166.568182,196.789773 162.920455,184.857955 C157.022727,188.4375 150.477273,191.113636 143.284091,192.886364 C136.193182,194.659091 127.670455,195.732955 117.715909,196.107955 C116.147727,196.619318 115.005682,197.710227 114.289773,199.380682 C113.573864,200.982955 113.556818,202.431818 114.238636,203.727273 L111.375,207.102273 L105.238636,203.369318 C105.409091,202.210227 106.363636,198.75 108.102273,192.988636 C109.806818,187.465909 110.880682,182.676136 111.323864,178.619318 C112.619318,166.482955 109.244318,155.505682 101.198864,145.6875 C108.357955,152.880682 120.903409,157.397727 138.835227,159.238636 C157.994318,161.181818 174.272727,159.443182 187.670455,154.022727 C183.375,156.784091 180.306818,161.079545 178.465909,166.909091 C176.829545,172.159091 176.335227,177.971591 176.982955,184.346591 C177.630682,190.482955 179.198864,195.869318 181.6875,200.505682" id="Shape" fill="#68A198"></path>
                            <path d="M15.6477273,171.153409 C17.1136364,183.119318 23.6590909,190.806818 35.2840909,194.215909 C39.75,195.511364 44.4545455,195.988636 49.3977273,195.647727 C53.8977273,195.340909 57.5965909,194.454545 60.4943182,192.988636 L64.2272727,205.568182 C61.5681818,208.159091 57.9886364,210.1875 53.4886364,211.653409 C44.4886364,214.585227 35.4375,213.306818 26.3352273,207.818182 C21.9375,205.159091 18.7840909,198.409091 16.875,187.568182 C16.2613636,183.920455 15.8522727,180.221591 15.6477273,176.471591 C15.4772727,173.335227 15.4772727,171.5625 15.6477273,171.153409" id="Shape" fill="#68A198"></path>
                            <path d="M202.704545,85.2443182 C206.965909,88.7215909 209.505682,93.9204545 210.323864,100.840909 C210.835227,105.170455 210.630682,111.255682 209.710227,119.096591 C208.210227,119.676136 206.761364,120.068182 205.363636,120.272727 C203.931818,120.511364 202.857955,120.511364 202.142045,120.272727 C200.130682,119.625 199.125,114.477273 199.125,104.829545 C199.090909,94.9772727 200.284091,88.4488636 202.704545,85.2443182" id="Shape" fill="#D60040"></path>
                            <path d="M202.704545,85.2443182 C203.318182,84.3920455 203.965909,83.8977273 204.647727,83.7613636 C207.954545,83.0454545 211.159091,87.0852273 214.261364,95.8806818 C217.295455,104.607955 217.892045,110.846591 216.051136,114.596591 C215.198864,116.369318 213.085227,117.869318 209.710227,119.096591 C210.630682,111.255682 210.835227,105.170455 210.323864,100.840909 C209.505682,93.9204545 206.965909,88.7215909 202.704545,85.2443182" id="Shape" fill="#FFFFFF"></path>
                            <path d="M172.6875,80.0284091 C171.698864,80.4034091 169.125,79.3636364 164.965909,76.9090909 C160.602273,74.3863636 158.505682,72.3238636 158.676136,70.7215909 C158.914773,68.6079545 162.443182,65.6931818 169.261364,61.9772727 C176.181818,58.2272727 180.784091,56.8465909 183.068182,57.8352273 C184.534091,58.4488636 183.767045,62.0625 180.767045,68.6761364 C177.732955,75.3238636 175.039773,79.1079545 172.6875,80.0284091" id="Shape" fill="#006359"></path>
                            <path d="M149.931818,84.4261364 C149.829545,83.9829545 150.340909,83.1477273 151.465909,81.9204545 C152.625,80.6590909 153.664773,79.9090909 154.585227,79.6704545 L155.710227,81.2556818 C156.664773,82.8579545 157.619318,85.1079545 158.573864,88.0056818 L157.909091,89.5909091 C157.261364,90.75 156.460227,91.5511364 155.505682,91.9943182 L153.051136,89.6420455 C151.346591,87.7670455 150.306818,86.0284091 149.931818,84.4261364" id="Shape" fill="#006359"></path>
                            <path d="M189.460227,95.5738636 C190.517045,101.607955 190.602273,104.982955 189.715909,105.698864 C188.931818,106.346591 186.545455,106.090909 182.556818,104.931818 C178.534091,103.772727 176.25,102.647727 175.704545,101.556818 C175.875,99.0340909 177.170455,95.8806818 179.590909,92.0965909 C182.079545,88.3125 184.090909,86.4204545 185.625,86.4204545 C187.125,86.4204545 188.403409,89.4715909 189.460227,95.5738636" id="Shape" fill="#006359"></path>
                            <path d="M192.528409,184.5 C192.392045,182.556818 193.585227,179.778409 196.107955,176.164773 C198.5625,172.619318 200.335227,170.914773 201.426136,171.051136 C203.0625,171.221591 204.1875,174.647727 204.801136,181.329545 C205.380682,188.045455 204.852273,191.676136 203.215909,192.221591 C201.409091,192.835227 199.244318,192.494318 196.721591,191.198864 C193.823864,189.664773 192.426136,187.431818 192.528409,184.5" id="Shape" fill="#006359"></path>
                            <path d="M30.4261364,155.761364 L38.8636364,156.119318 C42.6477273,156.869318 44.8295455,157.704545 45.4090909,158.625 C46.3636364,160.159091 45.7329545,163.397727 43.5170455,168.340909 C41.3352273,173.25 39.4943182,175.772727 37.9943182,175.909091 C36.6988636,176.011364 34.0738636,174.715909 30.1193182,172.022727 C26.1306818,169.329545 24.1534091,167.454545 24.1875,166.397727 C24.2215909,165.034091 24.8863636,163.090909 26.1818182,160.568182 C27.6136364,157.738636 29.0284091,156.136364 30.4261364,155.761364" id="Shape" fill="#006359"></path>
                            <path d="M79.0568182,111.9375 C79.9431818,113.471591 78.5113636,117.732955 74.7613636,124.721591 C71.0113636,131.710227 68.1306818,135.426136 66.1193182,135.869318 C64.2784091,136.3125 61.2784091,135.511364 57.1193182,133.465909 C53.1988636,131.590909 50.5909091,129.869318 49.2954545,128.301136 C48.8863636,127.789773 49.1590909,126.289773 50.1136364,123.801136 L51.6477273,120.170455 L58.5,114.75 C63.1363636,111.102273 65.7272727,109.210227 66.2727273,109.073864 L72.6647727,109.636364 C76.4147727,110.284091 78.5454545,111.051136 79.0568182,111.9375" id="Shape" fill="#006359"></path>
                            <path d="M200.301136,94.7556818 L201.323864,90.1534091 C201.732955,89.6079545 202.125,89.3522727 202.5,89.3863636 C203.113636,89.4204545 203.693182,90.0852273 204.238636,91.3806818 C205.022727,93.1193182 205.448864,95.5738636 205.517045,98.7443182 C205.551136,101.744318 205.278409,104.079545 204.698864,105.75 C204.153409,107.25 203.471591,108 202.653409,108 C202.142045,108 201.630682,107.625 201.119318,106.875 C200.573864,106.056818 200.198864,104.982955 199.994318,103.653409 C199.585227,101.301136 199.6875,98.3352273 200.301136,94.7556818" id="Shape" fill="#FFFFFF"></path>
                            <path d="M178.517045,51.3920455 C169.176136,49.5852273 159.715909,48.8863636 150.136364,49.2954545 C139.840909,49.7045455 130.380682,51.375 121.755682,54.3068182 C121.448864,54.4090909 121.022727,54.0681818 120.477273,53.2840909 C119.897727,52.5 119.761364,52.0397727 120.068182,51.9034091 C129.852273,48.5965909 140.454545,46.8238636 151.875,46.5852273 C161.897727,46.3465909 171.051136,47.2840909 179.335227,49.3977273 C183.5625,50.4886364 185.573864,51.2897727 185.369318,51.8011364 L178.517045,51.3920455" id="Shape" fill="#0D131A"></path>
                            <path d="M206.130682,65.6590909 C213.051136,75.6818182 218.096591,87.3068182 221.267045,100.534091 C224.028409,112.056818 224.710227,120.971591 223.3125,127.278409 C221.778409,134.267045 214.142045,141.426136 200.403409,148.755682 C186.767045,156.051136 173.590909,160.090909 160.875,160.875 C147.272727,161.693182 134.471591,160.568182 122.471591,157.5 C110.471591,154.431818 102.732955,150.289773 99.2556818,145.073864 C98.1306818,143.369318 97.7727273,142.329545 98.1818182,141.954545 C98.625,141.579545 99.6306818,142.244318 101.198864,143.948864 C105.801136,148.994318 114,152.846591 125.795455,155.505682 C137.011364,158.028409 148.721591,158.914773 160.926136,158.164773 C173.676136,157.380682 186.545455,153.375 199.534091,146.147727 C212.011364,139.193182 218.931818,132.613636 220.295455,126.409091 C221.727273,119.965909 221.130682,111.272727 218.505682,100.329545 C215.573864,88.0909091 210.886364,77.0795455 204.443182,67.2954545 C201.784091,63.2386364 200.744318,60.9886364 201.323864,60.5454545 C201.869318,60.1022727 203.471591,61.8068182 206.130682,65.6590909" id="Shape" fill="#0D131A"></path>
                            <path d="M87.6477273,89.0795455 C85.3977273,93.3068182 80.8465909,98.3352273 73.9943182,104.164773 C69.9034091,107.607955 63.0170455,113.0625 53.3352273,120.528409 C44.5056818,127.551136 37.6875,133.738636 32.8806818,139.090909 C26.2670455,146.454545 21.8693182,153.698864 19.6875,160.823864 C17.0625,169.380682 16.9261364,178.994318 19.2784091,189.664773 C21.4602273,199.721591 24.5625,205.926136 28.5852273,208.278409 C32.9147727,210.801136 38.7443182,211.909091 46.0738636,211.602273 C53.6420455,211.295455 58.875,209.522727 61.7727273,206.284091 C66.2386364,201.272727 67.9772727,193.159091 66.9886364,181.943182 C65.9659091,170.488636 62.4886364,161.352273 56.5568182,154.534091 C54.2386364,151.840909 53.25,150.204545 53.5909091,149.625 C53.9318182,149.045455 55.3806818,150.119318 57.9375,152.846591 C65.4034091,160.857955 69.5625,170.659091 70.4147727,182.25 C71.1988636,193.261364 68.8977273,201.784091 63.5113636,207.818182 C60.2727273,211.465909 54.4431818,213.511364 46.0227273,213.954545 C37.875,214.397727 31.4147727,213.221591 26.6420455,210.426136 C21.8011364,207.596591 18.2556818,200.914773 16.0056818,190.380682 C13.7215909,179.539773 13.9431818,169.517045 16.6704545,160.3125 C18.75,153.357955 22.8579545,146.386364 28.9943182,139.397727 C33.4602273,134.284091 39.9204545,128.301136 48.375,121.448864 L69.3409091,104.471591 C76.9090909,97.9602273 82.5511364,91.9772727 86.2670455,86.5227273 C86.4375,86.2840909 86.7443182,86.5738636 87.1875,87.3920455 C87.6647727,88.2443182 87.8181818,88.8068182 87.6477273,89.0795455" id="Shape" fill="#0D131A"></path>
                            <path d="M100.176136,43.9261364 C102.289773,43.2443182 105.852273,43.9261364 110.863636,45.9715909 C115.909091,48.0511364 120.051136,50.5909091 123.289773,53.5909091 C125.846591,55.9772727 126.835227,57.3238636 126.255682,57.6306818 C125.710227,57.9715909 124.142045,57.1363636 121.551136,55.125 C118.210227,52.6022727 114.340909,50.4715909 109.943182,48.7329545 C105.647727,46.9943182 102.767045,46.3806818 101.301136,46.8920455 C98.9147727,47.6761364 96.1534091,53.7272727 93.0170455,65.0454545 C89.7102273,77.0113636 87.5625,89.5568182 86.5738636,102.681818 C86.3011364,106.465909 85.8238636,108.204545 85.1420455,107.897727 C84.4261364,107.590909 84.1363636,105.801136 84.2727273,102.528409 C84.7159091,91.1761364 86.4204545,79.2954545 89.3863636,66.8863636 C92.7613636,52.8409091 96.3579545,45.1875 100.176136,43.9261364" id="Shape" fill="#0D131A"></path>
                            <path d="M170.284091,48.3238636 C173.25,46.0738636 177.801136,43.9261364 183.9375,41.8806818 C190.857955,39.5625 195.664773,39.0170455 198.357955,40.2443182 C201.017045,41.4375 203.4375,45.4431818 205.619318,52.2613636 C207.630682,58.6022727 208.755682,64.9772727 208.994318,71.3863636 C208.994318,71.6931818 208.568182,71.3693182 207.715909,70.4147727 C206.829545,69.4602273 206.386364,68.8125 206.386364,68.4715909 C206.181818,63.2897727 204.988636,57.8352273 202.806818,52.1079545 C200.727273,46.6534091 198.801136,43.5170455 197.028409,42.6988636 C195.357955,41.9488636 191.539773,42.4261364 185.573864,44.1306818 C179.539773,45.8352273 175.244318,47.6590909 172.6875,49.6022727 C172.448864,49.8068182 171.920455,49.7045455 171.102273,49.2954545 C170.318182,48.8522727 170.045455,48.5284091 170.284091,48.3238636" id="Shape" fill="#0D131A"></path>
                            <path d="M172.176136,78.5965909 C173.846591,78.5625 176.181818,75.375 179.181818,69.0340909 C182.147727,62.7954545 183.255682,59.4886364 182.505682,59.1136364 C180.835227,58.2613636 176.693182,59.5056818 170.079545,62.8465909 C163.431818,66.1875 160.090909,68.7613636 160.056818,70.5681818 C160.022727,71.6931818 161.488636,73.2784091 164.454545,75.3238636 C167.488636,77.3693182 170.0625,78.4602273 172.176136,78.5965909 M168.085227,61.4659091 C175.346591,57.5454545 180.528409,55.875 183.630682,56.4545455 C184.6875,56.6590909 184.994318,58.0568182 184.551136,60.6477273 C184.142045,63.0340909 183.221591,65.8295455 181.789773,69.0340909 C178.210227,77.0113636 175.005682,80.9318182 172.176136,80.7954545 C169.926136,80.6590909 166.926136,79.3636364 163.176136,76.9090909 C159.255682,74.3522727 157.295455,72.1875 157.295455,70.4147727 C157.295455,68.3352273 160.892045,65.3522727 168.085227,61.4659091" id="Shape" fill="#0D131A"></path>
                            <path d="M157.551136,88.3125 C157.653409,88.0397727 157.278409,86.7784091 156.426136,84.5284091 C155.573864,82.2443182 154.960227,81.0852273 154.585227,81.0511364 C154.278409,81.0170455 153.596591,81.4772727 152.539773,82.4318182 C151.482955,83.3863636 150.954545,84.1022727 150.954545,84.5795455 C150.988636,85.0227273 151.704545,86.1818182 153.102273,88.0568182 C154.5,89.8636364 155.318182,90.7670455 155.556818,90.7670455 C155.761364,90.7670455 156.119318,90.4261364 156.630682,89.7443182 L157.551136,88.3125 M157.653409,82.9431818 C158.710227,85.4659091 159.255682,87.1875 159.289773,88.1079545 C159.323864,88.8579545 158.778409,89.8806818 157.653409,91.1761364 C156.494318,92.5056818 155.625,93.0340909 155.045455,92.7613636 C154.363636,92.4545455 153.1875,91.1931818 151.517045,88.9772727 C149.710227,86.625 148.875,85.0056818 149.011364,84.1193182 C149.147727,83.1988636 149.948864,82.0397727 151.414773,80.6420455 C152.880682,79.3125 153.988636,78.6647727 154.738636,78.6988636 C155.522727,78.7670455 156.494318,80.1818182 157.653409,82.9431818" id="Shape" fill="#0D131A"></path>
                            <path d="M185.267045,87.9034091 C184.210227,87.8352273 182.471591,89.8295455 180.051136,93.8863636 C177.698864,97.9090909 176.659091,100.3125 176.931818,101.096591 C177.204545,101.8125 179.130682,102.681818 182.710227,103.704545 C186.323864,104.727273 188.386364,105 188.897727,104.522727 C189.681818,103.772727 189.528409,100.823864 188.4375,95.6761364 C187.346591,90.5625 186.289773,87.9715909 185.267045,87.9034091 M178.3125,92.1988636 C181.278409,87.0852273 183.613636,84.6136364 185.318182,84.7840909 C187.465909,84.9886364 189.1875,88.5340909 190.482955,95.4204545 C191.744318,102.272727 191.642045,106.056818 190.176136,106.772727 C188.914773,107.420455 186.136364,107.028409 181.840909,105.596591 C177.613636,104.198864 175.295455,103.005682 174.886364,102.017045 C174.238636,100.551136 175.380682,97.2784091 178.3125,92.1988636" id="Shape" fill="#0D131A"></path>
                            <path d="M212.676136,94.7045455 C210.119318,88.3636364 207.545455,85.1931818 204.954545,85.1931818 C202.670455,85.1931818 201.272727,90.5965909 200.761364,101.403409 C200.25,112.142045 200.897727,118.039773 202.704545,119.096591 C203.897727,119.778409 206.147727,119.403409 209.454545,117.971591 C212.761364,116.539773 214.551136,115.193182 214.823864,113.931818 C216.153409,107.897727 215.4375,101.488636 212.676136,94.7045455 M198.357955,100.534091 C198.9375,88.7386364 201.136364,82.8409091 204.954545,82.8409091 C208.261364,82.8409091 211.465909,86.3693182 214.568182,93.4261364 C217.806818,100.857955 218.710227,107.795455 217.278409,114.238636 C216.767045,116.420455 214.244318,118.363636 209.710227,120.068182 C205.3125,121.738636 202.517045,122.0625 201.323864,121.039773 C200.198864,120.119318 199.363636,117.596591 198.818182,113.471591 C198.272727,109.517045 198.119318,105.204545 198.357955,100.534091" id="Shape" fill="#0D131A"></path>
                            <path d="M65.7102273,108.102273 L74.6590909,108.664773 C78.1363636,109.278409 80.1306818,110.079545 80.6420455,111.068182 C81.5625,112.943182 79.8920455,117.75 75.6306818,125.488636 C71.3693182,133.295455 68.1136364,137.198864 65.8636364,137.198864 C63.7159091,137.198864 60.2045455,136.125 55.3295455,133.977273 C50.1818182,131.727273 47.6079545,129.886364 47.6079545,128.454545 C47.6079545,127.636364 47.9829545,126.409091 48.7329545,124.772727 L51.1875,119.965909 C51.3579545,119.693182 51.8181818,119.522727 52.5681818,119.454545 C53.3522727,119.420455 53.6590909,119.539773 53.4886364,119.8125 C52.5681818,121.517045 51.8352273,123.170455 51.2897727,124.772727 C50.8125,126.170455 50.5738636,127.176136 50.5738636,127.789773 C50.7102273,128.710227 52.9090909,130.125 57.1704545,132.034091 C61.3295455,133.909091 64.2102273,134.863636 65.8125,134.897727 C67.3125,134.420455 69.7670455,130.943182 73.1761364,124.465909 C76.5852273,117.988636 78.0511364,114.034091 77.5738636,112.602273 C77.3011364,112.022727 75.8352273,111.477273 73.1761364,110.965909 L65.25,110.403409 C64.9090909,110.4375 64.8238636,110.0625 64.9943182,109.278409 C65.1647727,108.528409 65.4034091,108.136364 65.7102273,108.102273" id="Shape" fill="#0D131A"></path>
                            <path d="M30.8863636,156.681818 C29.8295455,157.193182 28.6193182,158.607955 27.2556818,160.926136 C25.8920455,163.210227 25.2613636,164.795455 25.3636364,165.681818 C25.5,166.602273 27.3068182,168.289773 30.7840909,170.744318 C34.2613636,173.198864 36.5113636,174.357955 37.5340909,174.221591 C38.5568182,174.085227 40.1420455,171.732955 42.2897727,167.164773 C44.4375,162.596591 45.2386364,160.022727 44.6931818,159.443182 C44.0795455,158.829545 41.8465909,158.113636 37.9943182,157.295455 C34.0738636,156.477273 31.7045455,156.272727 30.8863636,156.681818 M25.2102273,159.596591 C26.8125,156.9375 28.3295455,155.232955 29.7613636,154.482955 L38.6079545,154.892045 C43.5170455,155.8125 46.3806818,156.920455 47.1988636,158.215909 C47.9488636,159.409091 47.0965909,162.75 44.6420455,168.238636 C42.1875,173.693182 40.1761364,176.710227 38.6079545,177.289773 C37.4147727,177.767045 34.6022727,176.454545 30.1704545,173.352273 C25.6704545,170.215909 23.3011364,167.761364 23.0625,165.988636 C22.8920455,164.454545 23.6079545,162.323864 25.2102273,159.596591" id="Shape" fill="#0D131A"></path>
                            <path d="M193.653409,184.397727 L193.653409,184.448864 C193.721591,187.278409 195.102273,189.340909 197.795455,190.636364 C200.215909,191.795455 201.852273,191.982955 202.704545,191.198864 C203.590909,190.380682 203.897727,187.278409 203.625,181.892045 C203.352273,176.403409 202.551136,173.352273 201.221591,172.738636 C200.505682,172.431818 199.056818,173.965909 196.875,177.340909 C194.727273,180.715909 193.653409,183.068182 193.653409,184.397727 M195.136364,175.602273 C197.761364,171.409091 199.789773,169.329545 201.221591,169.363636 C203.539773,169.397727 204.988636,173.096591 205.568182,180.460227 C206.147727,187.6875 205.670455,191.863636 204.136364,192.988636 C202.875,193.943182 200.573864,193.772727 197.232955,192.477273 C193.414773,190.977273 191.454545,188.471591 191.352273,184.960227 C191.318182,182.846591 192.579545,179.727273 195.136364,175.602273" id="Shape" fill="#0D131A"></path>
                            <path d="M217.585227,124.875 C217.551136,126.204545 217.363636,127.295455 217.022727,128.147727 L216,129.835227 C214.329545,131.8125 210.340909,134.301136 204.034091,137.301136 C197.522727,140.403409 191.880682,142.431818 187.107955,143.386364 C178.414773,145.159091 165.068182,145.3125 147.068182,143.846591 C129.068182,142.414773 117.698864,140.267045 112.960227,137.403409 C112.176136,136.892045 111.460227,136.056818 110.8125,134.897727 C110.232955,133.909091 109.806818,132.818182 109.534091,131.625 C109.022727,129.477273 108.988636,128.267045 109.431818,127.994318 C109.875,127.721591 110.573864,128.710227 111.528409,130.960227 C112.107955,132.289773 112.721591,133.3125 113.369318,134.028409 L115.414773,135.5625 C119.232955,137.642045 129.443182,139.482955 146.045455,141.085227 C164.011364,142.823864 177.545455,142.772727 186.647727,140.931818 C190.738636,140.079545 195.596591,138.426136 201.221591,135.971591 C206.4375,133.6875 210.340909,131.607955 212.931818,129.732955 C213.886364,129.017045 214.585227,128.284091 215.028409,127.534091 C215.505682,126.75 215.8125,125.795455 215.948864,124.670455 C216.1875,122.625 216.528409,121.670455 216.971591,121.806818 C217.414773,121.977273 217.619318,123 217.585227,124.875" id="Shape" fill="#0D131A"></path>
                            <path d="M140.0625,82.8920455 C141.255682,83.9829545 142.414773,85.3125 143.539773,86.8806818 C144.732955,88.5170455 145.585227,90 146.096591,91.3295455 C146.846591,93.2386364 146.880682,94.3125 146.198864,94.5511364 C145.482955,94.7556818 144.681818,94.0056818 143.795455,92.3011364 C142.329545,89.4034091 140.539773,86.7784091 138.426136,84.4261364 C136.448864,82.1420455 135.664773,80.8125 136.073864,80.4375 C136.517045,80.0625 137.846591,80.8806818 140.0625,82.8920455" id="Shape" fill="#0D131A"></path>
                            <path d="M197.693182,83.25 C197.045455,85.125 196.636364,87.1363636 196.465909,89.2840909 C196.329545,91.1590909 195.903409,92.0795455 195.1875,92.0454545 C194.471591,92.0454545 194.164773,91.125 194.267045,89.2840909 C194.369318,87.0340909 194.948864,84.8181818 196.005682,82.6363636 C196.960227,80.6931818 197.659091,79.7727273 198.102273,79.875 C198.511364,80.0113636 198.375,81.1363636 197.693182,83.25" id="Shape" fill="#0D131A"></path>
                            <path d="M175.244318,136.840909 C174.494318,136.465909 173.897727,135.988636 173.454545,135.409091 C173.011364,134.863636 172.857955,134.471591 172.994318,134.232955 L174.579545,134.284091 C175.568182,134.488636 176.301136,134.8125 176.778409,135.255682 C177.392045,135.869318 177.511364,136.397727 177.136364,136.840909 C176.761364,137.284091 176.130682,137.284091 175.244318,136.840909" id="Shape" fill="#0D131A"></path>
                            <path d="M192.681818,134.284091 C191.965909,135.170455 191.318182,135.477273 190.738636,135.204545 C190.159091,134.931818 190.125,134.369318 190.636364,133.517045 C191.011364,132.903409 191.607955,132.357955 192.426136,131.880682 C193.176136,131.403409 193.653409,131.25 193.857955,131.420455 C193.994318,131.556818 193.960227,131.914773 193.755682,132.494318 L192.681818,134.284091" id="Shape" fill="#0D131A"></path>
                            <path d="M201.835227,85.6534091 C203.028409,84.7329545 204.409091,85.125 205.977273,86.8295455 C207.545455,88.5 208.892045,90.9886364 210.017045,94.2954545 C212.8125,102.579545 212.931818,110.727273 210.375,118.738636 C210.272727,119.045455 209.880682,119.267045 209.198864,119.403409 C208.517045,119.505682 208.210227,119.403409 208.278409,119.096591 C210.357955,112.619318 210.426136,105.272727 208.482955,97.0568182 C207.698864,93.75 206.727273,91.1420455 205.568182,89.2329545 C204.409091,87.2897727 203.352273,86.5738636 202.397727,87.0852273 C202.125,87.2556818 201.903409,87.1022727 201.732955,86.625 C201.5625,86.1818182 201.596591,85.8579545 201.835227,85.6534091" id="Shape" fill="#0D131A"></path>
                            <path d="M198.051136,149.164773 C197.880682,148.892045 198.238636,148.482955 199.125,147.9375 C199.977273,147.357955 200.471591,147.204545 200.607955,147.477273 C210.289773,163.125 214.602273,181.380682 213.545455,202.244318 C213.443182,204.1875 211.960227,206.198864 209.096591,208.278409 C206.369318,210.255682 202.994318,211.909091 198.971591,213.238636 C189.221591,216.443182 181.892045,216.323864 176.982955,212.880682 C173.744318,210.596591 170.386364,206.232955 166.909091,199.789773 C163.568182,193.619318 161.863636,188.931818 161.795455,185.727273 C161.795455,185.420455 162.272727,185.079545 163.227273,184.704545 L164.607955,184.551136 C164.676136,187.721591 166.261364,192.204545 169.363636,198 C172.670455,204.170455 175.994318,208.431818 179.335227,210.784091 C183.596591,213.75 190.022727,213.835227 198.613636,211.039773 C202.090909,209.914773 205.022727,208.517045 207.409091,206.846591 C209.897727,205.142045 211.176136,203.573864 211.244318,202.142045 C212.232955,182.642045 207.835227,164.982955 198.051136,149.164773" id="Shape" fill="#0D131A"></path>
                            <path d="M169.465909,181.585227 C160.636364,188.505682 150.102273,193.193182 137.863636,195.647727 C126.511364,197.897727 116.369318,197.778409 107.4375,195.289773 C107.130682,195.1875 107.079545,194.659091 107.284091,193.704545 C107.454545,192.784091 107.693182,192.357955 108,192.426136 C116.761364,194.880682 126.5625,195.034091 137.403409,192.886364 C148.414773,190.704545 158.403409,186.5625 167.369318,180.460227 C170.778409,178.142045 172.670455,177.221591 173.045455,177.698864 C173.386364,178.142045 172.193182,179.4375 169.465909,181.585227" id="Shape" fill="#0D131A"></path>
                            <path d="M145.585227,191.914773 C145.755682,191.642045 146.539773,191.403409 147.9375,191.198864 L149.778409,191.352273 C147.119318,195.715909 143.829545,199.517045 139.909091,202.755682 C135.409091,206.471591 130.994318,208.602273 126.664773,209.147727 L111.323864,208.6875 C107.301136,207.698864 104.931818,206.198864 104.215909,204.1875 C104.113636,203.880682 104.369318,203.369318 104.982955,202.653409 C105.5625,201.903409 105.903409,201.681818 106.005682,201.988636 C106.6875,203.897727 108.784091,205.329545 112.295455,206.284091 C116.113636,207.340909 120.801136,207.528409 126.357955,206.846591 C129.596591,206.4375 133.022727,204.818182 136.636364,201.988636 C140.215909,199.193182 143.198864,195.835227 145.585227,191.914773" id="Shape" fill="#0D131A"></path>
                            <path d="M26.5909091,24.4431818 C26.8636364,24.2386364 27.5284091,24.2386364 28.5852273,24.4431818 C30.2215909,24.75 31.6534091,25.4829545 32.8806818,26.6420455 C33.1534091,26.8465909 33.1704545,27.1704545 32.9318182,27.6136364 C32.7272727,28.0227273 32.4886364,28.125 32.2159091,27.9204545 C31.5,27.3068182 30.8011364,26.8977273 30.1193182,26.6931818 L29.1477273,26.6420455 L29.3522727,28.2784091 L29.6590909,31.3465909 C29.7613636,35.9829545 28.2443182,42.0511364 25.1079545,49.5511364 C22.6534091,55.5170455 19.5,61.6875 15.6477273,68.0625 C3.51136364,88.2102273 0.835227273,105.596591 7.61931818,120.221591 C10.1761364,125.744318 13.8409091,130.261364 18.6136364,133.772727 C22.8409091,136.840909 26.8977273,138.511364 30.7840909,138.784091 C31.0909091,138.818182 31.0397727,139.210227 30.6306818,139.960227 C30.2556818,140.744318 29.8977273,141.119318 29.5568182,141.085227 C25.0227273,140.778409 20.4886364,138.988636 15.9545455,135.715909 C10.9090909,132.034091 7.07386364,127.261364 4.44886364,121.397727 C-2.36931818,106.193182 0.579545455,88.0738636 13.2954545,67.0397727 C19.2954545,57.0852273 23.3693182,48.9034091 25.5170455,42.4943182 C27.8011364,35.7102273 28.1761364,30.2045455 26.6420455,25.9772727 C26.3352273,25.1931818 26.3181818,24.6818182 26.5909091,24.4431818" id="Shape" fill="#0D131A"></path>
                            <path d="M53.0795455,22.6534091 C53.3181818,22.8920455 53.3181818,23.2670455 53.0795455,23.7784091 C52.8409091,24.3238636 52.6022727,24.4772727 52.3636364,24.2386364 C49.8068182,21.5795455 46.4829545,19.4488636 42.3920455,17.8465909 C38.5397727,16.3806818 35.0795455,15.7329545 32.0113636,15.9034091 C30.5795455,16.0056818 29.8125,16.1931818 29.7102273,16.4659091 C29.6079545,16.7045455 29.9488636,17.4375 30.7329545,18.6647727 C34.4488636,24.5284091 34.5511364,33.1875 31.0397727,44.6420455 C29.1306818,50.7784091 26.1477273,58.4147727 22.0909091,67.5511364 C16.0909091,83.3352273 15.6136364,97.4147727 20.6590909,109.789773 C22.7386364,114.903409 25.6193182,119.232955 29.3011364,122.778409 C32.7102273,126.085227 36.3920455,128.318182 40.3465909,129.477273 C40.6193182,129.545455 40.4147727,129.886364 39.7329545,130.5 C39.0511364,131.079545 38.5568182,131.335227 38.25,131.267045 C27.7840909,128.198864 20.6079545,120.392045 16.7215909,107.846591 C12.6647727,94.8579545 13.6534091,81.0170455 19.6875,66.3238636 L24.1875,56.1477273 C26.3352273,51.1704545 27.9545455,46.8238636 29.0454545,43.1079545 C32.3863636,31.9261364 31.9943182,23.6931818 27.8693182,18.4090909 C26.4715909,16.6022727 25.8238636,15.4431818 25.9261364,14.9318182 C26.0284091,14.3522727 27.0511364,13.9431818 28.9943182,13.7045455 C32.6420455,13.2272727 36.7329545,13.7897727 41.2670455,15.3920455 C46.0738636,17.0965909 50.0113636,19.5170455 53.0795455,22.6534091" id="Shape" fill="#0D131A"></path>
                            <path d="M49.5,12.7840909 L51.3920455,14.3181818 C51.5965909,14.5568182 51.5454545,15.0511364 51.2386364,15.8011364 C50.9318182,16.5170455 50.6761364,16.7556818 50.4715909,16.5170455 L49.3977273,15.2386364 C48.7840909,14.625 48.3238636,14.3863636 48.0170455,14.5227273 C47.7443182,14.6590909 47.6420455,15.1022727 47.7102273,15.8522727 L48.1704545,18.7670455 C48.2386364,19.0397727 47.9659091,19.1761364 47.3522727,19.1761364 C46.7386364,19.1420455 46.4147727,18.9715909 46.3806818,18.6647727 L45.8693182,15.4943182 C45.7329545,13.7556818 46.0056818,12.6136364 46.6875,12.0681818 C47.2670455,11.625 48.2045455,11.8636364 49.5,12.7840909" id="Shape" fill="#0D131A"></path>
                            <path d="M127.943182,27.2045455 C135.272727,33.1022727 139.125,40.2272727 139.5,48.5795455 C139.534091,48.9204545 139.090909,49.1761364 138.170455,49.3465909 C137.25,49.5511364 136.789773,49.4829545 136.789773,49.1420455 C136.448864,41.5056818 133.005682,34.9090909 126.460227,29.3522727 C118.585227,22.6704545 107.573864,19.0738636 93.4261364,18.5625 C81.3238636,18.1193182 72.6647727,16.7727273 67.4488636,14.5227273 C63.2215909,12.7159091 60.1704545,9.66477273 58.2954545,5.36931818 C57.8863636,4.44886364 57.5454545,3.95454545 57.2727273,3.88636364 C56.9659091,3.78409091 56.4715909,4.125 55.7897727,4.90909091 C53.5056818,7.43181818 52.1590909,10.5170455 51.75,14.1647727 C51.3409091,17.9147727 52.125,20.8295455 54.1022727,22.9090909 C58.0909091,27 61.2443182,31.8238636 63.5625,37.3806818 C64.9943182,40.8238636 66.7329545,46.5681818 68.7784091,54.6136364 C71.2670455,64.3977273 74.0113636,71.6761364 77.0113636,76.4488636 C79.4318182,80.3011364 82.9772727,83.7784091 87.6477273,86.8806818 C87.8522727,86.9829545 87.7159091,87.4772727 87.2386364,88.3636364 C86.7954545,89.2159091 86.4375,89.5568182 86.1647727,89.3863636 C80.1647727,85.4318182 75.8522727,81.2386364 73.2272727,76.8068182 C70.8068182,72.7159091 68.4715909,66.0681818 66.2215909,56.8636364 C63.8011364,46.875 61.9943182,40.3806818 60.8011364,37.3806818 C58.9602273,32.6420455 56.1818182,28.3465909 52.4659091,24.4943182 C49.8068182,21.7329545 48.9545455,17.6590909 49.9090909,12.2727273 C50.8295455,7.19318182 52.6875,3.5625 55.4829545,1.38068182 C56.7443182,0.392045455 57.6306818,-0.0511363636 58.1420455,0.0511363636 C58.6534091,0.153409091 59.1477273,0.869318182 59.625,2.19886364 C61.6704545,7.51704545 64.6022727,11.0284091 68.4204545,12.7329545 C72.7159091,14.6079545 81.0681818,15.7840909 93.4772727,16.2613636 C108.068182,16.7727273 119.556818,20.4204545 127.943182,27.2045455" id="Shape" fill="#0D131A"></path>
                            <path d="M142.875,29.7613636 C149.386364,35.3522727 152.198864,41.4034091 151.3125,47.9147727 C151.278409,48.2215909 150.767045,48.3579545 149.778409,48.3238636 C148.789773,48.2897727 148.3125,48.1193182 148.346591,47.8125 C149.096591,42.2215909 146.880682,36.9715909 141.698864,32.0625 C135.732955,26.4375 127.431818,23.2329545 116.795455,22.4488636 C116.454545,22.4147727 115.465909,22.0056818 113.829545,21.2215909 C112.159091,20.4034091 111.477273,19.9943182 111.784091,19.9943182 C124.943182,19.9943182 135.306818,23.25 142.875,29.7613636" id="Shape" fill="#0D131A"></path>
                            <path d="M62.1306818,161.539773 C63.9715909,154.346591 66.5454545,148.960227 69.8522727,145.380682 L107.744318,156.426136 C111.051136,169.039773 111.375,181.056818 108.715909,192.477273 C107.113636,199.261364 104.607955,205.3125 101.198864,210.630682 C99.3579545,213.528409 95.6079545,215.4375 89.9488636,216.357955 C83.9829545,217.346591 78.2386364,216.75 72.7159091,214.568182 C68.6931818,213 65.5397727,209.164773 63.2556818,203.0625 C61.1420455,197.505682 60,190.840909 59.8295455,183.068182 C59.6590909,175.465909 60.4261364,168.289773 62.1306818,161.539773" id="Shape" fill="#7CBEB3"></path>
                            <path d="M70.2613636,175.602273 C70.4659091,173.522727 72.9715909,170.710227 77.7784091,167.164773 C82.5852273,163.619318 85.6363636,162.340909 86.9318182,163.329545 C88.2613636,164.318182 88.5170455,169.704545 87.6988636,179.488636 C86.8806818,189.272727 85.6363636,194.232955 83.9659091,194.369318 C82.9772727,194.4375 80.4204545,191.710227 76.2954545,186.1875 C72.1363636,180.596591 70.125,177.068182 70.2613636,175.602273" id="Shape" fill="#006359"></path>
                            <path d="M61.1590909,163.6875 C61.3295455,178.3125 64.6193182,190.5 71.0284091,200.25 C77.1647727,209.693182 84.8352273,214.892045 94.0397727,215.846591 C90.2897727,216.801136 86.2329545,217.107955 81.8693182,216.767045 C73.1420455,216.085227 67.2613636,212.471591 64.2272727,205.926136 C61.1931818,199.414773 59.7784091,190.414773 59.9829545,178.926136 L61.1590909,163.6875" id="Shape" fill="#68A198"></path>
                            <path d="M67.6534091,151.005682 C63.2215909,158.607955 61.2102273,169.5 61.6193182,183.681818 C62.0625,198.443182 65.1647727,207.9375 70.9261364,212.164773 C74.8465909,215.028409 80.0965909,216.170455 86.6761364,215.590909 C93.0170455,215.011364 97.2102273,213.272727 99.2556818,210.375 C103.892045,203.795455 106.926136,195.852273 108.357955,186.545455 C109.653409,178.159091 109.482955,170.181818 107.846591,162.613636 C107.028409,158.829545 106.926136,156.801136 107.539773,156.528409 C108.153409,156.255682 108.971591,157.960227 109.994318,161.642045 C112.107955,169.3125 112.534091,177.613636 111.272727,186.545455 C109.909091,196.261364 106.789773,204.596591 101.914773,211.551136 C99.3920455,215.130682 94.1761364,217.227273 86.2670455,217.840909 C78.5284091,218.420455 72.6988636,217.278409 68.7784091,214.414773 C65.9488636,212.335227 63.6136364,208.653409 61.7727273,203.369318 C60,198.323864 58.9261364,192.528409 58.5511364,185.982955 C57.6306818,171.119318 59.9829545,159.102273 65.6079545,149.931818 C67.5852273,146.693182 68.9488636,145.142045 69.6988636,145.278409 C70.4829545,145.380682 69.8011364,147.289773 67.6534091,151.005682" id="Shape" fill="#0D131A"></path>
                            <path d="M71.4886364,175.090909 C71.4204545,176.284091 73.1761364,179.625 76.7556818,185.113636 C80.4034091,190.704545 82.7386364,193.431818 83.7613636,193.295455 C84.8863636,193.125 85.8068182,188.505682 86.5227273,179.4375 C87.2386364,170.335227 87.0681818,165.409091 86.0113636,164.659091 C85.0227273,163.977273 82.3636364,165.255682 78.0340909,168.494318 C73.7386364,171.732955 71.5568182,173.931818 71.4886364,175.090909 M69.1363636,174.579545 C69.2386364,172.090909 72.0852273,168.954545 77.6761364,165.170455 C83.1647727,161.488636 86.4545455,160.159091 87.5454545,161.181818 C89.3522727,162.920455 89.8636364,168.835227 89.0795455,178.926136 C88.2613636,189.017045 86.8125,194.659091 84.7329545,195.852273 C83.3011364,196.704545 80.3181818,194.011364 75.7840909,187.772727 C71.25,181.568182 69.0340909,177.170455 69.1363636,174.579545" id="Shape" fill="#0D131A"></path>
                            <path d="M30.5795455,210.732955 C30.4090909,210.221591 31.0568182,209.352273 32.5227273,208.125 C34.0227273,206.897727 35.1477273,206.335227 35.8977273,206.4375 C37.2613636,206.607955 38.1988636,208.090909 38.7102273,210.886364 C39.1875,213.477273 39.2215909,214.960227 38.8125,215.335227 C38.3352273,215.778409 37.0056818,215.505682 34.8238636,214.517045 C32.4715909,213.460227 31.0568182,212.198864 30.5795455,210.732955" id="Shape" fill="#FFFFFF"></path>
                            <path d="M45.8181818,214.568182 C43.4318182,213.477273 42.2386364,212.386364 42.2386364,211.295455 C42.2386364,210.340909 42.9375,209.181818 44.3352273,207.818182 C45.6988636,206.454545 46.7386364,205.943182 47.4545455,206.284091 C48.5795455,206.829545 49.5,208.431818 50.2159091,211.090909 C50.8977273,213.647727 50.9318182,215.130682 50.3181818,215.539773 C49.6704545,215.982955 48.1704545,215.659091 45.8181818,214.568182" id="Shape" fill="#FFFFFF"></path>
                            <path d="M53.8465909,211.448864 C53.6079545,209.676136 54.2556818,208.039773 55.7897727,206.539773 L58.1931818,204.801136 C59.4545455,205.346591 60.4431818,206.982955 61.1590909,209.710227 C61.8068182,212.164773 61.9602273,213.596591 61.6193182,214.005682 L57.5795455,213.903409 C55.1931818,213.323864 53.9488636,212.505682 53.8465909,211.448864" id="Shape" fill="#FFFFFF"></path>
                            <path d="M73.9431818,215.744318 C73.875,214.857955 74.1818182,213.903409 74.8636364,212.880682 C75.6818182,211.653409 76.7215909,211.056818 77.9829545,211.090909 C79.2443182,211.125 80.2159091,211.602273 80.8977273,212.522727 C81.4431818,213.375 81.6818182,214.414773 81.6136364,215.642045 C81.5454545,216.767045 81.1534091,218.028409 80.4375,219.426136 C79.7556818,220.823864 79.2102273,221.522727 78.8011364,221.522727 C78.3579545,221.522727 77.4715909,220.789773 76.1420455,219.323864 C74.7443182,217.789773 74.0113636,216.596591 73.9431818,215.744318" id="Shape" fill="#FFFFFF"></path>
                            <path d="M84.1193182,216.869318 C84.0170455,215.198864 84.4772727,213.818182 85.5,212.727273 C86.3181818,211.806818 87.1363636,211.346591 87.9545455,211.346591 C88.5681818,211.346591 89.2840909,211.806818 90.1022727,212.727273 C90.9204545,213.681818 91.4318182,214.636364 91.6363636,215.590909 C91.7727273,216.204545 91.6193182,217.261364 91.1761364,218.761364 C90.7329545,220.363636 90.2045455,221.318182 89.5909091,221.625 C88.9772727,221.965909 87.9545455,221.590909 86.5227273,220.5 C84.9886364,219.375 84.1875,218.164773 84.1193182,216.869318" id="Shape" fill="#FFFFFF"></path>
                            <path d="M94.1931818,216.5625 C93.2386364,215.539773 93.3238636,213.988636 94.4488636,211.909091 C95.5738636,209.829545 96.6818182,208.943182 97.7727273,209.25 C98.7954545,209.590909 99.7840909,211.022727 100.738636,213.545455 C101.625,215.965909 101.846591,217.517045 101.403409,218.198864 C100.994318,218.8125 99.9375,218.948864 98.2329545,218.607955 C96.4943182,218.232955 95.1477273,217.551136 94.1931818,216.5625" id="Shape" fill="#FFFFFF"></path>
                            <path d="M111.579545,207.255682 C111.443182,206.539773 112.107955,205.653409 113.573864,204.596591 C115.005682,203.573864 116.045455,203.198864 116.693182,203.471591 C117.818182,203.982955 118.551136,205.414773 118.892045,207.767045 C119.232955,210.051136 119.096591,211.329545 118.482955,211.602273 C117.869318,211.875 116.659091,211.551136 114.852273,210.630682 C112.909091,209.607955 111.818182,208.482955 111.579545,207.255682" id="Shape" fill="#FFFFFF"></path>
                            <path d="M125.4375,210.732955 C123.357955,210.017045 122.147727,209.198864 121.806818,208.278409 C121.5,207.494318 122.028409,206.369318 123.392045,204.903409 C124.755682,203.471591 125.744318,202.892045 126.357955,203.164773 C127.551136,203.676136 128.386364,204.988636 128.863636,207.102273 C129.272727,208.943182 129.306818,210.204545 128.965909,210.886364 L125.4375,210.732955" id="Shape" fill="#FFFFFF"></path>
                            <path d="M131.011364,206.488636 C130.602273,205.670455 131.181818,204.494318 132.75,202.960227 C134.284091,201.460227 135.392045,200.846591 136.073864,201.119318 C136.857955,201.460227 137.625,202.704545 138.375,204.852273 C139.090909,206.965909 139.278409,208.261364 138.9375,208.738636 L135.051136,208.636364 C132.801136,208.090909 131.454545,207.375 131.011364,206.488636" id="Shape" fill="#FFFFFF"></path>
                            <path d="M189,214.363636 C188.522727,213.886364 188.897727,212.659091 190.125,210.681818 C191.352273,208.670455 192.392045,207.681818 193.244318,207.715909 C194.369318,207.784091 195.630682,209.011364 197.028409,211.397727 C198.357955,213.647727 198.869318,214.977273 198.5625,215.386364 C198.1875,215.863636 196.738636,216.017045 194.215909,215.846591 C191.590909,215.676136 189.852273,215.181818 189,214.363636" id="Shape" fill="#FFFFFF"></path>
                            <path d="M200.147727,211.551136 C199.670455,211.039773 199.977273,209.761364 201.068182,207.715909 C202.125,205.670455 203.045455,204.681818 203.829545,204.75 C204.579545,204.818182 205.636364,206.011364 207,208.329545 C208.295455,210.613636 208.823864,212.011364 208.585227,212.522727 C208.278409,213.034091 207.034091,213.221591 204.852273,213.085227 C202.534091,212.948864 200.965909,212.4375 200.147727,211.551136" id="Shape" fill="#FFFFFF"></path>
                            <path d="M208.6875,206.846591 C208.142045,206.164773 208.3125,204.869318 209.198864,202.960227 C210.051136,201.119318 210.732955,200.232955 211.244318,200.301136 C212.130682,200.403409 213.221591,201.528409 214.517045,203.676136 C215.778409,205.789773 216.255682,207.119318 215.948864,207.664773 C215.710227,208.244318 214.636364,208.465909 212.727273,208.329545 C210.715909,208.193182 209.369318,207.698864 208.6875,206.846591" id="Shape" fill="#FFFFFF"></path>
                            <path d="M32.7784091,207.818182 L35.0284091,210.630682 C36.5284091,212.710227 37.3636364,214.329545 37.5340909,215.488636 L33.9545455,213.647727 C31.6022727,212.318182 30.4943182,211.363636 30.6306818,210.784091 C30.7670455,210.204545 31.1761364,209.539773 31.8579545,208.789773 L32.7784091,207.818182" id="Shape" fill="#DBDCDC"></path>
                            <path d="M44.2840909,208.022727 L46.2272727,210.426136 C47.5909091,212.335227 48.4943182,214.056818 48.9375,215.590909 C44.7443182,214.125 42.5965909,212.676136 42.4943182,211.244318 C42.4261364,210.357955 42.6988636,209.556818 43.3125,208.840909 L44.2840909,208.022727" id="Shape" fill="#DBDCDC"></path>
                            <path d="M60.3409091,214.363636 C58.1590909,213.886364 56.5909091,213.409091 55.6363636,212.931818 C54.5454545,212.420455 53.9318182,211.789773 53.7954545,211.039773 C53.6590909,210.392045 53.7954545,209.642045 54.2045455,208.789773 L54.8693182,207.715909 C55.7897727,208.159091 56.9147727,209.25 58.2443182,210.988636 C59.3693182,212.488636 60.0681818,213.613636 60.3409091,214.363636" id="Shape" fill="#DBDCDC"></path>
                            <path d="M75.9886364,212.164773 L76.5,215.284091 C76.9431818,217.636364 77.4886364,219.477273 78.1363636,220.806818 L76.1931818,219.119318 C74.9318182,217.721591 74.3352273,216.289773 74.4034091,214.823864 C74.4715909,213.801136 74.7272727,213.051136 75.1704545,212.573864 C75.5113636,212.198864 75.7840909,212.0625 75.9886364,212.164773" id="Shape" fill="#DBDCDC"></path>
                            <path d="M85.1931818,213.801136 L87.1363636,216.971591 L89.6931818,221.676136 C88.7386364,221.369318 87.7840909,220.926136 86.8295455,220.346591 C84.9204545,219.1875 84.0340909,217.943182 84.1704545,216.613636 C84.3068182,215.318182 84.5113636,214.465909 84.7840909,214.056818 L85.1931818,213.801136" id="Shape" fill="#DBDCDC"></path>
                            <path d="M94.4488636,211.960227 L96.8522727,214.261364 C98.5568182,216 99.5965909,217.448864 99.9715909,218.607955 L96.8011364,217.585227 C94.6875,216.767045 93.6647727,215.965909 93.7329545,215.181818 L94.1420455,212.880682 L94.4488636,211.960227" id="Shape" fill="#DBDCDC"></path>
                            <path d="M113.267045,204.954545 C113.573864,205.159091 114.221591,205.926136 115.210227,207.255682 C116.4375,208.926136 117.119318,210.272727 117.255682,211.295455 L113.573864,209.556818 C112.619318,208.977273 112.125,208.244318 112.090909,207.357955 C112.056818,206.710227 112.244318,206.113636 112.653409,205.568182 L113.267045,204.954545" id="Shape" fill="#DBDCDC"></path>
                            <path d="M122.829545,205.261364 L124.517045,206.4375 C125.8125,207.630682 126.9375,209.198864 127.892045,211.142045 L125.130682,210.375 C123.255682,209.693182 122.215909,208.909091 122.011364,208.022727 C121.806818,207.136364 121.875,206.420455 122.215909,205.875 L122.829545,205.261364" id="Shape" fill="#DBDCDC"></path>
                            <path d="M132.443182,203.215909 L134.539773,204.75 C136.039773,206.079545 137.0625,207.460227 137.607955,208.892045 L134.693182,208.482955 C132.647727,207.971591 131.4375,207.204545 131.0625,206.181818 C130.857955,205.704545 130.943182,205.107955 131.318182,204.392045 C131.659091,203.710227 132.034091,203.318182 132.443182,203.215909" id="Shape" fill="#DBDCDC"></path>
                            <path d="M190.329545,210.426136 C193.193182,211.789773 195.494318,213.494318 197.232955,215.539773 L193.397727,215.590909 C190.840909,215.454545 189.511364,214.943182 189.409091,214.056818 C189.306818,213.170455 189.426136,212.301136 189.767045,211.448864 L190.329545,210.426136" id="Shape" fill="#DBDCDC"></path>
                            <path d="M201.017045,208.227273 C201.596591,208.397727 202.568182,208.909091 203.931818,209.761364 C205.772727,210.886364 206.914773,211.960227 207.357955,212.982955 L203.778409,212.829545 C201.357955,212.556818 200.130682,212.028409 200.096591,211.244318 C200.028409,210.494318 200.164773,209.761364 200.505682,209.045455 L201.017045,208.227273" id="Shape" fill="#DBDCDC"></path>
                            <path d="M209.096591,203.215909 L211.346591,204.596591 C213.017045,205.755682 214.176136,206.982955 214.823864,208.278409 L212.164773,208.073864 C210.323864,207.801136 209.181818,207.340909 208.738636,206.693182 C208.295455,206.045455 208.227273,205.261364 208.534091,204.340909 L209.096591,203.215909" id="Shape" fill="#DBDCDC"></path>
                            <path d="M188.028409,214.670455 C187.755682,213.681818 188.301136,212.096591 189.664773,209.914773 C191.028409,207.698864 192.204545,206.573864 193.193182,206.539773 C194.181818,206.505682 195.5625,207.801136 197.335227,210.426136 C199.073864,212.982955 199.823864,214.721591 199.585227,215.642045 C199.380682,216.460227 197.471591,216.715909 193.857955,216.409091 C190.244318,216.102273 188.301136,215.522727 188.028409,214.670455 M191.352273,210.681818 C190.5,212.045455 190.159091,213.034091 190.329545,213.647727 C190.670455,214.125 191.880682,214.517045 193.960227,214.823864 C195.971591,215.130682 197.0625,215.113636 197.232955,214.772727 C197.403409,214.397727 196.943182,213.306818 195.852273,211.5 C194.693182,209.659091 193.789773,208.721591 193.142045,208.6875 C192.767045,208.653409 192.170455,209.318182 191.352273,210.681818" id="Shape" fill="#0D131A"></path>
                            <path d="M207.511364,212.113636 C207.715909,211.806818 207.272727,210.715909 206.181818,208.840909 C205.125,206.965909 204.323864,205.977273 203.778409,205.875 C203.369318,205.840909 202.789773,206.556818 202.039773,208.022727 C201.255682,209.488636 200.931818,210.511364 201.068182,211.090909 C201.170455,211.602273 202.244318,211.977273 204.289773,212.215909 L207.511364,212.113636 M204.034091,203.573864 C205.125,203.710227 206.420455,205.227273 207.920455,208.125 C209.352273,210.886364 209.914773,212.590909 209.607955,213.238636 C209.301136,213.920455 207.681818,214.125 204.75,213.852273 C201.75,213.545455 199.943182,212.965909 199.329545,212.113636 C198.784091,211.363636 199.142045,209.744318 200.403409,207.255682 C201.664773,204.664773 202.875,203.4375 204.034091,203.573864" id="Shape" fill="#0D131A"></path>
                            <path d="M209.863636,203.522727 C209.352273,204.681818 209.25,205.636364 209.556818,206.386364 C209.693182,206.795455 210.596591,207.119318 212.267045,207.357955 L214.977273,207.204545 C215.181818,206.863636 214.823864,205.875 213.903409,204.238636 C212.982955,202.5 212.181818,201.647727 211.5,201.681818 C210.920455,201.75 210.375,202.363636 209.863636,203.522727 M208.738636,202.244318 C209.795455,200.301136 210.698864,199.329545 211.448864,199.329545 C212.710227,199.329545 214.039773,200.744318 215.4375,203.573864 C216.801136,206.301136 217.278409,208.005682 216.869318,208.6875 L212.318182,208.840909 C209.522727,208.5 208.005682,208.022727 207.767045,207.409091 C207.255682,206.079545 207.579545,204.357955 208.738636,202.244318" id="Shape" fill="#0D131A"></path>
                            <path d="M89.5909091,213.443182 C89.0113636,212.761364 88.4488636,212.454545 87.9034091,212.522727 C87.1193182,212.556818 86.4204545,213.051136 85.8068182,214.005682 C85.1931818,214.926136 84.9375,215.8125 85.0397727,216.664773 C85.1420455,217.448864 85.8068182,218.335227 87.0340909,219.323864 C88.2272727,220.244318 89.0284091,220.619318 89.4375,220.448864 C89.7102273,220.346591 90,219.852273 90.3068182,218.965909 C90.7159091,217.943182 90.8522727,216.988636 90.7159091,216.102273 C90.6136364,215.045455 90.2386364,214.159091 89.5909091,213.443182 M84.2727273,212.778409 C85.4318182,211.073864 86.6931818,210.272727 88.0568182,210.375 C89.0454545,210.443182 89.9318182,210.954545 90.7159091,211.909091 C91.5,212.863636 91.9943182,214.039773 92.1988636,215.4375 C92.4375,216.801136 92.3352273,218.284091 91.8920455,219.886364 C91.4488636,221.454545 90.9034091,222.357955 90.2556818,222.596591 C89.4375,222.903409 88.125,222.460227 86.3181818,221.267045 C84.375,219.9375 83.2670455,218.488636 82.9943182,216.920455 C82.7897727,215.727273 83.2159091,214.346591 84.2727273,212.778409" id="Shape" fill="#0D131A"></path>
                            <path d="M79.8238636,213.340909 C79.3806818,212.727273 78.8863636,212.386364 78.3409091,212.318182 C77.6931818,212.25 77.0113636,212.522727 76.2954545,213.136364 C75.5454545,213.75 75.1704545,214.414773 75.1704545,215.130682 C75.2045455,216.017045 75.6988636,217.073864 76.6534091,218.301136 C77.5056818,219.460227 78.1363636,220.039773 78.5454545,220.039773 C78.9204545,220.005682 79.3295455,219.511364 79.7727273,218.556818 C80.25,217.602273 80.5056818,216.647727 80.5397727,215.693182 C80.5738636,214.806818 80.3352273,214.022727 79.8238636,213.340909 M74.5568182,211.653409 C75.8181818,210.528409 77.1306818,210.051136 78.4943182,210.221591 C79.6193182,210.357955 80.5909091,210.971591 81.4090909,212.0625 C82.1931818,213.153409 82.5511364,214.363636 82.4829545,215.693182 C82.4488636,216.784091 82.0227273,218.181818 81.2045455,219.886364 C80.3181818,221.659091 79.5511364,222.579545 78.9034091,222.647727 C78.1534091,222.75 76.9772727,221.880682 75.375,220.039773 C73.6704545,218.130682 72.7840909,216.511364 72.7159091,215.181818 C72.6477273,213.920455 73.2613636,212.744318 74.5568182,211.653409" id="Shape" fill="#0D131A"></path>
                            <path d="M99.5113636,212.318182 C98.7272727,211.227273 98.0113636,210.681818 97.3636364,210.681818 C96.7159091,210.613636 96.0681818,211.090909 95.4204545,212.113636 C94.7386364,213.170455 94.4829545,214.159091 94.6534091,215.079545 C94.8238636,215.897727 95.7784091,216.613636 97.5170455,217.227273 C99.1875,217.772727 100.159091,217.926136 100.431818,217.6875 C100.670455,217.482955 100.721591,216.767045 100.585227,215.539773 C100.448864,214.210227 100.090909,213.136364 99.5113636,212.318182 M97.7215909,208.431818 C99.3920455,208.670455 100.704545,210.426136 101.659091,213.698864 C102.545455,216.767045 102.715909,218.607955 102.170455,219.221591 L97.3636364,218.914773 C94.5,218.130682 92.9488636,217.107955 92.7102273,215.846591 C92.4375,214.448864 92.8295455,212.846591 93.8863636,211.039773 C95.0454545,209.096591 96.3238636,208.227273 97.7215909,208.431818" id="Shape" fill="#0D131A"></path>
                            <path d="M62.0795455,209.301136 C62.9318182,212.573864 63.0170455,214.414773 62.3352273,214.823864 C61.4488636,215.335227 59.7102273,215.232955 57.1193182,214.517045 C54.4261364,213.767045 52.9261364,212.863636 52.6193182,211.806818 C52.2102273,210.545455 52.6875,208.926136 54.0511364,206.948864 C55.4488636,204.903409 56.8465909,203.931818 58.2443182,204.034091 C59.8806818,204.136364 61.1590909,205.892045 62.0795455,209.301136 M54.7670455,210.988636 C54.8693182,211.704545 55.8068182,212.352273 57.5795455,212.931818 C59.2840909,213.477273 60.3238636,213.579545 60.6988636,213.238636 C60.9715909,213 60.8181818,211.857955 60.2386364,209.8125 C59.625,207.630682 58.9090909,206.471591 58.0909091,206.335227 C57.4090909,206.232955 56.6590909,206.693182 55.8409091,207.715909 C54.9204545,208.806818 54.5625,209.897727 54.7670455,210.988636" id="Shape" fill="#0D131A"></path>
                            <path d="M43.4659091,211.295455 C43.4659091,212.079545 44.4034091,212.897727 46.2784091,213.75 C48.1193182,214.568182 49.1761364,214.789773 49.4488636,214.414773 C49.7556818,214.039773 49.6704545,212.931818 49.1931818,211.090909 C48.6818182,209.113636 48.0170455,208.039773 47.1988636,207.869318 C46.4147727,207.698864 45.5965909,208.056818 44.7443182,208.943182 C43.9602273,209.761364 43.5340909,210.511364 43.4659091,211.193182 L43.4659091,211.295455 M43.4147727,207.255682 C44.8806818,205.892045 46.1761364,205.3125 47.3011364,205.517045 C49.0056818,205.823864 50.2329545,207.613636 50.9829545,210.886364 C51.6988636,213.988636 51.7159091,215.829545 51.0340909,216.409091 C50.3863636,217.022727 48.5795455,216.681818 45.6136364,215.386364 C42.5113636,214.090909 41.0284091,212.625 41.1647727,210.988636 C41.2670455,209.829545 42.0170455,208.585227 43.4147727,207.255682" id="Shape" fill="#0D131A"></path>
                            <path d="M132.034091,205.772727 C132.136364,206.454545 133.125,207.102273 135,207.715909 C136.806818,208.295455 137.829545,208.431818 138.068182,208.125 C138.306818,207.818182 138.153409,206.761364 137.607955,204.954545 C137.028409,203.045455 136.397727,202.056818 135.715909,201.988636 C135.136364,201.920455 134.352273,202.363636 133.363636,203.318182 C132.375,204.306818 131.931818,205.125 132.034091,205.772727 M132.085227,202.346591 C133.857955,200.642045 135.255682,199.960227 136.278409,200.301136 C137.573864,200.778409 138.630682,202.397727 139.448864,205.159091 C140.232955,207.784091 140.369318,209.335227 139.857955,209.8125 C139.346591,210.255682 137.676136,210.102273 134.846591,209.352273 C131.948864,208.568182 130.329545,207.698864 129.988636,206.744318 C129.579545,205.551136 130.278409,204.085227 132.085227,202.346591" id="Shape" fill="#0D131A"></path>
                            <path d="M125.539773,209.863636 C127.039773,210.375 127.909091,210.511364 128.147727,210.272727 C128.386364,210.034091 128.335227,209.0625 127.994318,207.357955 C127.619318,205.551136 127.090909,204.5625 126.409091,204.392045 C125.727273,204.221591 124.926136,204.596591 124.005682,205.517045 C123.085227,206.471591 122.710227,207.306818 122.880682,208.022727 C123.085227,208.738636 123.971591,209.352273 125.539773,209.863636 M126.818182,202.5 C127.943182,202.772727 128.880682,204.255682 129.630682,206.948864 C130.3125,209.573864 130.380682,211.295455 129.835227,212.113636 C129.494318,212.625 127.977273,212.403409 125.284091,211.448864 C122.488636,210.460227 120.988636,209.420455 120.784091,208.329545 C120.545455,207.238636 121.193182,205.926136 122.727273,204.392045 C124.295455,202.823864 125.659091,202.193182 126.818182,202.5" id="Shape" fill="#0D131A"></path>
                            <path d="M115.210227,209.761364 C116.710227,210.579545 117.613636,210.886364 117.920455,210.681818 C118.193182,210.511364 118.227273,209.522727 118.022727,207.715909 C117.784091,205.806818 117.306818,204.732955 116.590909,204.494318 C115.909091,204.255682 115.090909,204.494318 114.136364,205.210227 C113.215909,205.892045 112.772727,206.573864 112.806818,207.255682 C112.840909,208.073864 113.642045,208.909091 115.210227,209.761364 M117.153409,202.602273 C118.585227,202.909091 119.4375,204.596591 119.710227,207.664773 C119.948864,210.5625 119.778409,212.215909 119.198864,212.625 C118.551136,213.034091 116.948864,212.556818 114.392045,211.193182 C111.801136,209.761364 110.454545,208.517045 110.352273,207.460227 C110.25,206.471591 110.982955,205.346591 112.551136,204.085227 C114.221591,202.789773 115.755682,202.295455 117.153409,202.602273" id="Shape" fill="#0D131A"></path>
                            <path d="M34.6193182,212.982955 C36.4261364,213.903409 37.4659091,214.193182 37.7386364,213.852273 C38.0454545,213.511364 37.9943182,212.4375 37.5852273,210.630682 C37.1420455,208.755682 36.6136364,207.732955 36,207.5625 C35.2840909,207.323864 34.4147727,207.596591 33.3920455,208.380682 C32.3693182,209.164773 31.8579545,209.931818 31.8579545,210.681818 C31.8920455,211.261364 32.8125,212.028409 34.6193182,212.982955 M36.4602273,205.261364 C37.9261364,205.568182 38.9659091,207.357955 39.5795455,210.630682 C40.1590909,213.767045 40.1420455,215.522727 39.5284091,215.897727 C38.4715909,216.613636 36.5625,216.238636 33.8011364,214.772727 C31.0738636,213.340909 29.6590909,212.0625 29.5568182,210.9375 C29.4204545,209.642045 30.2215909,208.295455 31.9602273,206.897727 C33.6647727,205.534091 35.1647727,204.988636 36.4602273,205.261364" id="Shape" fill="#0D131A"></path>
                        </g>
                        <g id="Pirate-Eye-Patch" transform="translate(87.954545, 74.659091)">
                            <path d="M121.474724,0.754265645 C121.757771,1.45612796 122.037268,2.1611732 122.313168,2.86923078 L122.313168,2.86923078 C105.327995,11.9156652 84.3652156,17.2585227 61.6832386,17.2585227 C38.7654197,17.2585227 17.6027361,11.80398 0.524782781,2.58584572 C0.80110292,1.87997299 1.08100051,1.17712354 1.36442705,0.477466997 C18.2941657,9.42379902 39.1395533,14.7017045 61.6832386,14.7017045 C83.9934219,14.7017045 104.640306,9.53256738 121.47473,0.754276499 L121.474724,0.754265645 Z" id="PatchString" fill="#000000"></path>
                            <path d="M39.9579939,50.9716851 C52.2836981,51.8335823 63.6219903,42.442177 64.4962003,29.9403913 C65.3704103,17.4386056 68.1686406,9.18959899 43.1237884,5.69871433 C18.0789363,2.20782968 18.1844971,14.1390452 17.3102871,26.6408308 C16.4360771,39.1426165 27.6322898,50.1097879 39.9579939,50.9716851 L39.9579939,50.9716851 L39.9579939,50.9716851 Z" id="Oval-50" fill="#000000"></path>
                            <g id="Group" transform="translate(40.744896, 27.881235) rotate(8.000000) translate(-40.744896, -27.881235) translate(28.744896, 11.381235)" fill="#FFFFFF">
                                <path d="M18.4284851,25.5557449 L17.5935394,28.8936898 L15.5558122,30.6808196 C15.2010387,31.3776314 14.7292265,31.9003721 14.140898,32.2485143 C13.5530921,32.597184 12.8597424,32.771255 12.0613713,32.771255 C10.4635841,32.771255 9.29894466,32.0749707 8.56640785,30.6808196 L6.51666326,28.8936898 L5.67701515,25.5557449 L6.88658913,25.2524392 C7.01982514,25.5895042 7.11962152,25.8485008 7.18650078,26.0278468 C7.69802256,27.2194425 8.25865879,28.0059273 8.87049945,28.3878287 C9.48234011,28.7702576 10.4991137,28.9612083 11.9223878,28.9612083 C13.5233099,28.9612083 14.6289076,28.7813348 15.2407482,28.4215879 C15.8525889,28.0623685 16.4137476,27.264279 16.9252694,26.0278468 C16.9921487,25.8479733 17.0914226,25.5895042 17.2251811,25.2524392 L18.4284851,25.5557449 L18.4284851,25.5557449 Z" id="Shape"></path>
                                <path d="M20.4379976,2.79885202 C18.2780068,0.933126502 15.4617633,2.13162821e-14 11.9882221,2.13162821e-14 C8.51468093,2.13162821e-14 5.69791492,0.933126502 3.53844656,2.79885202 C1.3784557,4.66510502 0.298982769,7.10368264 0.298982769,10.1156399 C0.298982769,12.7008592 0.643828914,14.5781894 1.3340437,15.7465756 C2.22437375,17.3200727 2.70350089,18.3766315 2.77038014,18.9162518 L3.20457279,21.7483356 L7.90179528,24.0075672 L8.57320028,25.7271786 C8.99485306,25.8622155 9.49383498,25.9687681 10.0706685,26.0473638 C10.6475021,26.1264871 11.2906924,26.1655212 12.000762,26.1655212 C13.4428458,26.1655212 14.5850181,26.019407 15.4283236,25.7271786 L16.0965937,24.0075672 L20.7723939,21.7483356 L21.2065866,18.9162518 C21.2954106,18.3766315 21.4072243,17.9720481 21.5404603,17.7025016 C22.9653019,15.2301648 23.6779839,12.7013867 23.6779839,10.1161674 C23.6779839,7.10368264 22.597466,4.66457753 20.4379976,2.79885202 L20.4379976,2.79885202 L20.4379976,2.79885202 Z M7.12850392,18.8482059 C5.26946971,18.8482059 4.3399526,17.7689651 4.3399526,15.6110112 C4.3399526,14.577662 4.58029991,13.8017269 5.06203952,13.2842611 C5.54325665,12.7673227 6.26586607,12.5088535 7.2293453,12.5088535 C9.04344502,12.5088535 9.95101737,13.464662 9.95101737,15.3746965 C9.95101737,17.6908969 9.01000539,18.8482059 7.12850392,18.8482059 L7.12850392,18.8482059 L7.12850392,18.8482059 Z M12.9506563,23.397791 C12.7050841,23.397791 12.4380896,23.308118 12.1491503,23.1282445 C11.8596885,23.3086455 11.5921715,23.397791 11.3476443,23.397791 C10.9468912,23.397791 10.6407097,23.308118 10.4290995,23.1282445 C10.2174894,22.9483711 10.1119456,22.6788247 10.1119456,22.3190777 C10.1119456,21.9820128 10.3789401,21.509911 10.9134516,20.9027721 C11.3361494,20.3858338 11.7483973,19.7897722 12.1491503,19.1156423 C12.5274361,19.7676177 12.9391615,20.3631518 13.384849,20.9027721 C13.9193605,21.509911 14.186355,21.9704081 14.186355,22.2853185 C14.1868775,23.0269668 13.7741071,23.397791 12.9506563,23.397791 L12.9506563,23.397791 L12.9506563,23.397791 Z M17.0313357,18.8482059 C15.1608066,18.8482059 14.2255421,17.7689651 14.2255421,15.6110112 C14.2255421,13.5432577 15.1827514,12.5088535 17.0976925,12.5088535 C18.0104898,12.5088535 18.6949571,12.7446407 19.151617,13.2167426 C19.6077544,13.6888445 19.8366069,14.4083383 19.8366069,15.3746965 C19.8371294,17.6908969 18.9018648,18.8482059 17.0313357,18.8482059 L17.0313357,18.8482059 L17.0313357,18.8482059 Z" id="Shape"></path>
                            </g>
                        </g>
                    </g>
                </g>
            </g>
        </g>
    </g>
</svg>